%TF.GenerationSoftware,KiCad,Pcbnew,(5.1.10)-1*%
%TF.CreationDate,2021-08-06T22:34:04+03:00*%
%TF.ProjectId,electronic_load,656c6563-7472-46f6-9e69-635f6c6f6164,rev?*%
%TF.SameCoordinates,Original*%
%TF.FileFunction,Legend,Top*%
%TF.FilePolarity,Positive*%
%FSLAX46Y46*%
G04 Gerber Fmt 4.6, Leading zero omitted, Abs format (unit mm)*
G04 Created by KiCad (PCBNEW (5.1.10)-1) date 2021-08-06 22:34:04*
%MOMM*%
%LPD*%
G01*
G04 APERTURE LIST*
%ADD10C,0.150000*%
%ADD11C,0.120000*%
G04 APERTURE END LIST*
D10*
X120396000Y-104497142D02*
X120443619Y-104544761D01*
X120396000Y-104592380D01*
X120348380Y-104544761D01*
X120396000Y-104497142D01*
X120396000Y-104592380D01*
X121412000Y-90781142D02*
X121459619Y-90828761D01*
X121412000Y-90876380D01*
X121364380Y-90828761D01*
X121412000Y-90781142D01*
X121412000Y-90876380D01*
X97726666Y-114244380D02*
X97250476Y-114244380D01*
X97250476Y-113244380D01*
X98060000Y-114244380D02*
X98060000Y-113244380D01*
X99060000Y-113292000D02*
X98964761Y-113244380D01*
X98821904Y-113244380D01*
X98679047Y-113292000D01*
X98583809Y-113387238D01*
X98536190Y-113482476D01*
X98488571Y-113672952D01*
X98488571Y-113815809D01*
X98536190Y-114006285D01*
X98583809Y-114101523D01*
X98679047Y-114196761D01*
X98821904Y-114244380D01*
X98917142Y-114244380D01*
X99060000Y-114196761D01*
X99107619Y-114149142D01*
X99107619Y-113815809D01*
X98917142Y-113815809D01*
X99536190Y-114244380D02*
X99536190Y-113244380D01*
X99536190Y-113720571D02*
X100107619Y-113720571D01*
X100107619Y-114244380D02*
X100107619Y-113244380D01*
X100440952Y-113244380D02*
X101012380Y-113244380D01*
X100726666Y-114244380D02*
X100726666Y-113244380D01*
X125571428Y-108640571D02*
X125238095Y-108640571D01*
X125238095Y-109164380D02*
X125238095Y-108164380D01*
X125714285Y-108164380D01*
X126047619Y-108878666D02*
X126523809Y-108878666D01*
X125952380Y-109164380D02*
X126285714Y-108164380D01*
X126619047Y-109164380D01*
X126952380Y-109164380D02*
X126952380Y-108164380D01*
X127523809Y-109164380D01*
X127523809Y-108164380D01*
X128000000Y-108783428D02*
X128761904Y-108783428D01*
X152288952Y-131008380D02*
X151717523Y-131008380D01*
X152003238Y-131008380D02*
X152003238Y-130008380D01*
X151908000Y-130151238D01*
X151812761Y-130246476D01*
X151717523Y-130294095D01*
X152669904Y-130103619D02*
X152717523Y-130056000D01*
X152812761Y-130008380D01*
X153050857Y-130008380D01*
X153146095Y-130056000D01*
X153193714Y-130103619D01*
X153241333Y-130198857D01*
X153241333Y-130294095D01*
X153193714Y-130436952D01*
X152622285Y-131008380D01*
X153241333Y-131008380D01*
X153527047Y-130008380D02*
X153860380Y-131008380D01*
X154193714Y-130008380D01*
X98806095Y-115832000D02*
X98710857Y-115784380D01*
X98568000Y-115784380D01*
X98425142Y-115832000D01*
X98329904Y-115927238D01*
X98282285Y-116022476D01*
X98234666Y-116212952D01*
X98234666Y-116355809D01*
X98282285Y-116546285D01*
X98329904Y-116641523D01*
X98425142Y-116736761D01*
X98568000Y-116784380D01*
X98663238Y-116784380D01*
X98806095Y-116736761D01*
X98853714Y-116689142D01*
X98853714Y-116355809D01*
X98663238Y-116355809D01*
X99282285Y-116784380D02*
X99282285Y-115784380D01*
X99853714Y-116784380D01*
X99853714Y-115784380D01*
X100329904Y-116784380D02*
X100329904Y-115784380D01*
X100568000Y-115784380D01*
X100710857Y-115832000D01*
X100806095Y-115927238D01*
X100853714Y-116022476D01*
X100901333Y-116212952D01*
X100901333Y-116355809D01*
X100853714Y-116546285D01*
X100806095Y-116641523D01*
X100710857Y-116736761D01*
X100568000Y-116784380D01*
X100329904Y-116784380D01*
X98329904Y-110704380D02*
X98948952Y-110704380D01*
X98615619Y-111085333D01*
X98758476Y-111085333D01*
X98853714Y-111132952D01*
X98901333Y-111180571D01*
X98948952Y-111275809D01*
X98948952Y-111513904D01*
X98901333Y-111609142D01*
X98853714Y-111656761D01*
X98758476Y-111704380D01*
X98472761Y-111704380D01*
X98377523Y-111656761D01*
X98329904Y-111609142D01*
X99234666Y-110704380D02*
X99568000Y-111704380D01*
X99901333Y-110704380D01*
X100139428Y-110704380D02*
X100758476Y-110704380D01*
X100425142Y-111085333D01*
X100568000Y-111085333D01*
X100663238Y-111132952D01*
X100710857Y-111180571D01*
X100758476Y-111275809D01*
X100758476Y-111513904D01*
X100710857Y-111609142D01*
X100663238Y-111656761D01*
X100568000Y-111704380D01*
X100282285Y-111704380D01*
X100187047Y-111656761D01*
X100139428Y-111609142D01*
X134397904Y-81748380D02*
X135016952Y-81748380D01*
X134683619Y-82129333D01*
X134826476Y-82129333D01*
X134921714Y-82176952D01*
X134969333Y-82224571D01*
X135016952Y-82319809D01*
X135016952Y-82557904D01*
X134969333Y-82653142D01*
X134921714Y-82700761D01*
X134826476Y-82748380D01*
X134540761Y-82748380D01*
X134445523Y-82700761D01*
X134397904Y-82653142D01*
X135302666Y-81748380D02*
X135636000Y-82748380D01*
X135969333Y-81748380D01*
X136207428Y-81748380D02*
X136826476Y-81748380D01*
X136493142Y-82129333D01*
X136636000Y-82129333D01*
X136731238Y-82176952D01*
X136778857Y-82224571D01*
X136826476Y-82319809D01*
X136826476Y-82557904D01*
X136778857Y-82653142D01*
X136731238Y-82700761D01*
X136636000Y-82748380D01*
X136350285Y-82748380D01*
X136255047Y-82700761D01*
X136207428Y-82653142D01*
X131056190Y-82748380D02*
X131056190Y-81748380D01*
X131294285Y-81748380D01*
X131437142Y-81796000D01*
X131532380Y-81891238D01*
X131580000Y-81986476D01*
X131627619Y-82176952D01*
X131627619Y-82319809D01*
X131580000Y-82510285D01*
X131532380Y-82605523D01*
X131437142Y-82700761D01*
X131294285Y-82748380D01*
X131056190Y-82748380D01*
X132056190Y-82748380D02*
X132056190Y-81748380D01*
X132722857Y-81748380D02*
X132913333Y-81748380D01*
X133008571Y-81796000D01*
X133103809Y-81891238D01*
X133151428Y-82081714D01*
X133151428Y-82415047D01*
X133103809Y-82605523D01*
X133008571Y-82700761D01*
X132913333Y-82748380D01*
X132722857Y-82748380D01*
X132627619Y-82700761D01*
X132532380Y-82605523D01*
X132484761Y-82415047D01*
X132484761Y-82081714D01*
X132532380Y-81891238D01*
X132627619Y-81796000D01*
X132722857Y-81748380D01*
X128436761Y-82653142D02*
X128389142Y-82700761D01*
X128246285Y-82748380D01*
X128151047Y-82748380D01*
X128008190Y-82700761D01*
X127912952Y-82605523D01*
X127865333Y-82510285D01*
X127817714Y-82319809D01*
X127817714Y-82176952D01*
X127865333Y-81986476D01*
X127912952Y-81891238D01*
X128008190Y-81796000D01*
X128151047Y-81748380D01*
X128246285Y-81748380D01*
X128389142Y-81796000D01*
X128436761Y-81843619D01*
X129341523Y-82748380D02*
X128865333Y-82748380D01*
X128865333Y-81748380D01*
X129674857Y-82748380D02*
X129674857Y-81748380D01*
X130246285Y-82748380D02*
X129817714Y-82176952D01*
X130246285Y-81748380D02*
X129674857Y-82319809D01*
D11*
%TO.C,PS1*%
X75184000Y-143256000D02*
X113919000Y-143256000D01*
X113919000Y-143256000D02*
X113919000Y-119761000D01*
X75184000Y-119761000D02*
X113919000Y-119761000D01*
X75184000Y-143256000D02*
X75184000Y-119761000D01*
%TO.C,R8*%
X116301436Y-135234000D02*
X117755564Y-135234000D01*
X116301436Y-137054000D02*
X117755564Y-137054000D01*
%TO.C,C17*%
X143804000Y-143764000D02*
G75*
G03*
X143804000Y-143764000I-3870000J0D01*
G01*
X139934000Y-139934000D02*
X139934000Y-147594000D01*
X139974000Y-139934000D02*
X139974000Y-147594000D01*
X140014000Y-139934000D02*
X140014000Y-147594000D01*
X140054000Y-139935000D02*
X140054000Y-147593000D01*
X140094000Y-139937000D02*
X140094000Y-147591000D01*
X140134000Y-139939000D02*
X140134000Y-147589000D01*
X140174000Y-139941000D02*
X140174000Y-142724000D01*
X140174000Y-144804000D02*
X140174000Y-147587000D01*
X140214000Y-139944000D02*
X140214000Y-142724000D01*
X140214000Y-144804000D02*
X140214000Y-147584000D01*
X140254000Y-139947000D02*
X140254000Y-142724000D01*
X140254000Y-144804000D02*
X140254000Y-147581000D01*
X140294000Y-139950000D02*
X140294000Y-142724000D01*
X140294000Y-144804000D02*
X140294000Y-147578000D01*
X140334000Y-139954000D02*
X140334000Y-142724000D01*
X140334000Y-144804000D02*
X140334000Y-147574000D01*
X140374000Y-139959000D02*
X140374000Y-142724000D01*
X140374000Y-144804000D02*
X140374000Y-147569000D01*
X140414000Y-139963000D02*
X140414000Y-142724000D01*
X140414000Y-144804000D02*
X140414000Y-147565000D01*
X140454000Y-139969000D02*
X140454000Y-142724000D01*
X140454000Y-144804000D02*
X140454000Y-147559000D01*
X140494000Y-139974000D02*
X140494000Y-142724000D01*
X140494000Y-144804000D02*
X140494000Y-147554000D01*
X140534000Y-139980000D02*
X140534000Y-142724000D01*
X140534000Y-144804000D02*
X140534000Y-147548000D01*
X140574000Y-139987000D02*
X140574000Y-142724000D01*
X140574000Y-144804000D02*
X140574000Y-147541000D01*
X140614000Y-139994000D02*
X140614000Y-142724000D01*
X140614000Y-144804000D02*
X140614000Y-147534000D01*
X140655000Y-140001000D02*
X140655000Y-142724000D01*
X140655000Y-144804000D02*
X140655000Y-147527000D01*
X140695000Y-140009000D02*
X140695000Y-142724000D01*
X140695000Y-144804000D02*
X140695000Y-147519000D01*
X140735000Y-140017000D02*
X140735000Y-142724000D01*
X140735000Y-144804000D02*
X140735000Y-147511000D01*
X140775000Y-140026000D02*
X140775000Y-142724000D01*
X140775000Y-144804000D02*
X140775000Y-147502000D01*
X140815000Y-140035000D02*
X140815000Y-142724000D01*
X140815000Y-144804000D02*
X140815000Y-147493000D01*
X140855000Y-140044000D02*
X140855000Y-142724000D01*
X140855000Y-144804000D02*
X140855000Y-147484000D01*
X140895000Y-140054000D02*
X140895000Y-142724000D01*
X140895000Y-144804000D02*
X140895000Y-147474000D01*
X140935000Y-140065000D02*
X140935000Y-142724000D01*
X140935000Y-144804000D02*
X140935000Y-147463000D01*
X140975000Y-140076000D02*
X140975000Y-142724000D01*
X140975000Y-144804000D02*
X140975000Y-147452000D01*
X141015000Y-140087000D02*
X141015000Y-142724000D01*
X141015000Y-144804000D02*
X141015000Y-147441000D01*
X141055000Y-140099000D02*
X141055000Y-142724000D01*
X141055000Y-144804000D02*
X141055000Y-147429000D01*
X141095000Y-140111000D02*
X141095000Y-142724000D01*
X141095000Y-144804000D02*
X141095000Y-147417000D01*
X141135000Y-140124000D02*
X141135000Y-142724000D01*
X141135000Y-144804000D02*
X141135000Y-147404000D01*
X141175000Y-140138000D02*
X141175000Y-142724000D01*
X141175000Y-144804000D02*
X141175000Y-147390000D01*
X141215000Y-140151000D02*
X141215000Y-142724000D01*
X141215000Y-144804000D02*
X141215000Y-147377000D01*
X141255000Y-140166000D02*
X141255000Y-142724000D01*
X141255000Y-144804000D02*
X141255000Y-147362000D01*
X141295000Y-140180000D02*
X141295000Y-142724000D01*
X141295000Y-144804000D02*
X141295000Y-147348000D01*
X141335000Y-140196000D02*
X141335000Y-142724000D01*
X141335000Y-144804000D02*
X141335000Y-147332000D01*
X141375000Y-140211000D02*
X141375000Y-142724000D01*
X141375000Y-144804000D02*
X141375000Y-147317000D01*
X141415000Y-140228000D02*
X141415000Y-142724000D01*
X141415000Y-144804000D02*
X141415000Y-147300000D01*
X141455000Y-140244000D02*
X141455000Y-142724000D01*
X141455000Y-144804000D02*
X141455000Y-147284000D01*
X141495000Y-140262000D02*
X141495000Y-142724000D01*
X141495000Y-144804000D02*
X141495000Y-147266000D01*
X141535000Y-140280000D02*
X141535000Y-142724000D01*
X141535000Y-144804000D02*
X141535000Y-147248000D01*
X141575000Y-140298000D02*
X141575000Y-142724000D01*
X141575000Y-144804000D02*
X141575000Y-147230000D01*
X141615000Y-140317000D02*
X141615000Y-142724000D01*
X141615000Y-144804000D02*
X141615000Y-147211000D01*
X141655000Y-140337000D02*
X141655000Y-142724000D01*
X141655000Y-144804000D02*
X141655000Y-147191000D01*
X141695000Y-140357000D02*
X141695000Y-142724000D01*
X141695000Y-144804000D02*
X141695000Y-147171000D01*
X141735000Y-140378000D02*
X141735000Y-142724000D01*
X141735000Y-144804000D02*
X141735000Y-147150000D01*
X141775000Y-140399000D02*
X141775000Y-142724000D01*
X141775000Y-144804000D02*
X141775000Y-147129000D01*
X141815000Y-140421000D02*
X141815000Y-142724000D01*
X141815000Y-144804000D02*
X141815000Y-147107000D01*
X141855000Y-140443000D02*
X141855000Y-142724000D01*
X141855000Y-144804000D02*
X141855000Y-147085000D01*
X141895000Y-140467000D02*
X141895000Y-142724000D01*
X141895000Y-144804000D02*
X141895000Y-147061000D01*
X141935000Y-140490000D02*
X141935000Y-142724000D01*
X141935000Y-144804000D02*
X141935000Y-147038000D01*
X141975000Y-140515000D02*
X141975000Y-142724000D01*
X141975000Y-144804000D02*
X141975000Y-147013000D01*
X142015000Y-140540000D02*
X142015000Y-142724000D01*
X142015000Y-144804000D02*
X142015000Y-146988000D01*
X142055000Y-140566000D02*
X142055000Y-142724000D01*
X142055000Y-144804000D02*
X142055000Y-146962000D01*
X142095000Y-140592000D02*
X142095000Y-142724000D01*
X142095000Y-144804000D02*
X142095000Y-146936000D01*
X142135000Y-140620000D02*
X142135000Y-142724000D01*
X142135000Y-144804000D02*
X142135000Y-146908000D01*
X142175000Y-140648000D02*
X142175000Y-142724000D01*
X142175000Y-144804000D02*
X142175000Y-146880000D01*
X142215000Y-140676000D02*
X142215000Y-142724000D01*
X142215000Y-144804000D02*
X142215000Y-146852000D01*
X142255000Y-140706000D02*
X142255000Y-146822000D01*
X142295000Y-140736000D02*
X142295000Y-146792000D01*
X142335000Y-140768000D02*
X142335000Y-146760000D01*
X142375000Y-140800000D02*
X142375000Y-146728000D01*
X142415000Y-140833000D02*
X142415000Y-146695000D01*
X142455000Y-140866000D02*
X142455000Y-146662000D01*
X142495000Y-140901000D02*
X142495000Y-146627000D01*
X142535000Y-140937000D02*
X142535000Y-146591000D01*
X142575000Y-140974000D02*
X142575000Y-146554000D01*
X142615000Y-141012000D02*
X142615000Y-146516000D01*
X142655000Y-141051000D02*
X142655000Y-146477000D01*
X142695000Y-141091000D02*
X142695000Y-146437000D01*
X142735000Y-141132000D02*
X142735000Y-146396000D01*
X142775000Y-141175000D02*
X142775000Y-146353000D01*
X142815000Y-141218000D02*
X142815000Y-146310000D01*
X142855000Y-141264000D02*
X142855000Y-146264000D01*
X142895000Y-141310000D02*
X142895000Y-146218000D01*
X142935000Y-141359000D02*
X142935000Y-146169000D01*
X142975000Y-141409000D02*
X142975000Y-146119000D01*
X143015000Y-141460000D02*
X143015000Y-146068000D01*
X143055000Y-141514000D02*
X143055000Y-146014000D01*
X143095000Y-141569000D02*
X143095000Y-145959000D01*
X143135000Y-141627000D02*
X143135000Y-145901000D01*
X143175000Y-141687000D02*
X143175000Y-145841000D01*
X143215000Y-141750000D02*
X143215000Y-145778000D01*
X143255000Y-141815000D02*
X143255000Y-145713000D01*
X143295000Y-141883000D02*
X143295000Y-145645000D01*
X143335000Y-141955000D02*
X143335000Y-145573000D01*
X143375000Y-142031000D02*
X143375000Y-145497000D01*
X143415000Y-142110000D02*
X143415000Y-145418000D01*
X143455000Y-142195000D02*
X143455000Y-145333000D01*
X143495000Y-142286000D02*
X143495000Y-145242000D01*
X143535000Y-142383000D02*
X143535000Y-145145000D01*
X143575000Y-142489000D02*
X143575000Y-145039000D01*
X143615000Y-142606000D02*
X143615000Y-144922000D01*
X143655000Y-142736000D02*
X143655000Y-144792000D01*
X143695000Y-142887000D02*
X143695000Y-144641000D01*
X143735000Y-143071000D02*
X143735000Y-144457000D01*
X143775000Y-143323000D02*
X143775000Y-144205000D01*
X135791789Y-141589000D02*
X136541789Y-141589000D01*
X136166789Y-141214000D02*
X136166789Y-141964000D01*
%TO.C,J7*%
X124774000Y-112014000D02*
X122114000Y-112014000D01*
X124774000Y-112014000D02*
X124774000Y-109414000D01*
X124774000Y-109414000D02*
X122114000Y-109414000D01*
X122114000Y-112014000D02*
X122114000Y-109414000D01*
X122114000Y-114614000D02*
X122114000Y-113284000D01*
X123444000Y-114614000D02*
X122114000Y-114614000D01*
%TO.C,D3*%
X107096000Y-90050000D02*
X108296000Y-90050000D01*
X107096000Y-88200000D02*
X107096000Y-90050000D01*
X108296000Y-88200000D02*
X108296000Y-90050000D01*
%TO.C,D2*%
X111702000Y-88484000D02*
X111702000Y-87284000D01*
X109852000Y-88484000D02*
X111702000Y-88484000D01*
X109852000Y-87284000D02*
X111702000Y-87284000D01*
%TO.C,TP7*%
X121220000Y-107888000D02*
X121220000Y-106488000D01*
X122620000Y-107888000D02*
X121220000Y-107888000D01*
X122620000Y-106488000D02*
X122620000Y-107888000D01*
X121220000Y-106488000D02*
X122620000Y-106488000D01*
%TO.C,TP6*%
X94804000Y-88076000D02*
X94804000Y-86676000D01*
X96204000Y-88076000D02*
X94804000Y-88076000D01*
X96204000Y-86676000D02*
X96204000Y-88076000D01*
X94804000Y-86676000D02*
X96204000Y-86676000D01*
%TO.C,TP5*%
X109028000Y-90616000D02*
X109028000Y-89216000D01*
X110428000Y-90616000D02*
X109028000Y-90616000D01*
X110428000Y-89216000D02*
X110428000Y-90616000D01*
X109028000Y-89216000D02*
X110428000Y-89216000D01*
%TO.C,TP4*%
X117664000Y-116524000D02*
X117664000Y-115124000D01*
X119064000Y-116524000D02*
X117664000Y-116524000D01*
X119064000Y-115124000D02*
X119064000Y-116524000D01*
X117664000Y-115124000D02*
X119064000Y-115124000D01*
%TO.C,TP3*%
X105980000Y-86552000D02*
X105980000Y-85152000D01*
X107380000Y-86552000D02*
X105980000Y-86552000D01*
X107380000Y-85152000D02*
X107380000Y-86552000D01*
X105980000Y-85152000D02*
X107380000Y-85152000D01*
%TO.C,TP2*%
X116648000Y-134304000D02*
X116648000Y-132904000D01*
X118048000Y-134304000D02*
X116648000Y-134304000D01*
X118048000Y-132904000D02*
X118048000Y-134304000D01*
X116648000Y-132904000D02*
X118048000Y-132904000D01*
%TO.C,TP1*%
X146112000Y-139892000D02*
X146112000Y-138492000D01*
X147512000Y-139892000D02*
X146112000Y-139892000D01*
X147512000Y-138492000D02*
X147512000Y-139892000D01*
X146112000Y-138492000D02*
X147512000Y-138492000D01*
%TO.C,Q2*%
X127486000Y-108022000D02*
X131086000Y-108022000D01*
X131124478Y-108010478D02*
G75*
G03*
X129286000Y-103572000I-1838478J1838478D01*
G01*
X127447522Y-108010478D02*
G75*
G02*
X129286000Y-103572000I1838478J1838478D01*
G01*
%TO.C,R23*%
X125878000Y-103789564D02*
X125878000Y-102335436D01*
X124058000Y-103789564D02*
X124058000Y-102335436D01*
%TO.C,R12*%
X122830000Y-103789564D02*
X122830000Y-102335436D01*
X121010000Y-103789564D02*
X121010000Y-102335436D01*
%TO.C,J6*%
X99762000Y-147634000D02*
X99762000Y-146304000D01*
X101092000Y-147634000D02*
X99762000Y-147634000D01*
X102362000Y-147634000D02*
X102362000Y-144974000D01*
X102362000Y-144974000D02*
X104962000Y-144974000D01*
X102362000Y-147634000D02*
X104962000Y-147634000D01*
X104962000Y-147634000D02*
X104962000Y-144974000D01*
%TO.C,C3*%
X149047252Y-135657000D02*
X147624748Y-135657000D01*
X149047252Y-133837000D02*
X147624748Y-133837000D01*
%TO.C,J4*%
X68751000Y-118626000D02*
X69171000Y-118626000D01*
X68751000Y-91786000D02*
X68751000Y-118626000D01*
X69171000Y-91786000D02*
X68751000Y-91786000D01*
X90671000Y-91786000D02*
X72771000Y-91786000D01*
X86071000Y-118626000D02*
X72771000Y-118626000D01*
X88371000Y-116326000D02*
X86071000Y-118626000D01*
X90671000Y-116326000D02*
X88371000Y-116326000D01*
X93991000Y-97956000D02*
X93991000Y-98656000D01*
X93991000Y-100356000D02*
X93991000Y-101156000D01*
X93991000Y-102856000D02*
X93991000Y-103656000D01*
X93991000Y-115356000D02*
X93991000Y-115556000D01*
X93991000Y-105356000D02*
X93991000Y-106156000D01*
X93991000Y-107956000D02*
X93991000Y-108656000D01*
X93991000Y-110356000D02*
X93991000Y-111156000D01*
X93991000Y-112856000D02*
X93991000Y-113656000D01*
%TO.C,C5*%
X120140252Y-84222000D02*
X118717748Y-84222000D01*
X120140252Y-82402000D02*
X118717748Y-82402000D01*
%TO.C,REF\u002A\u002A*%
X148652000Y-111060000D02*
X150052000Y-111060000D01*
X150052000Y-111060000D02*
X150052000Y-112460000D01*
X150052000Y-112460000D02*
X148652000Y-112460000D01*
X148652000Y-112460000D02*
X148652000Y-111060000D01*
%TO.C,U3*%
X106366000Y-117154000D02*
X109026000Y-117154000D01*
X106366000Y-99314000D02*
X106366000Y-117154000D01*
X109026000Y-99314000D02*
X109026000Y-117154000D01*
X106366000Y-99314000D02*
X109026000Y-99314000D01*
X106366000Y-98044000D02*
X106366000Y-96714000D01*
X106366000Y-96714000D02*
X107696000Y-96714000D01*
%TO.C,D1*%
X138808000Y-102998000D02*
X138808000Y-106298000D01*
X138808000Y-106298000D02*
X144208000Y-106298000D01*
X138808000Y-102998000D02*
X144208000Y-102998000D01*
%TO.C,J2*%
X129673000Y-109177000D02*
X138393000Y-109177000D01*
X138393000Y-109177000D02*
X138393000Y-114597000D01*
X129673000Y-114597000D02*
X138393000Y-114597000D01*
X127973000Y-110477000D02*
X129673000Y-109177000D01*
X127973000Y-113297000D02*
X129673000Y-114597000D01*
X127973000Y-110477000D02*
X127973000Y-113297000D01*
%TO.C,Y1*%
X116172000Y-88668000D02*
X121922000Y-88668000D01*
X121922000Y-88668000D02*
X121922000Y-85068000D01*
X121922000Y-85068000D02*
X116172000Y-85068000D01*
%TO.C,U5*%
X114788000Y-106680000D02*
X114788000Y-108630000D01*
X114788000Y-106680000D02*
X114788000Y-104730000D01*
X119908000Y-106680000D02*
X119908000Y-108630000D01*
X119908000Y-106680000D02*
X119908000Y-103230000D01*
%TO.C,U4*%
X153778000Y-120924000D02*
X152518000Y-120924000D01*
X146958000Y-120924000D02*
X148218000Y-120924000D01*
X153778000Y-124684000D02*
X153778000Y-120924000D01*
X146958000Y-126934000D02*
X146958000Y-120924000D01*
%TO.C,U2*%
X113639500Y-97898000D02*
X113639500Y-98348000D01*
X113639500Y-98348000D02*
X114089500Y-98348000D01*
X113639500Y-91578000D02*
X113639500Y-91128000D01*
X113639500Y-91128000D02*
X114089500Y-91128000D01*
X120859500Y-97898000D02*
X120859500Y-98348000D01*
X120859500Y-98348000D02*
X120409500Y-98348000D01*
X120859500Y-91578000D02*
X120859500Y-91128000D01*
X120859500Y-91128000D02*
X120409500Y-91128000D01*
X120409500Y-91128000D02*
X120409500Y-89838000D01*
%TO.C,U1*%
X123001000Y-144927000D02*
X124951000Y-144927000D01*
X123001000Y-144927000D02*
X121051000Y-144927000D01*
X123001000Y-139807000D02*
X124951000Y-139807000D01*
X123001000Y-139807000D02*
X119551000Y-139807000D01*
%TO.C,SW1*%
X142636000Y-93940000D02*
X143636000Y-93940000D01*
X143136000Y-93440000D02*
X143136000Y-94440000D01*
X149236000Y-97440000D02*
X149236000Y-99840000D01*
X149236000Y-92640000D02*
X149236000Y-95240000D01*
X149236000Y-88040000D02*
X149236000Y-90440000D01*
X135936000Y-89840000D02*
X135636000Y-90140000D01*
X135336000Y-89840000D02*
X135936000Y-89840000D01*
X135636000Y-90140000D02*
X135336000Y-89840000D01*
X137036000Y-88040000D02*
X137036000Y-99840000D01*
X141136000Y-88040000D02*
X137036000Y-88040000D01*
X141136000Y-99840000D02*
X137036000Y-99840000D01*
X149236000Y-99840000D02*
X145136000Y-99840000D01*
X145136000Y-88040000D02*
X149236000Y-88040000D01*
X146136000Y-93940000D02*
G75*
G03*
X146136000Y-93940000I-3000000J0D01*
G01*
%TO.C,R22*%
X151786000Y-102843436D02*
X151786000Y-104297564D01*
X149966000Y-102843436D02*
X149966000Y-104297564D01*
%TO.C,R21*%
X147426000Y-104297564D02*
X147426000Y-102843436D01*
X149246000Y-104297564D02*
X149246000Y-102843436D01*
%TO.C,R20*%
X126090000Y-92228564D02*
X126090000Y-90774436D01*
X127910000Y-92228564D02*
X127910000Y-90774436D01*
%TO.C,R19*%
X127910000Y-96870436D02*
X127910000Y-98324564D01*
X126090000Y-96870436D02*
X126090000Y-98324564D01*
%TO.C,R18*%
X101880564Y-95398000D02*
X100426436Y-95398000D01*
X101880564Y-93578000D02*
X100426436Y-93578000D01*
%TO.C,R17*%
X101880564Y-91334000D02*
X100426436Y-91334000D01*
X101880564Y-89514000D02*
X100426436Y-89514000D01*
%TO.C,R16*%
X101880564Y-104034000D02*
X100426436Y-104034000D01*
X101880564Y-102214000D02*
X100426436Y-102214000D01*
%TO.C,R15*%
X101880564Y-108606000D02*
X100426436Y-108606000D01*
X101880564Y-106786000D02*
X100426436Y-106786000D01*
%TO.C,R14*%
X147468000Y-113257436D02*
X147468000Y-114711564D01*
X145648000Y-113257436D02*
X145648000Y-114711564D01*
%TO.C,R13*%
X141193436Y-111612000D02*
X142647564Y-111612000D01*
X141193436Y-113432000D02*
X142647564Y-113432000D01*
%TO.C,R11*%
X101880564Y-88286000D02*
X100426436Y-88286000D01*
X101880564Y-86466000D02*
X100426436Y-86466000D01*
%TO.C,R10*%
X121700936Y-145902000D02*
X123155064Y-145902000D01*
X121700936Y-147722000D02*
X123155064Y-147722000D01*
%TO.C,R9*%
X116620936Y-145902000D02*
X118075064Y-145902000D01*
X116620936Y-147722000D02*
X118075064Y-147722000D01*
%TO.C,R7*%
X116174436Y-137774000D02*
X117628564Y-137774000D01*
X116174436Y-139594000D02*
X117628564Y-139594000D01*
%TO.C,R6*%
X114914000Y-143536564D02*
X114914000Y-142082436D01*
X116734000Y-143536564D02*
X116734000Y-142082436D01*
%TO.C,R5*%
X128878436Y-145267000D02*
X130332564Y-145267000D01*
X128878436Y-147087000D02*
X130332564Y-147087000D01*
%TO.C,R4*%
X128630000Y-142266564D02*
X128630000Y-140812436D01*
X130450000Y-142266564D02*
X130450000Y-140812436D01*
%TO.C,R3*%
X142414000Y-123360000D02*
X142414000Y-126540000D01*
X142414000Y-126540000D02*
X117174000Y-126540000D01*
X117174000Y-126540000D02*
X117174000Y-123360000D01*
X142414000Y-120480000D02*
X142414000Y-117300000D01*
X142414000Y-117300000D02*
X117174000Y-117300000D01*
X117174000Y-117300000D02*
X117174000Y-120480000D01*
%TO.C,R2*%
X134400936Y-136377000D02*
X135855064Y-136377000D01*
X134400936Y-138197000D02*
X135855064Y-138197000D01*
%TO.C,R1*%
X128685936Y-136377000D02*
X130140064Y-136377000D01*
X128685936Y-138197000D02*
X130140064Y-138197000D01*
%TO.C,Q1*%
X127428000Y-129121000D02*
X143568000Y-129121000D01*
X127428000Y-134392000D02*
X143568000Y-134392000D01*
X127428000Y-129121000D02*
X127428000Y-134392000D01*
X143568000Y-129121000D02*
X143568000Y-134392000D01*
X133694000Y-129121000D02*
X133694000Y-134392000D01*
X137303000Y-129121000D02*
X137303000Y-134392000D01*
%TO.C,J5*%
X125162000Y-82998000D02*
X125162000Y-85658000D01*
X132842000Y-82998000D02*
X125162000Y-82998000D01*
X132842000Y-85658000D02*
X125162000Y-85658000D01*
X132842000Y-82998000D02*
X132842000Y-85658000D01*
X134112000Y-82998000D02*
X135442000Y-82998000D01*
X135442000Y-82998000D02*
X135442000Y-84328000D01*
%TO.C,J3*%
X103946000Y-109922000D02*
X101286000Y-109922000D01*
X103946000Y-115062000D02*
X103946000Y-109922000D01*
X101286000Y-115062000D02*
X101286000Y-109922000D01*
X103946000Y-115062000D02*
X101286000Y-115062000D01*
X103946000Y-116332000D02*
X103946000Y-117662000D01*
X103946000Y-117662000D02*
X102616000Y-117662000D01*
%TO.C,J1*%
X150682000Y-131886000D02*
X150682000Y-129226000D01*
X148082000Y-131886000D02*
X150682000Y-131886000D01*
X148082000Y-129226000D02*
X150682000Y-129226000D01*
X148082000Y-131886000D02*
X148082000Y-129226000D01*
X146812000Y-131886000D02*
X145482000Y-131886000D01*
X145482000Y-131886000D02*
X145482000Y-130556000D01*
%TO.C,C16*%
X100429748Y-83418000D02*
X101852252Y-83418000D01*
X100429748Y-85238000D02*
X101852252Y-85238000D01*
%TO.C,C15*%
X119026252Y-114194000D02*
X117603748Y-114194000D01*
X119026252Y-112374000D02*
X117603748Y-112374000D01*
%TO.C,C14*%
X140971748Y-107802000D02*
X142394252Y-107802000D01*
X140971748Y-109622000D02*
X142394252Y-109622000D01*
%TO.C,C13*%
X129138000Y-98247252D02*
X129138000Y-96824748D01*
X130958000Y-98247252D02*
X130958000Y-96824748D01*
%TO.C,C12*%
X145491252Y-86254000D02*
X144068748Y-86254000D01*
X145491252Y-84434000D02*
X144068748Y-84434000D01*
%TO.C,C11*%
X112113748Y-112374000D02*
X113536252Y-112374000D01*
X112113748Y-114194000D02*
X113536252Y-114194000D01*
%TO.C,C10*%
X130958000Y-90777748D02*
X130958000Y-92200252D01*
X129138000Y-90777748D02*
X129138000Y-92200252D01*
%TO.C,C9*%
X100351000Y-98270748D02*
X100351000Y-99693252D01*
X98531000Y-98270748D02*
X98531000Y-99693252D01*
%TO.C,C8*%
X104034000Y-98299748D02*
X104034000Y-99722252D01*
X102214000Y-98299748D02*
X102214000Y-99722252D01*
%TO.C,C7*%
X147116748Y-107802000D02*
X148539252Y-107802000D01*
X147116748Y-109622000D02*
X148539252Y-109622000D01*
%TO.C,C6*%
X113536252Y-85238000D02*
X112113748Y-85238000D01*
X113536252Y-83418000D02*
X112113748Y-83418000D01*
%TO.C,C4*%
X149966000Y-116203252D02*
X149966000Y-114780748D01*
X151786000Y-116203252D02*
X151786000Y-114780748D01*
%TO.C,C2*%
X121208748Y-135234000D02*
X122631252Y-135234000D01*
X121208748Y-137054000D02*
X122631252Y-137054000D01*
%TO.C,C1*%
X133498000Y-140815748D02*
X133498000Y-142238252D01*
X131678000Y-140815748D02*
X131678000Y-142238252D01*
%TO.C,PS1*%
D10*
X74604714Y-144978380D02*
X74604714Y-143978380D01*
X74985666Y-143978380D01*
X75080904Y-144026000D01*
X75128523Y-144073619D01*
X75176142Y-144168857D01*
X75176142Y-144311714D01*
X75128523Y-144406952D01*
X75080904Y-144454571D01*
X74985666Y-144502190D01*
X74604714Y-144502190D01*
X75557095Y-144930761D02*
X75699952Y-144978380D01*
X75938047Y-144978380D01*
X76033285Y-144930761D01*
X76080904Y-144883142D01*
X76128523Y-144787904D01*
X76128523Y-144692666D01*
X76080904Y-144597428D01*
X76033285Y-144549809D01*
X75938047Y-144502190D01*
X75747571Y-144454571D01*
X75652333Y-144406952D01*
X75604714Y-144359333D01*
X75557095Y-144264095D01*
X75557095Y-144168857D01*
X75604714Y-144073619D01*
X75652333Y-144026000D01*
X75747571Y-143978380D01*
X75985666Y-143978380D01*
X76128523Y-144026000D01*
X77080904Y-144978380D02*
X76509476Y-144978380D01*
X76795190Y-144978380D02*
X76795190Y-143978380D01*
X76699952Y-144121238D01*
X76604714Y-144216476D01*
X76509476Y-144264095D01*
%TO.C,R8*%
X115149333Y-134564380D02*
X114816000Y-134088190D01*
X114577904Y-134564380D02*
X114577904Y-133564380D01*
X114958857Y-133564380D01*
X115054095Y-133612000D01*
X115101714Y-133659619D01*
X115149333Y-133754857D01*
X115149333Y-133897714D01*
X115101714Y-133992952D01*
X115054095Y-134040571D01*
X114958857Y-134088190D01*
X114577904Y-134088190D01*
X115720761Y-133992952D02*
X115625523Y-133945333D01*
X115577904Y-133897714D01*
X115530285Y-133802476D01*
X115530285Y-133754857D01*
X115577904Y-133659619D01*
X115625523Y-133612000D01*
X115720761Y-133564380D01*
X115911238Y-133564380D01*
X116006476Y-133612000D01*
X116054095Y-133659619D01*
X116101714Y-133754857D01*
X116101714Y-133802476D01*
X116054095Y-133897714D01*
X116006476Y-133945333D01*
X115911238Y-133992952D01*
X115720761Y-133992952D01*
X115625523Y-134040571D01*
X115577904Y-134088190D01*
X115530285Y-134183428D01*
X115530285Y-134373904D01*
X115577904Y-134469142D01*
X115625523Y-134516761D01*
X115720761Y-134564380D01*
X115911238Y-134564380D01*
X116006476Y-134516761D01*
X116054095Y-134469142D01*
X116101714Y-134373904D01*
X116101714Y-134183428D01*
X116054095Y-134088190D01*
X116006476Y-134040571D01*
X115911238Y-133992952D01*
%TO.C,C17*%
X139291142Y-139121142D02*
X139243523Y-139168761D01*
X139100666Y-139216380D01*
X139005428Y-139216380D01*
X138862571Y-139168761D01*
X138767333Y-139073523D01*
X138719714Y-138978285D01*
X138672095Y-138787809D01*
X138672095Y-138644952D01*
X138719714Y-138454476D01*
X138767333Y-138359238D01*
X138862571Y-138264000D01*
X139005428Y-138216380D01*
X139100666Y-138216380D01*
X139243523Y-138264000D01*
X139291142Y-138311619D01*
X140243523Y-139216380D02*
X139672095Y-139216380D01*
X139957809Y-139216380D02*
X139957809Y-138216380D01*
X139862571Y-138359238D01*
X139767333Y-138454476D01*
X139672095Y-138502095D01*
X140576857Y-138216380D02*
X141243523Y-138216380D01*
X140814952Y-139216380D01*
%TO.C,J7*%
X123110666Y-115506380D02*
X123110666Y-116220666D01*
X123063047Y-116363523D01*
X122967809Y-116458761D01*
X122824952Y-116506380D01*
X122729714Y-116506380D01*
X123491619Y-115506380D02*
X124158285Y-115506380D01*
X123729714Y-116506380D01*
%TO.C,D3*%
X106848380Y-89638095D02*
X105848380Y-89638095D01*
X105848380Y-89400000D01*
X105896000Y-89257142D01*
X105991238Y-89161904D01*
X106086476Y-89114285D01*
X106276952Y-89066666D01*
X106419809Y-89066666D01*
X106610285Y-89114285D01*
X106705523Y-89161904D01*
X106800761Y-89257142D01*
X106848380Y-89400000D01*
X106848380Y-89638095D01*
X105848380Y-88733333D02*
X105848380Y-88114285D01*
X106229333Y-88447619D01*
X106229333Y-88304761D01*
X106276952Y-88209523D01*
X106324571Y-88161904D01*
X106419809Y-88114285D01*
X106657904Y-88114285D01*
X106753142Y-88161904D01*
X106800761Y-88209523D01*
X106848380Y-88304761D01*
X106848380Y-88590476D01*
X106800761Y-88685714D01*
X106753142Y-88733333D01*
%TO.C,D2*%
X107973904Y-87320380D02*
X107973904Y-86320380D01*
X108212000Y-86320380D01*
X108354857Y-86368000D01*
X108450095Y-86463238D01*
X108497714Y-86558476D01*
X108545333Y-86748952D01*
X108545333Y-86891809D01*
X108497714Y-87082285D01*
X108450095Y-87177523D01*
X108354857Y-87272761D01*
X108212000Y-87320380D01*
X107973904Y-87320380D01*
X108926285Y-86415619D02*
X108973904Y-86368000D01*
X109069142Y-86320380D01*
X109307238Y-86320380D01*
X109402476Y-86368000D01*
X109450095Y-86415619D01*
X109497714Y-86510857D01*
X109497714Y-86606095D01*
X109450095Y-86748952D01*
X108878666Y-87320380D01*
X109497714Y-87320380D01*
%TO.C,TP7*%
X122690095Y-106640380D02*
X123261523Y-106640380D01*
X122975809Y-107640380D02*
X122975809Y-106640380D01*
X123594857Y-107640380D02*
X123594857Y-106640380D01*
X123975809Y-106640380D01*
X124071047Y-106688000D01*
X124118666Y-106735619D01*
X124166285Y-106830857D01*
X124166285Y-106973714D01*
X124118666Y-107068952D01*
X124071047Y-107116571D01*
X123975809Y-107164190D01*
X123594857Y-107164190D01*
X124499619Y-106640380D02*
X125166285Y-106640380D01*
X124737714Y-107640380D01*
%TO.C,TP6*%
X94242095Y-85380380D02*
X94813523Y-85380380D01*
X94527809Y-86380380D02*
X94527809Y-85380380D01*
X95146857Y-86380380D02*
X95146857Y-85380380D01*
X95527809Y-85380380D01*
X95623047Y-85428000D01*
X95670666Y-85475619D01*
X95718285Y-85570857D01*
X95718285Y-85713714D01*
X95670666Y-85808952D01*
X95623047Y-85856571D01*
X95527809Y-85904190D01*
X95146857Y-85904190D01*
X96575428Y-85380380D02*
X96384952Y-85380380D01*
X96289714Y-85428000D01*
X96242095Y-85475619D01*
X96146857Y-85618476D01*
X96099238Y-85808952D01*
X96099238Y-86189904D01*
X96146857Y-86285142D01*
X96194476Y-86332761D01*
X96289714Y-86380380D01*
X96480190Y-86380380D01*
X96575428Y-86332761D01*
X96623047Y-86285142D01*
X96670666Y-86189904D01*
X96670666Y-85951809D01*
X96623047Y-85856571D01*
X96575428Y-85808952D01*
X96480190Y-85761333D01*
X96289714Y-85761333D01*
X96194476Y-85808952D01*
X96146857Y-85856571D01*
X96099238Y-85951809D01*
%TO.C,TP5*%
X108466095Y-90892380D02*
X109037523Y-90892380D01*
X108751809Y-91892380D02*
X108751809Y-90892380D01*
X109370857Y-91892380D02*
X109370857Y-90892380D01*
X109751809Y-90892380D01*
X109847047Y-90940000D01*
X109894666Y-90987619D01*
X109942285Y-91082857D01*
X109942285Y-91225714D01*
X109894666Y-91320952D01*
X109847047Y-91368571D01*
X109751809Y-91416190D01*
X109370857Y-91416190D01*
X110847047Y-90892380D02*
X110370857Y-90892380D01*
X110323238Y-91368571D01*
X110370857Y-91320952D01*
X110466095Y-91273333D01*
X110704190Y-91273333D01*
X110799428Y-91320952D01*
X110847047Y-91368571D01*
X110894666Y-91463809D01*
X110894666Y-91701904D01*
X110847047Y-91797142D01*
X110799428Y-91844761D01*
X110704190Y-91892380D01*
X110466095Y-91892380D01*
X110370857Y-91844761D01*
X110323238Y-91797142D01*
%TO.C,TP4*%
X114562095Y-115276380D02*
X115133523Y-115276380D01*
X114847809Y-116276380D02*
X114847809Y-115276380D01*
X115466857Y-116276380D02*
X115466857Y-115276380D01*
X115847809Y-115276380D01*
X115943047Y-115324000D01*
X115990666Y-115371619D01*
X116038285Y-115466857D01*
X116038285Y-115609714D01*
X115990666Y-115704952D01*
X115943047Y-115752571D01*
X115847809Y-115800190D01*
X115466857Y-115800190D01*
X116895428Y-115609714D02*
X116895428Y-116276380D01*
X116657333Y-115228761D02*
X116419238Y-115943047D01*
X117038285Y-115943047D01*
%TO.C,TP3*%
X105418095Y-83856380D02*
X105989523Y-83856380D01*
X105703809Y-84856380D02*
X105703809Y-83856380D01*
X106322857Y-84856380D02*
X106322857Y-83856380D01*
X106703809Y-83856380D01*
X106799047Y-83904000D01*
X106846666Y-83951619D01*
X106894285Y-84046857D01*
X106894285Y-84189714D01*
X106846666Y-84284952D01*
X106799047Y-84332571D01*
X106703809Y-84380190D01*
X106322857Y-84380190D01*
X107227619Y-83856380D02*
X107846666Y-83856380D01*
X107513333Y-84237333D01*
X107656190Y-84237333D01*
X107751428Y-84284952D01*
X107799047Y-84332571D01*
X107846666Y-84427809D01*
X107846666Y-84665904D01*
X107799047Y-84761142D01*
X107751428Y-84808761D01*
X107656190Y-84856380D01*
X107370476Y-84856380D01*
X107275238Y-84808761D01*
X107227619Y-84761142D01*
%TO.C,TP2*%
X116086095Y-131608380D02*
X116657523Y-131608380D01*
X116371809Y-132608380D02*
X116371809Y-131608380D01*
X116990857Y-132608380D02*
X116990857Y-131608380D01*
X117371809Y-131608380D01*
X117467047Y-131656000D01*
X117514666Y-131703619D01*
X117562285Y-131798857D01*
X117562285Y-131941714D01*
X117514666Y-132036952D01*
X117467047Y-132084571D01*
X117371809Y-132132190D01*
X116990857Y-132132190D01*
X117943238Y-131703619D02*
X117990857Y-131656000D01*
X118086095Y-131608380D01*
X118324190Y-131608380D01*
X118419428Y-131656000D01*
X118467047Y-131703619D01*
X118514666Y-131798857D01*
X118514666Y-131894095D01*
X118467047Y-132036952D01*
X117895619Y-132608380D01*
X118514666Y-132608380D01*
%TO.C,TP1*%
X145550095Y-137196380D02*
X146121523Y-137196380D01*
X145835809Y-138196380D02*
X145835809Y-137196380D01*
X146454857Y-138196380D02*
X146454857Y-137196380D01*
X146835809Y-137196380D01*
X146931047Y-137244000D01*
X146978666Y-137291619D01*
X147026285Y-137386857D01*
X147026285Y-137529714D01*
X146978666Y-137624952D01*
X146931047Y-137672571D01*
X146835809Y-137720190D01*
X146454857Y-137720190D01*
X147978666Y-138196380D02*
X147407238Y-138196380D01*
X147692952Y-138196380D02*
X147692952Y-137196380D01*
X147597714Y-137339238D01*
X147502476Y-137434476D01*
X147407238Y-137482095D01*
%TO.C,Q2*%
X129190761Y-103159619D02*
X129095523Y-103112000D01*
X129000285Y-103016761D01*
X128857428Y-102873904D01*
X128762190Y-102826285D01*
X128666952Y-102826285D01*
X128714571Y-103064380D02*
X128619333Y-103016761D01*
X128524095Y-102921523D01*
X128476476Y-102731047D01*
X128476476Y-102397714D01*
X128524095Y-102207238D01*
X128619333Y-102112000D01*
X128714571Y-102064380D01*
X128905047Y-102064380D01*
X129000285Y-102112000D01*
X129095523Y-102207238D01*
X129143142Y-102397714D01*
X129143142Y-102731047D01*
X129095523Y-102921523D01*
X129000285Y-103016761D01*
X128905047Y-103064380D01*
X128714571Y-103064380D01*
X129524095Y-102159619D02*
X129571714Y-102112000D01*
X129666952Y-102064380D01*
X129905047Y-102064380D01*
X130000285Y-102112000D01*
X130047904Y-102159619D01*
X130095523Y-102254857D01*
X130095523Y-102350095D01*
X130047904Y-102492952D01*
X129476476Y-103064380D01*
X130095523Y-103064380D01*
%TO.C,R23*%
X127452380Y-103705357D02*
X126976190Y-104038690D01*
X127452380Y-104276785D02*
X126452380Y-104276785D01*
X126452380Y-103895833D01*
X126500000Y-103800595D01*
X126547619Y-103752976D01*
X126642857Y-103705357D01*
X126785714Y-103705357D01*
X126880952Y-103752976D01*
X126928571Y-103800595D01*
X126976190Y-103895833D01*
X126976190Y-104276785D01*
X126547619Y-103324404D02*
X126500000Y-103276785D01*
X126452380Y-103181547D01*
X126452380Y-102943452D01*
X126500000Y-102848214D01*
X126547619Y-102800595D01*
X126642857Y-102752976D01*
X126738095Y-102752976D01*
X126880952Y-102800595D01*
X127452380Y-103372023D01*
X127452380Y-102752976D01*
X126452380Y-102419642D02*
X126452380Y-101800595D01*
X126833333Y-102133928D01*
X126833333Y-101991071D01*
X126880952Y-101895833D01*
X126928571Y-101848214D01*
X127023809Y-101800595D01*
X127261904Y-101800595D01*
X127357142Y-101848214D01*
X127404761Y-101895833D01*
X127452380Y-101991071D01*
X127452380Y-102276785D01*
X127404761Y-102372023D01*
X127357142Y-102419642D01*
%TO.C,R12*%
X120848380Y-103258857D02*
X120372190Y-103592190D01*
X120848380Y-103830285D02*
X119848380Y-103830285D01*
X119848380Y-103449333D01*
X119896000Y-103354095D01*
X119943619Y-103306476D01*
X120038857Y-103258857D01*
X120181714Y-103258857D01*
X120276952Y-103306476D01*
X120324571Y-103354095D01*
X120372190Y-103449333D01*
X120372190Y-103830285D01*
X120848380Y-102306476D02*
X120848380Y-102877904D01*
X120848380Y-102592190D02*
X119848380Y-102592190D01*
X119991238Y-102687428D01*
X120086476Y-102782666D01*
X120134095Y-102877904D01*
X119943619Y-101925523D02*
X119896000Y-101877904D01*
X119848380Y-101782666D01*
X119848380Y-101544571D01*
X119896000Y-101449333D01*
X119943619Y-101401714D01*
X120038857Y-101354095D01*
X120134095Y-101354095D01*
X120276952Y-101401714D01*
X120848380Y-101973142D01*
X120848380Y-101354095D01*
%TO.C,J6*%
X98214380Y-146637333D02*
X98928666Y-146637333D01*
X99071523Y-146684952D01*
X99166761Y-146780190D01*
X99214380Y-146923047D01*
X99214380Y-147018285D01*
X98214380Y-145732571D02*
X98214380Y-145923047D01*
X98262000Y-146018285D01*
X98309619Y-146065904D01*
X98452476Y-146161142D01*
X98642952Y-146208761D01*
X99023904Y-146208761D01*
X99119142Y-146161142D01*
X99166761Y-146113523D01*
X99214380Y-146018285D01*
X99214380Y-145827809D01*
X99166761Y-145732571D01*
X99119142Y-145684952D01*
X99023904Y-145637333D01*
X98785809Y-145637333D01*
X98690571Y-145684952D01*
X98642952Y-145732571D01*
X98595333Y-145827809D01*
X98595333Y-146018285D01*
X98642952Y-146113523D01*
X98690571Y-146161142D01*
X98785809Y-146208761D01*
%TO.C,C3*%
X148169333Y-136954142D02*
X148121714Y-137001761D01*
X147978857Y-137049380D01*
X147883619Y-137049380D01*
X147740761Y-137001761D01*
X147645523Y-136906523D01*
X147597904Y-136811285D01*
X147550285Y-136620809D01*
X147550285Y-136477952D01*
X147597904Y-136287476D01*
X147645523Y-136192238D01*
X147740761Y-136097000D01*
X147883619Y-136049380D01*
X147978857Y-136049380D01*
X148121714Y-136097000D01*
X148169333Y-136144619D01*
X148502666Y-136049380D02*
X149121714Y-136049380D01*
X148788380Y-136430333D01*
X148931238Y-136430333D01*
X149026476Y-136477952D01*
X149074095Y-136525571D01*
X149121714Y-136620809D01*
X149121714Y-136858904D01*
X149074095Y-136954142D01*
X149026476Y-137001761D01*
X148931238Y-137049380D01*
X148645523Y-137049380D01*
X148550285Y-137001761D01*
X148502666Y-136954142D01*
%TO.C,J4*%
X95348380Y-105489333D02*
X96062666Y-105489333D01*
X96205523Y-105536952D01*
X96300761Y-105632190D01*
X96348380Y-105775047D01*
X96348380Y-105870285D01*
X95681714Y-104584571D02*
X96348380Y-104584571D01*
X95300761Y-104822666D02*
X96015047Y-105060761D01*
X96015047Y-104441714D01*
%TO.C,C5*%
X119262333Y-81637142D02*
X119214714Y-81684761D01*
X119071857Y-81732380D01*
X118976619Y-81732380D01*
X118833761Y-81684761D01*
X118738523Y-81589523D01*
X118690904Y-81494285D01*
X118643285Y-81303809D01*
X118643285Y-81160952D01*
X118690904Y-80970476D01*
X118738523Y-80875238D01*
X118833761Y-80780000D01*
X118976619Y-80732380D01*
X119071857Y-80732380D01*
X119214714Y-80780000D01*
X119262333Y-80827619D01*
X120167095Y-80732380D02*
X119690904Y-80732380D01*
X119643285Y-81208571D01*
X119690904Y-81160952D01*
X119786142Y-81113333D01*
X120024238Y-81113333D01*
X120119476Y-81160952D01*
X120167095Y-81208571D01*
X120214714Y-81303809D01*
X120214714Y-81541904D01*
X120167095Y-81637142D01*
X120119476Y-81684761D01*
X120024238Y-81732380D01*
X119786142Y-81732380D01*
X119690904Y-81684761D01*
X119643285Y-81637142D01*
%TO.C,REF\u002A\u002A*%
X147510666Y-110764380D02*
X147177333Y-110288190D01*
X146939238Y-110764380D02*
X146939238Y-109764380D01*
X147320190Y-109764380D01*
X147415428Y-109812000D01*
X147463047Y-109859619D01*
X147510666Y-109954857D01*
X147510666Y-110097714D01*
X147463047Y-110192952D01*
X147415428Y-110240571D01*
X147320190Y-110288190D01*
X146939238Y-110288190D01*
X147939238Y-110240571D02*
X148272571Y-110240571D01*
X148415428Y-110764380D02*
X147939238Y-110764380D01*
X147939238Y-109764380D01*
X148415428Y-109764380D01*
X149177333Y-110240571D02*
X148844000Y-110240571D01*
X148844000Y-110764380D02*
X148844000Y-109764380D01*
X149320190Y-109764380D01*
X149844000Y-109764380D02*
X149844000Y-110002476D01*
X149605904Y-109907238D02*
X149844000Y-110002476D01*
X150082095Y-109907238D01*
X149701142Y-110192952D02*
X149844000Y-110002476D01*
X149986857Y-110192952D01*
X150605904Y-109764380D02*
X150605904Y-110002476D01*
X150367809Y-109907238D02*
X150605904Y-110002476D01*
X150844000Y-109907238D01*
X150463047Y-110192952D02*
X150605904Y-110002476D01*
X150748761Y-110192952D01*
%TO.C,U3*%
X106934095Y-95166380D02*
X106934095Y-95975904D01*
X106981714Y-96071142D01*
X107029333Y-96118761D01*
X107124571Y-96166380D01*
X107315047Y-96166380D01*
X107410285Y-96118761D01*
X107457904Y-96071142D01*
X107505523Y-95975904D01*
X107505523Y-95166380D01*
X107886476Y-95166380D02*
X108505523Y-95166380D01*
X108172190Y-95547333D01*
X108315047Y-95547333D01*
X108410285Y-95594952D01*
X108457904Y-95642571D01*
X108505523Y-95737809D01*
X108505523Y-95975904D01*
X108457904Y-96071142D01*
X108410285Y-96118761D01*
X108315047Y-96166380D01*
X108029333Y-96166380D01*
X107934095Y-96118761D01*
X107886476Y-96071142D01*
%TO.C,D1*%
X141469904Y-102600380D02*
X141469904Y-101600380D01*
X141708000Y-101600380D01*
X141850857Y-101648000D01*
X141946095Y-101743238D01*
X141993714Y-101838476D01*
X142041333Y-102028952D01*
X142041333Y-102171809D01*
X141993714Y-102362285D01*
X141946095Y-102457523D01*
X141850857Y-102552761D01*
X141708000Y-102600380D01*
X141469904Y-102600380D01*
X142993714Y-102600380D02*
X142422285Y-102600380D01*
X142708000Y-102600380D02*
X142708000Y-101600380D01*
X142612761Y-101743238D01*
X142517523Y-101838476D01*
X142422285Y-101886095D01*
%TO.C,J2*%
X132762666Y-115276380D02*
X132762666Y-115990666D01*
X132715047Y-116133523D01*
X132619809Y-116228761D01*
X132476952Y-116276380D01*
X132381714Y-116276380D01*
X133191238Y-115371619D02*
X133238857Y-115324000D01*
X133334095Y-115276380D01*
X133572190Y-115276380D01*
X133667428Y-115324000D01*
X133715047Y-115371619D01*
X133762666Y-115466857D01*
X133762666Y-115562095D01*
X133715047Y-115704952D01*
X133143619Y-116276380D01*
X133762666Y-116276380D01*
X133032571Y-107803142D02*
X134175428Y-107803142D01*
X137096571Y-107803142D02*
X138239428Y-107803142D01*
X137668000Y-108374571D02*
X137668000Y-107231714D01*
%TO.C,Y1*%
X122459809Y-86844190D02*
X122459809Y-87320380D01*
X122126476Y-86320380D02*
X122459809Y-86844190D01*
X122793142Y-86320380D01*
X123650285Y-87320380D02*
X123078857Y-87320380D01*
X123364571Y-87320380D02*
X123364571Y-86320380D01*
X123269333Y-86463238D01*
X123174095Y-86558476D01*
X123078857Y-86606095D01*
%TO.C,U5*%
X113244380Y-107949904D02*
X114053904Y-107949904D01*
X114149142Y-107902285D01*
X114196761Y-107854666D01*
X114244380Y-107759428D01*
X114244380Y-107568952D01*
X114196761Y-107473714D01*
X114149142Y-107426095D01*
X114053904Y-107378476D01*
X113244380Y-107378476D01*
X113244380Y-106426095D02*
X113244380Y-106902285D01*
X113720571Y-106949904D01*
X113672952Y-106902285D01*
X113625333Y-106807047D01*
X113625333Y-106568952D01*
X113672952Y-106473714D01*
X113720571Y-106426095D01*
X113815809Y-106378476D01*
X114053904Y-106378476D01*
X114149142Y-106426095D01*
X114196761Y-106473714D01*
X114244380Y-106568952D01*
X114244380Y-106807047D01*
X114196761Y-106902285D01*
X114149142Y-106949904D01*
%TO.C,U4*%
X145320380Y-123595904D02*
X146129904Y-123595904D01*
X146225142Y-123548285D01*
X146272761Y-123500666D01*
X146320380Y-123405428D01*
X146320380Y-123214952D01*
X146272761Y-123119714D01*
X146225142Y-123072095D01*
X146129904Y-123024476D01*
X145320380Y-123024476D01*
X145653714Y-122119714D02*
X146320380Y-122119714D01*
X145272761Y-122357809D02*
X145987047Y-122595904D01*
X145987047Y-121976857D01*
%TO.C,U2*%
X122551880Y-95499904D02*
X123361404Y-95499904D01*
X123456642Y-95452285D01*
X123504261Y-95404666D01*
X123551880Y-95309428D01*
X123551880Y-95118952D01*
X123504261Y-95023714D01*
X123456642Y-94976095D01*
X123361404Y-94928476D01*
X122551880Y-94928476D01*
X122647119Y-94499904D02*
X122599500Y-94452285D01*
X122551880Y-94357047D01*
X122551880Y-94118952D01*
X122599500Y-94023714D01*
X122647119Y-93976095D01*
X122742357Y-93928476D01*
X122837595Y-93928476D01*
X122980452Y-93976095D01*
X123551880Y-94547523D01*
X123551880Y-93928476D01*
%TO.C,U1*%
X123128095Y-138419380D02*
X123128095Y-139228904D01*
X123175714Y-139324142D01*
X123223333Y-139371761D01*
X123318571Y-139419380D01*
X123509047Y-139419380D01*
X123604285Y-139371761D01*
X123651904Y-139324142D01*
X123699523Y-139228904D01*
X123699523Y-138419380D01*
X124699523Y-139419380D02*
X124128095Y-139419380D01*
X124413809Y-139419380D02*
X124413809Y-138419380D01*
X124318571Y-138562238D01*
X124223333Y-138657476D01*
X124128095Y-138705095D01*
%TO.C,SW1*%
X137102666Y-87144761D02*
X137245523Y-87192380D01*
X137483619Y-87192380D01*
X137578857Y-87144761D01*
X137626476Y-87097142D01*
X137674095Y-87001904D01*
X137674095Y-86906666D01*
X137626476Y-86811428D01*
X137578857Y-86763809D01*
X137483619Y-86716190D01*
X137293142Y-86668571D01*
X137197904Y-86620952D01*
X137150285Y-86573333D01*
X137102666Y-86478095D01*
X137102666Y-86382857D01*
X137150285Y-86287619D01*
X137197904Y-86240000D01*
X137293142Y-86192380D01*
X137531238Y-86192380D01*
X137674095Y-86240000D01*
X138007428Y-86192380D02*
X138245523Y-87192380D01*
X138436000Y-86478095D01*
X138626476Y-87192380D01*
X138864571Y-86192380D01*
X139769333Y-87192380D02*
X139197904Y-87192380D01*
X139483619Y-87192380D02*
X139483619Y-86192380D01*
X139388380Y-86335238D01*
X139293142Y-86430476D01*
X139197904Y-86478095D01*
%TO.C,R22*%
X153148380Y-104213357D02*
X152672190Y-104546690D01*
X153148380Y-104784785D02*
X152148380Y-104784785D01*
X152148380Y-104403833D01*
X152196000Y-104308595D01*
X152243619Y-104260976D01*
X152338857Y-104213357D01*
X152481714Y-104213357D01*
X152576952Y-104260976D01*
X152624571Y-104308595D01*
X152672190Y-104403833D01*
X152672190Y-104784785D01*
X152243619Y-103832404D02*
X152196000Y-103784785D01*
X152148380Y-103689547D01*
X152148380Y-103451452D01*
X152196000Y-103356214D01*
X152243619Y-103308595D01*
X152338857Y-103260976D01*
X152434095Y-103260976D01*
X152576952Y-103308595D01*
X153148380Y-103880023D01*
X153148380Y-103260976D01*
X152243619Y-102880023D02*
X152196000Y-102832404D01*
X152148380Y-102737166D01*
X152148380Y-102499071D01*
X152196000Y-102403833D01*
X152243619Y-102356214D01*
X152338857Y-102308595D01*
X152434095Y-102308595D01*
X152576952Y-102356214D01*
X153148380Y-102927642D01*
X153148380Y-102308595D01*
%TO.C,R21*%
X146968380Y-104213357D02*
X146492190Y-104546690D01*
X146968380Y-104784785D02*
X145968380Y-104784785D01*
X145968380Y-104403833D01*
X146016000Y-104308595D01*
X146063619Y-104260976D01*
X146158857Y-104213357D01*
X146301714Y-104213357D01*
X146396952Y-104260976D01*
X146444571Y-104308595D01*
X146492190Y-104403833D01*
X146492190Y-104784785D01*
X146063619Y-103832404D02*
X146016000Y-103784785D01*
X145968380Y-103689547D01*
X145968380Y-103451452D01*
X146016000Y-103356214D01*
X146063619Y-103308595D01*
X146158857Y-103260976D01*
X146254095Y-103260976D01*
X146396952Y-103308595D01*
X146968380Y-103880023D01*
X146968380Y-103260976D01*
X146968380Y-102308595D02*
X146968380Y-102880023D01*
X146968380Y-102594309D02*
X145968380Y-102594309D01*
X146111238Y-102689547D01*
X146206476Y-102784785D01*
X146254095Y-102880023D01*
%TO.C,R20*%
X125632380Y-92144357D02*
X125156190Y-92477690D01*
X125632380Y-92715785D02*
X124632380Y-92715785D01*
X124632380Y-92334833D01*
X124680000Y-92239595D01*
X124727619Y-92191976D01*
X124822857Y-92144357D01*
X124965714Y-92144357D01*
X125060952Y-92191976D01*
X125108571Y-92239595D01*
X125156190Y-92334833D01*
X125156190Y-92715785D01*
X124727619Y-91763404D02*
X124680000Y-91715785D01*
X124632380Y-91620547D01*
X124632380Y-91382452D01*
X124680000Y-91287214D01*
X124727619Y-91239595D01*
X124822857Y-91191976D01*
X124918095Y-91191976D01*
X125060952Y-91239595D01*
X125632380Y-91811023D01*
X125632380Y-91191976D01*
X124632380Y-90572928D02*
X124632380Y-90477690D01*
X124680000Y-90382452D01*
X124727619Y-90334833D01*
X124822857Y-90287214D01*
X125013333Y-90239595D01*
X125251428Y-90239595D01*
X125441904Y-90287214D01*
X125537142Y-90334833D01*
X125584761Y-90382452D01*
X125632380Y-90477690D01*
X125632380Y-90572928D01*
X125584761Y-90668166D01*
X125537142Y-90715785D01*
X125441904Y-90763404D01*
X125251428Y-90811023D01*
X125013333Y-90811023D01*
X124822857Y-90763404D01*
X124727619Y-90715785D01*
X124680000Y-90668166D01*
X124632380Y-90572928D01*
%TO.C,R19*%
X125420380Y-98178857D02*
X124944190Y-98512190D01*
X125420380Y-98750285D02*
X124420380Y-98750285D01*
X124420380Y-98369333D01*
X124468000Y-98274095D01*
X124515619Y-98226476D01*
X124610857Y-98178857D01*
X124753714Y-98178857D01*
X124848952Y-98226476D01*
X124896571Y-98274095D01*
X124944190Y-98369333D01*
X124944190Y-98750285D01*
X125420380Y-97226476D02*
X125420380Y-97797904D01*
X125420380Y-97512190D02*
X124420380Y-97512190D01*
X124563238Y-97607428D01*
X124658476Y-97702666D01*
X124706095Y-97797904D01*
X125420380Y-96750285D02*
X125420380Y-96559809D01*
X125372761Y-96464571D01*
X125325142Y-96416952D01*
X125182285Y-96321714D01*
X124991809Y-96274095D01*
X124610857Y-96274095D01*
X124515619Y-96321714D01*
X124468000Y-96369333D01*
X124420380Y-96464571D01*
X124420380Y-96655047D01*
X124468000Y-96750285D01*
X124515619Y-96797904D01*
X124610857Y-96845523D01*
X124848952Y-96845523D01*
X124944190Y-96797904D01*
X124991809Y-96750285D01*
X125039428Y-96655047D01*
X125039428Y-96464571D01*
X124991809Y-96369333D01*
X124944190Y-96321714D01*
X124848952Y-96274095D01*
%TO.C,R18*%
X100510642Y-96760380D02*
X100177309Y-96284190D01*
X99939214Y-96760380D02*
X99939214Y-95760380D01*
X100320166Y-95760380D01*
X100415404Y-95808000D01*
X100463023Y-95855619D01*
X100510642Y-95950857D01*
X100510642Y-96093714D01*
X100463023Y-96188952D01*
X100415404Y-96236571D01*
X100320166Y-96284190D01*
X99939214Y-96284190D01*
X101463023Y-96760380D02*
X100891595Y-96760380D01*
X101177309Y-96760380D02*
X101177309Y-95760380D01*
X101082071Y-95903238D01*
X100986833Y-95998476D01*
X100891595Y-96046095D01*
X102034452Y-96188952D02*
X101939214Y-96141333D01*
X101891595Y-96093714D01*
X101843976Y-95998476D01*
X101843976Y-95950857D01*
X101891595Y-95855619D01*
X101939214Y-95808000D01*
X102034452Y-95760380D01*
X102224928Y-95760380D01*
X102320166Y-95808000D01*
X102367785Y-95855619D01*
X102415404Y-95950857D01*
X102415404Y-95998476D01*
X102367785Y-96093714D01*
X102320166Y-96141333D01*
X102224928Y-96188952D01*
X102034452Y-96188952D01*
X101939214Y-96236571D01*
X101891595Y-96284190D01*
X101843976Y-96379428D01*
X101843976Y-96569904D01*
X101891595Y-96665142D01*
X101939214Y-96712761D01*
X102034452Y-96760380D01*
X102224928Y-96760380D01*
X102320166Y-96712761D01*
X102367785Y-96665142D01*
X102415404Y-96569904D01*
X102415404Y-96379428D01*
X102367785Y-96284190D01*
X102320166Y-96236571D01*
X102224928Y-96188952D01*
%TO.C,R17*%
X100510642Y-92696380D02*
X100177309Y-92220190D01*
X99939214Y-92696380D02*
X99939214Y-91696380D01*
X100320166Y-91696380D01*
X100415404Y-91744000D01*
X100463023Y-91791619D01*
X100510642Y-91886857D01*
X100510642Y-92029714D01*
X100463023Y-92124952D01*
X100415404Y-92172571D01*
X100320166Y-92220190D01*
X99939214Y-92220190D01*
X101463023Y-92696380D02*
X100891595Y-92696380D01*
X101177309Y-92696380D02*
X101177309Y-91696380D01*
X101082071Y-91839238D01*
X100986833Y-91934476D01*
X100891595Y-91982095D01*
X101796357Y-91696380D02*
X102463023Y-91696380D01*
X102034452Y-92696380D01*
%TO.C,R16*%
X100510642Y-105396380D02*
X100177309Y-104920190D01*
X99939214Y-105396380D02*
X99939214Y-104396380D01*
X100320166Y-104396380D01*
X100415404Y-104444000D01*
X100463023Y-104491619D01*
X100510642Y-104586857D01*
X100510642Y-104729714D01*
X100463023Y-104824952D01*
X100415404Y-104872571D01*
X100320166Y-104920190D01*
X99939214Y-104920190D01*
X101463023Y-105396380D02*
X100891595Y-105396380D01*
X101177309Y-105396380D02*
X101177309Y-104396380D01*
X101082071Y-104539238D01*
X100986833Y-104634476D01*
X100891595Y-104682095D01*
X102320166Y-104396380D02*
X102129690Y-104396380D01*
X102034452Y-104444000D01*
X101986833Y-104491619D01*
X101891595Y-104634476D01*
X101843976Y-104824952D01*
X101843976Y-105205904D01*
X101891595Y-105301142D01*
X101939214Y-105348761D01*
X102034452Y-105396380D01*
X102224928Y-105396380D01*
X102320166Y-105348761D01*
X102367785Y-105301142D01*
X102415404Y-105205904D01*
X102415404Y-104967809D01*
X102367785Y-104872571D01*
X102320166Y-104824952D01*
X102224928Y-104777333D01*
X102034452Y-104777333D01*
X101939214Y-104824952D01*
X101891595Y-104872571D01*
X101843976Y-104967809D01*
%TO.C,R15*%
X104005142Y-108148380D02*
X103671809Y-107672190D01*
X103433714Y-108148380D02*
X103433714Y-107148380D01*
X103814666Y-107148380D01*
X103909904Y-107196000D01*
X103957523Y-107243619D01*
X104005142Y-107338857D01*
X104005142Y-107481714D01*
X103957523Y-107576952D01*
X103909904Y-107624571D01*
X103814666Y-107672190D01*
X103433714Y-107672190D01*
X104957523Y-108148380D02*
X104386095Y-108148380D01*
X104671809Y-108148380D02*
X104671809Y-107148380D01*
X104576571Y-107291238D01*
X104481333Y-107386476D01*
X104386095Y-107434095D01*
X105862285Y-107148380D02*
X105386095Y-107148380D01*
X105338476Y-107624571D01*
X105386095Y-107576952D01*
X105481333Y-107529333D01*
X105719428Y-107529333D01*
X105814666Y-107576952D01*
X105862285Y-107624571D01*
X105909904Y-107719809D01*
X105909904Y-107957904D01*
X105862285Y-108053142D01*
X105814666Y-108100761D01*
X105719428Y-108148380D01*
X105481333Y-108148380D01*
X105386095Y-108100761D01*
X105338476Y-108053142D01*
%TO.C,R14*%
X145232380Y-115450857D02*
X144756190Y-115784190D01*
X145232380Y-116022285D02*
X144232380Y-116022285D01*
X144232380Y-115641333D01*
X144280000Y-115546095D01*
X144327619Y-115498476D01*
X144422857Y-115450857D01*
X144565714Y-115450857D01*
X144660952Y-115498476D01*
X144708571Y-115546095D01*
X144756190Y-115641333D01*
X144756190Y-116022285D01*
X145232380Y-114498476D02*
X145232380Y-115069904D01*
X145232380Y-114784190D02*
X144232380Y-114784190D01*
X144375238Y-114879428D01*
X144470476Y-114974666D01*
X144518095Y-115069904D01*
X144565714Y-113641333D02*
X145232380Y-113641333D01*
X144184761Y-113879428D02*
X144899047Y-114117523D01*
X144899047Y-113498476D01*
%TO.C,R13*%
X141277642Y-111154380D02*
X140944309Y-110678190D01*
X140706214Y-111154380D02*
X140706214Y-110154380D01*
X141087166Y-110154380D01*
X141182404Y-110202000D01*
X141230023Y-110249619D01*
X141277642Y-110344857D01*
X141277642Y-110487714D01*
X141230023Y-110582952D01*
X141182404Y-110630571D01*
X141087166Y-110678190D01*
X140706214Y-110678190D01*
X142230023Y-111154380D02*
X141658595Y-111154380D01*
X141944309Y-111154380D02*
X141944309Y-110154380D01*
X141849071Y-110297238D01*
X141753833Y-110392476D01*
X141658595Y-110440095D01*
X142563357Y-110154380D02*
X143182404Y-110154380D01*
X142849071Y-110535333D01*
X142991928Y-110535333D01*
X143087166Y-110582952D01*
X143134785Y-110630571D01*
X143182404Y-110725809D01*
X143182404Y-110963904D01*
X143134785Y-111059142D01*
X143087166Y-111106761D01*
X142991928Y-111154380D01*
X142706214Y-111154380D01*
X142610976Y-111106761D01*
X142563357Y-111059142D01*
%TO.C,R11*%
X100510642Y-89648380D02*
X100177309Y-89172190D01*
X99939214Y-89648380D02*
X99939214Y-88648380D01*
X100320166Y-88648380D01*
X100415404Y-88696000D01*
X100463023Y-88743619D01*
X100510642Y-88838857D01*
X100510642Y-88981714D01*
X100463023Y-89076952D01*
X100415404Y-89124571D01*
X100320166Y-89172190D01*
X99939214Y-89172190D01*
X101463023Y-89648380D02*
X100891595Y-89648380D01*
X101177309Y-89648380D02*
X101177309Y-88648380D01*
X101082071Y-88791238D01*
X100986833Y-88886476D01*
X100891595Y-88934095D01*
X102415404Y-89648380D02*
X101843976Y-89648380D01*
X102129690Y-89648380D02*
X102129690Y-88648380D01*
X102034452Y-88791238D01*
X101939214Y-88886476D01*
X101843976Y-88934095D01*
%TO.C,R10*%
X125341142Y-147264380D02*
X125007809Y-146788190D01*
X124769714Y-147264380D02*
X124769714Y-146264380D01*
X125150666Y-146264380D01*
X125245904Y-146312000D01*
X125293523Y-146359619D01*
X125341142Y-146454857D01*
X125341142Y-146597714D01*
X125293523Y-146692952D01*
X125245904Y-146740571D01*
X125150666Y-146788190D01*
X124769714Y-146788190D01*
X126293523Y-147264380D02*
X125722095Y-147264380D01*
X126007809Y-147264380D02*
X126007809Y-146264380D01*
X125912571Y-146407238D01*
X125817333Y-146502476D01*
X125722095Y-146550095D01*
X126912571Y-146264380D02*
X127007809Y-146264380D01*
X127103047Y-146312000D01*
X127150666Y-146359619D01*
X127198285Y-146454857D01*
X127245904Y-146645333D01*
X127245904Y-146883428D01*
X127198285Y-147073904D01*
X127150666Y-147169142D01*
X127103047Y-147216761D01*
X127007809Y-147264380D01*
X126912571Y-147264380D01*
X126817333Y-147216761D01*
X126769714Y-147169142D01*
X126722095Y-147073904D01*
X126674476Y-146883428D01*
X126674476Y-146645333D01*
X126722095Y-146454857D01*
X126769714Y-146359619D01*
X126817333Y-146312000D01*
X126912571Y-146264380D01*
%TO.C,R9*%
X118705333Y-145740380D02*
X118372000Y-145264190D01*
X118133904Y-145740380D02*
X118133904Y-144740380D01*
X118514857Y-144740380D01*
X118610095Y-144788000D01*
X118657714Y-144835619D01*
X118705333Y-144930857D01*
X118705333Y-145073714D01*
X118657714Y-145168952D01*
X118610095Y-145216571D01*
X118514857Y-145264190D01*
X118133904Y-145264190D01*
X119181523Y-145740380D02*
X119372000Y-145740380D01*
X119467238Y-145692761D01*
X119514857Y-145645142D01*
X119610095Y-145502285D01*
X119657714Y-145311809D01*
X119657714Y-144930857D01*
X119610095Y-144835619D01*
X119562476Y-144788000D01*
X119467238Y-144740380D01*
X119276761Y-144740380D01*
X119181523Y-144788000D01*
X119133904Y-144835619D01*
X119086285Y-144930857D01*
X119086285Y-145168952D01*
X119133904Y-145264190D01*
X119181523Y-145311809D01*
X119276761Y-145359428D01*
X119467238Y-145359428D01*
X119562476Y-145311809D01*
X119610095Y-145264190D01*
X119657714Y-145168952D01*
%TO.C,R7*%
X120229333Y-139136380D02*
X119896000Y-138660190D01*
X119657904Y-139136380D02*
X119657904Y-138136380D01*
X120038857Y-138136380D01*
X120134095Y-138184000D01*
X120181714Y-138231619D01*
X120229333Y-138326857D01*
X120229333Y-138469714D01*
X120181714Y-138564952D01*
X120134095Y-138612571D01*
X120038857Y-138660190D01*
X119657904Y-138660190D01*
X120562666Y-138136380D02*
X121229333Y-138136380D01*
X120800761Y-139136380D01*
%TO.C,R6*%
X117800380Y-142976166D02*
X117324190Y-143309500D01*
X117800380Y-143547595D02*
X116800380Y-143547595D01*
X116800380Y-143166642D01*
X116848000Y-143071404D01*
X116895619Y-143023785D01*
X116990857Y-142976166D01*
X117133714Y-142976166D01*
X117228952Y-143023785D01*
X117276571Y-143071404D01*
X117324190Y-143166642D01*
X117324190Y-143547595D01*
X116800380Y-142119023D02*
X116800380Y-142309500D01*
X116848000Y-142404738D01*
X116895619Y-142452357D01*
X117038476Y-142547595D01*
X117228952Y-142595214D01*
X117609904Y-142595214D01*
X117705142Y-142547595D01*
X117752761Y-142499976D01*
X117800380Y-142404738D01*
X117800380Y-142214261D01*
X117752761Y-142119023D01*
X117705142Y-142071404D01*
X117609904Y-142023785D01*
X117371809Y-142023785D01*
X117276571Y-142071404D01*
X117228952Y-142119023D01*
X117181333Y-142214261D01*
X117181333Y-142404738D01*
X117228952Y-142499976D01*
X117276571Y-142547595D01*
X117371809Y-142595214D01*
%TO.C,R5*%
X129438833Y-144809380D02*
X129105500Y-144333190D01*
X128867404Y-144809380D02*
X128867404Y-143809380D01*
X129248357Y-143809380D01*
X129343595Y-143857000D01*
X129391214Y-143904619D01*
X129438833Y-143999857D01*
X129438833Y-144142714D01*
X129391214Y-144237952D01*
X129343595Y-144285571D01*
X129248357Y-144333190D01*
X128867404Y-144333190D01*
X130343595Y-143809380D02*
X129867404Y-143809380D01*
X129819785Y-144285571D01*
X129867404Y-144237952D01*
X129962642Y-144190333D01*
X130200738Y-144190333D01*
X130295976Y-144237952D01*
X130343595Y-144285571D01*
X130391214Y-144380809D01*
X130391214Y-144618904D01*
X130343595Y-144714142D01*
X130295976Y-144761761D01*
X130200738Y-144809380D01*
X129962642Y-144809380D01*
X129867404Y-144761761D01*
X129819785Y-144714142D01*
%TO.C,R4*%
X128172380Y-141706166D02*
X127696190Y-142039500D01*
X128172380Y-142277595D02*
X127172380Y-142277595D01*
X127172380Y-141896642D01*
X127220000Y-141801404D01*
X127267619Y-141753785D01*
X127362857Y-141706166D01*
X127505714Y-141706166D01*
X127600952Y-141753785D01*
X127648571Y-141801404D01*
X127696190Y-141896642D01*
X127696190Y-142277595D01*
X127505714Y-140849023D02*
X128172380Y-140849023D01*
X127124761Y-141087119D02*
X127839047Y-141325214D01*
X127839047Y-140706166D01*
%TO.C,R3*%
X129627333Y-127992380D02*
X129294000Y-127516190D01*
X129055904Y-127992380D02*
X129055904Y-126992380D01*
X129436857Y-126992380D01*
X129532095Y-127040000D01*
X129579714Y-127087619D01*
X129627333Y-127182857D01*
X129627333Y-127325714D01*
X129579714Y-127420952D01*
X129532095Y-127468571D01*
X129436857Y-127516190D01*
X129055904Y-127516190D01*
X129960666Y-126992380D02*
X130579714Y-126992380D01*
X130246380Y-127373333D01*
X130389238Y-127373333D01*
X130484476Y-127420952D01*
X130532095Y-127468571D01*
X130579714Y-127563809D01*
X130579714Y-127801904D01*
X130532095Y-127897142D01*
X130484476Y-127944761D01*
X130389238Y-127992380D01*
X130103523Y-127992380D01*
X130008285Y-127944761D01*
X129960666Y-127897142D01*
%TO.C,R2*%
X134961333Y-135919380D02*
X134628000Y-135443190D01*
X134389904Y-135919380D02*
X134389904Y-134919380D01*
X134770857Y-134919380D01*
X134866095Y-134967000D01*
X134913714Y-135014619D01*
X134961333Y-135109857D01*
X134961333Y-135252714D01*
X134913714Y-135347952D01*
X134866095Y-135395571D01*
X134770857Y-135443190D01*
X134389904Y-135443190D01*
X135342285Y-135014619D02*
X135389904Y-134967000D01*
X135485142Y-134919380D01*
X135723238Y-134919380D01*
X135818476Y-134967000D01*
X135866095Y-135014619D01*
X135913714Y-135109857D01*
X135913714Y-135205095D01*
X135866095Y-135347952D01*
X135294666Y-135919380D01*
X135913714Y-135919380D01*
%TO.C,R1*%
X129246333Y-135919380D02*
X128913000Y-135443190D01*
X128674904Y-135919380D02*
X128674904Y-134919380D01*
X129055857Y-134919380D01*
X129151095Y-134967000D01*
X129198714Y-135014619D01*
X129246333Y-135109857D01*
X129246333Y-135252714D01*
X129198714Y-135347952D01*
X129151095Y-135395571D01*
X129055857Y-135443190D01*
X128674904Y-135443190D01*
X130198714Y-135919380D02*
X129627285Y-135919380D01*
X129913000Y-135919380D02*
X129913000Y-134919380D01*
X129817761Y-135062238D01*
X129722523Y-135157476D01*
X129627285Y-135205095D01*
%TO.C,Q1*%
X135402761Y-128669619D02*
X135307523Y-128622000D01*
X135212285Y-128526761D01*
X135069428Y-128383904D01*
X134974190Y-128336285D01*
X134878952Y-128336285D01*
X134926571Y-128574380D02*
X134831333Y-128526761D01*
X134736095Y-128431523D01*
X134688476Y-128241047D01*
X134688476Y-127907714D01*
X134736095Y-127717238D01*
X134831333Y-127622000D01*
X134926571Y-127574380D01*
X135117047Y-127574380D01*
X135212285Y-127622000D01*
X135307523Y-127717238D01*
X135355142Y-127907714D01*
X135355142Y-128241047D01*
X135307523Y-128431523D01*
X135212285Y-128526761D01*
X135117047Y-128574380D01*
X134926571Y-128574380D01*
X136307523Y-128574380D02*
X135736095Y-128574380D01*
X136021809Y-128574380D02*
X136021809Y-127574380D01*
X135926571Y-127717238D01*
X135831333Y-127812476D01*
X135736095Y-127860095D01*
%TO.C,J5*%
X135894380Y-84661333D02*
X136608666Y-84661333D01*
X136751523Y-84708952D01*
X136846761Y-84804190D01*
X136894380Y-84947047D01*
X136894380Y-85042285D01*
X135894380Y-83708952D02*
X135894380Y-84185142D01*
X136370571Y-84232761D01*
X136322952Y-84185142D01*
X136275333Y-84089904D01*
X136275333Y-83851809D01*
X136322952Y-83756571D01*
X136370571Y-83708952D01*
X136465809Y-83661333D01*
X136703904Y-83661333D01*
X136799142Y-83708952D01*
X136846761Y-83756571D01*
X136894380Y-83851809D01*
X136894380Y-84089904D01*
X136846761Y-84185142D01*
X136799142Y-84232761D01*
%TO.C,J3*%
X102282666Y-118114380D02*
X102282666Y-118828666D01*
X102235047Y-118971523D01*
X102139809Y-119066761D01*
X101996952Y-119114380D01*
X101901714Y-119114380D01*
X102663619Y-118114380D02*
X103282666Y-118114380D01*
X102949333Y-118495333D01*
X103092190Y-118495333D01*
X103187428Y-118542952D01*
X103235047Y-118590571D01*
X103282666Y-118685809D01*
X103282666Y-118923904D01*
X103235047Y-119019142D01*
X103187428Y-119066761D01*
X103092190Y-119114380D01*
X102806476Y-119114380D01*
X102711238Y-119066761D01*
X102663619Y-119019142D01*
%TO.C,J1*%
X143934380Y-130889333D02*
X144648666Y-130889333D01*
X144791523Y-130936952D01*
X144886761Y-131032190D01*
X144934380Y-131175047D01*
X144934380Y-131270285D01*
X144934380Y-129889333D02*
X144934380Y-130460761D01*
X144934380Y-130175047D02*
X143934380Y-130175047D01*
X144077238Y-130270285D01*
X144172476Y-130365523D01*
X144220095Y-130460761D01*
%TO.C,C16*%
X100498142Y-82835142D02*
X100450523Y-82882761D01*
X100307666Y-82930380D01*
X100212428Y-82930380D01*
X100069571Y-82882761D01*
X99974333Y-82787523D01*
X99926714Y-82692285D01*
X99879095Y-82501809D01*
X99879095Y-82358952D01*
X99926714Y-82168476D01*
X99974333Y-82073238D01*
X100069571Y-81978000D01*
X100212428Y-81930380D01*
X100307666Y-81930380D01*
X100450523Y-81978000D01*
X100498142Y-82025619D01*
X101450523Y-82930380D02*
X100879095Y-82930380D01*
X101164809Y-82930380D02*
X101164809Y-81930380D01*
X101069571Y-82073238D01*
X100974333Y-82168476D01*
X100879095Y-82216095D01*
X102307666Y-81930380D02*
X102117190Y-81930380D01*
X102021952Y-81978000D01*
X101974333Y-82025619D01*
X101879095Y-82168476D01*
X101831476Y-82358952D01*
X101831476Y-82739904D01*
X101879095Y-82835142D01*
X101926714Y-82882761D01*
X102021952Y-82930380D01*
X102212428Y-82930380D01*
X102307666Y-82882761D01*
X102355285Y-82835142D01*
X102402904Y-82739904D01*
X102402904Y-82501809D01*
X102355285Y-82406571D01*
X102307666Y-82358952D01*
X102212428Y-82311333D01*
X102021952Y-82311333D01*
X101926714Y-82358952D01*
X101879095Y-82406571D01*
X101831476Y-82501809D01*
%TO.C,C15*%
X117721142Y-111609142D02*
X117673523Y-111656761D01*
X117530666Y-111704380D01*
X117435428Y-111704380D01*
X117292571Y-111656761D01*
X117197333Y-111561523D01*
X117149714Y-111466285D01*
X117102095Y-111275809D01*
X117102095Y-111132952D01*
X117149714Y-110942476D01*
X117197333Y-110847238D01*
X117292571Y-110752000D01*
X117435428Y-110704380D01*
X117530666Y-110704380D01*
X117673523Y-110752000D01*
X117721142Y-110799619D01*
X118673523Y-111704380D02*
X118102095Y-111704380D01*
X118387809Y-111704380D02*
X118387809Y-110704380D01*
X118292571Y-110847238D01*
X118197333Y-110942476D01*
X118102095Y-110990095D01*
X119578285Y-110704380D02*
X119102095Y-110704380D01*
X119054476Y-111180571D01*
X119102095Y-111132952D01*
X119197333Y-111085333D01*
X119435428Y-111085333D01*
X119530666Y-111132952D01*
X119578285Y-111180571D01*
X119625904Y-111275809D01*
X119625904Y-111513904D01*
X119578285Y-111609142D01*
X119530666Y-111656761D01*
X119435428Y-111704380D01*
X119197333Y-111704380D01*
X119102095Y-111656761D01*
X119054476Y-111609142D01*
%TO.C,C14*%
X141040142Y-107219142D02*
X140992523Y-107266761D01*
X140849666Y-107314380D01*
X140754428Y-107314380D01*
X140611571Y-107266761D01*
X140516333Y-107171523D01*
X140468714Y-107076285D01*
X140421095Y-106885809D01*
X140421095Y-106742952D01*
X140468714Y-106552476D01*
X140516333Y-106457238D01*
X140611571Y-106362000D01*
X140754428Y-106314380D01*
X140849666Y-106314380D01*
X140992523Y-106362000D01*
X141040142Y-106409619D01*
X141992523Y-107314380D02*
X141421095Y-107314380D01*
X141706809Y-107314380D02*
X141706809Y-106314380D01*
X141611571Y-106457238D01*
X141516333Y-106552476D01*
X141421095Y-106600095D01*
X142849666Y-106647714D02*
X142849666Y-107314380D01*
X142611571Y-106266761D02*
X142373476Y-106981047D01*
X142992523Y-106981047D01*
%TO.C,C13*%
X132437142Y-98178857D02*
X132484761Y-98226476D01*
X132532380Y-98369333D01*
X132532380Y-98464571D01*
X132484761Y-98607428D01*
X132389523Y-98702666D01*
X132294285Y-98750285D01*
X132103809Y-98797904D01*
X131960952Y-98797904D01*
X131770476Y-98750285D01*
X131675238Y-98702666D01*
X131580000Y-98607428D01*
X131532380Y-98464571D01*
X131532380Y-98369333D01*
X131580000Y-98226476D01*
X131627619Y-98178857D01*
X132532380Y-97226476D02*
X132532380Y-97797904D01*
X132532380Y-97512190D02*
X131532380Y-97512190D01*
X131675238Y-97607428D01*
X131770476Y-97702666D01*
X131818095Y-97797904D01*
X131532380Y-96893142D02*
X131532380Y-96274095D01*
X131913333Y-96607428D01*
X131913333Y-96464571D01*
X131960952Y-96369333D01*
X132008571Y-96321714D01*
X132103809Y-96274095D01*
X132341904Y-96274095D01*
X132437142Y-96321714D01*
X132484761Y-96369333D01*
X132532380Y-96464571D01*
X132532380Y-96750285D01*
X132484761Y-96845523D01*
X132437142Y-96893142D01*
%TO.C,C12*%
X144137142Y-83161142D02*
X144089523Y-83208761D01*
X143946666Y-83256380D01*
X143851428Y-83256380D01*
X143708571Y-83208761D01*
X143613333Y-83113523D01*
X143565714Y-83018285D01*
X143518095Y-82827809D01*
X143518095Y-82684952D01*
X143565714Y-82494476D01*
X143613333Y-82399238D01*
X143708571Y-82304000D01*
X143851428Y-82256380D01*
X143946666Y-82256380D01*
X144089523Y-82304000D01*
X144137142Y-82351619D01*
X145089523Y-83256380D02*
X144518095Y-83256380D01*
X144803809Y-83256380D02*
X144803809Y-82256380D01*
X144708571Y-82399238D01*
X144613333Y-82494476D01*
X144518095Y-82542095D01*
X145470476Y-82351619D02*
X145518095Y-82304000D01*
X145613333Y-82256380D01*
X145851428Y-82256380D01*
X145946666Y-82304000D01*
X145994285Y-82351619D01*
X146041904Y-82446857D01*
X146041904Y-82542095D01*
X145994285Y-82684952D01*
X145422857Y-83256380D01*
X146041904Y-83256380D01*
%TO.C,C11*%
X112182142Y-111791142D02*
X112134523Y-111838761D01*
X111991666Y-111886380D01*
X111896428Y-111886380D01*
X111753571Y-111838761D01*
X111658333Y-111743523D01*
X111610714Y-111648285D01*
X111563095Y-111457809D01*
X111563095Y-111314952D01*
X111610714Y-111124476D01*
X111658333Y-111029238D01*
X111753571Y-110934000D01*
X111896428Y-110886380D01*
X111991666Y-110886380D01*
X112134523Y-110934000D01*
X112182142Y-110981619D01*
X113134523Y-111886380D02*
X112563095Y-111886380D01*
X112848809Y-111886380D02*
X112848809Y-110886380D01*
X112753571Y-111029238D01*
X112658333Y-111124476D01*
X112563095Y-111172095D01*
X114086904Y-111886380D02*
X113515476Y-111886380D01*
X113801190Y-111886380D02*
X113801190Y-110886380D01*
X113705952Y-111029238D01*
X113610714Y-111124476D01*
X113515476Y-111172095D01*
%TO.C,C10*%
X132255142Y-92131857D02*
X132302761Y-92179476D01*
X132350380Y-92322333D01*
X132350380Y-92417571D01*
X132302761Y-92560428D01*
X132207523Y-92655666D01*
X132112285Y-92703285D01*
X131921809Y-92750904D01*
X131778952Y-92750904D01*
X131588476Y-92703285D01*
X131493238Y-92655666D01*
X131398000Y-92560428D01*
X131350380Y-92417571D01*
X131350380Y-92322333D01*
X131398000Y-92179476D01*
X131445619Y-92131857D01*
X132350380Y-91179476D02*
X132350380Y-91750904D01*
X132350380Y-91465190D02*
X131350380Y-91465190D01*
X131493238Y-91560428D01*
X131588476Y-91655666D01*
X131636095Y-91750904D01*
X131350380Y-90560428D02*
X131350380Y-90465190D01*
X131398000Y-90369952D01*
X131445619Y-90322333D01*
X131540857Y-90274714D01*
X131731333Y-90227095D01*
X131969428Y-90227095D01*
X132159904Y-90274714D01*
X132255142Y-90322333D01*
X132302761Y-90369952D01*
X132350380Y-90465190D01*
X132350380Y-90560428D01*
X132302761Y-90655666D01*
X132255142Y-90703285D01*
X132159904Y-90750904D01*
X131969428Y-90798523D01*
X131731333Y-90798523D01*
X131540857Y-90750904D01*
X131445619Y-90703285D01*
X131398000Y-90655666D01*
X131350380Y-90560428D01*
%TO.C,C9*%
X101648142Y-99148666D02*
X101695761Y-99196285D01*
X101743380Y-99339142D01*
X101743380Y-99434380D01*
X101695761Y-99577238D01*
X101600523Y-99672476D01*
X101505285Y-99720095D01*
X101314809Y-99767714D01*
X101171952Y-99767714D01*
X100981476Y-99720095D01*
X100886238Y-99672476D01*
X100791000Y-99577238D01*
X100743380Y-99434380D01*
X100743380Y-99339142D01*
X100791000Y-99196285D01*
X100838619Y-99148666D01*
X101743380Y-98672476D02*
X101743380Y-98482000D01*
X101695761Y-98386761D01*
X101648142Y-98339142D01*
X101505285Y-98243904D01*
X101314809Y-98196285D01*
X100933857Y-98196285D01*
X100838619Y-98243904D01*
X100791000Y-98291523D01*
X100743380Y-98386761D01*
X100743380Y-98577238D01*
X100791000Y-98672476D01*
X100838619Y-98720095D01*
X100933857Y-98767714D01*
X101171952Y-98767714D01*
X101267190Y-98720095D01*
X101314809Y-98672476D01*
X101362428Y-98577238D01*
X101362428Y-98386761D01*
X101314809Y-98291523D01*
X101267190Y-98243904D01*
X101171952Y-98196285D01*
%TO.C,C8*%
X105331142Y-99177666D02*
X105378761Y-99225285D01*
X105426380Y-99368142D01*
X105426380Y-99463380D01*
X105378761Y-99606238D01*
X105283523Y-99701476D01*
X105188285Y-99749095D01*
X104997809Y-99796714D01*
X104854952Y-99796714D01*
X104664476Y-99749095D01*
X104569238Y-99701476D01*
X104474000Y-99606238D01*
X104426380Y-99463380D01*
X104426380Y-99368142D01*
X104474000Y-99225285D01*
X104521619Y-99177666D01*
X104854952Y-98606238D02*
X104807333Y-98701476D01*
X104759714Y-98749095D01*
X104664476Y-98796714D01*
X104616857Y-98796714D01*
X104521619Y-98749095D01*
X104474000Y-98701476D01*
X104426380Y-98606238D01*
X104426380Y-98415761D01*
X104474000Y-98320523D01*
X104521619Y-98272904D01*
X104616857Y-98225285D01*
X104664476Y-98225285D01*
X104759714Y-98272904D01*
X104807333Y-98320523D01*
X104854952Y-98415761D01*
X104854952Y-98606238D01*
X104902571Y-98701476D01*
X104950190Y-98749095D01*
X105045428Y-98796714D01*
X105235904Y-98796714D01*
X105331142Y-98749095D01*
X105378761Y-98701476D01*
X105426380Y-98606238D01*
X105426380Y-98415761D01*
X105378761Y-98320523D01*
X105331142Y-98272904D01*
X105235904Y-98225285D01*
X105045428Y-98225285D01*
X104950190Y-98272904D01*
X104902571Y-98320523D01*
X104854952Y-98415761D01*
%TO.C,C7*%
X147661333Y-107219142D02*
X147613714Y-107266761D01*
X147470857Y-107314380D01*
X147375619Y-107314380D01*
X147232761Y-107266761D01*
X147137523Y-107171523D01*
X147089904Y-107076285D01*
X147042285Y-106885809D01*
X147042285Y-106742952D01*
X147089904Y-106552476D01*
X147137523Y-106457238D01*
X147232761Y-106362000D01*
X147375619Y-106314380D01*
X147470857Y-106314380D01*
X147613714Y-106362000D01*
X147661333Y-106409619D01*
X147994666Y-106314380D02*
X148661333Y-106314380D01*
X148232761Y-107314380D01*
%TO.C,C6*%
X112658333Y-82145142D02*
X112610714Y-82192761D01*
X112467857Y-82240380D01*
X112372619Y-82240380D01*
X112229761Y-82192761D01*
X112134523Y-82097523D01*
X112086904Y-82002285D01*
X112039285Y-81811809D01*
X112039285Y-81668952D01*
X112086904Y-81478476D01*
X112134523Y-81383238D01*
X112229761Y-81288000D01*
X112372619Y-81240380D01*
X112467857Y-81240380D01*
X112610714Y-81288000D01*
X112658333Y-81335619D01*
X113515476Y-81240380D02*
X113325000Y-81240380D01*
X113229761Y-81288000D01*
X113182142Y-81335619D01*
X113086904Y-81478476D01*
X113039285Y-81668952D01*
X113039285Y-82049904D01*
X113086904Y-82145142D01*
X113134523Y-82192761D01*
X113229761Y-82240380D01*
X113420238Y-82240380D01*
X113515476Y-82192761D01*
X113563095Y-82145142D01*
X113610714Y-82049904D01*
X113610714Y-81811809D01*
X113563095Y-81716571D01*
X113515476Y-81668952D01*
X113420238Y-81621333D01*
X113229761Y-81621333D01*
X113134523Y-81668952D01*
X113086904Y-81716571D01*
X113039285Y-81811809D01*
%TO.C,C4*%
X153265142Y-115482666D02*
X153312761Y-115530285D01*
X153360380Y-115673142D01*
X153360380Y-115768380D01*
X153312761Y-115911238D01*
X153217523Y-116006476D01*
X153122285Y-116054095D01*
X152931809Y-116101714D01*
X152788952Y-116101714D01*
X152598476Y-116054095D01*
X152503238Y-116006476D01*
X152408000Y-115911238D01*
X152360380Y-115768380D01*
X152360380Y-115673142D01*
X152408000Y-115530285D01*
X152455619Y-115482666D01*
X152693714Y-114625523D02*
X153360380Y-114625523D01*
X152312761Y-114863619D02*
X153027047Y-115101714D01*
X153027047Y-114482666D01*
%TO.C,C2*%
X120737333Y-134651142D02*
X120689714Y-134698761D01*
X120546857Y-134746380D01*
X120451619Y-134746380D01*
X120308761Y-134698761D01*
X120213523Y-134603523D01*
X120165904Y-134508285D01*
X120118285Y-134317809D01*
X120118285Y-134174952D01*
X120165904Y-133984476D01*
X120213523Y-133889238D01*
X120308761Y-133794000D01*
X120451619Y-133746380D01*
X120546857Y-133746380D01*
X120689714Y-133794000D01*
X120737333Y-133841619D01*
X121118285Y-133841619D02*
X121165904Y-133794000D01*
X121261142Y-133746380D01*
X121499238Y-133746380D01*
X121594476Y-133794000D01*
X121642095Y-133841619D01*
X121689714Y-133936857D01*
X121689714Y-134032095D01*
X121642095Y-134174952D01*
X121070666Y-134746380D01*
X121689714Y-134746380D01*
%TO.C,C1*%
X134795142Y-141693666D02*
X134842761Y-141741285D01*
X134890380Y-141884142D01*
X134890380Y-141979380D01*
X134842761Y-142122238D01*
X134747523Y-142217476D01*
X134652285Y-142265095D01*
X134461809Y-142312714D01*
X134318952Y-142312714D01*
X134128476Y-142265095D01*
X134033238Y-142217476D01*
X133938000Y-142122238D01*
X133890380Y-141979380D01*
X133890380Y-141884142D01*
X133938000Y-141741285D01*
X133985619Y-141693666D01*
X134890380Y-140741285D02*
X134890380Y-141312714D01*
X134890380Y-141027000D02*
X133890380Y-141027000D01*
X134033238Y-141122238D01*
X134128476Y-141217476D01*
X134176095Y-141312714D01*
%TD*%
M02*
