M48
; DRILL file {KiCad (5.1.10)-1} date 08/06/21 22:34:00
; FORMAT={3:3/ absolute / metric / suppress leading zeros}
; #@! TF.CreationDate,2021-08-06T22:34:00+03:00
; #@! TF.GenerationSoftware,Kicad,Pcbnew,(5.1.10)-1
FMAT,2
METRIC,TZ
T1C0.400
T2C0.500
T3C0.750
T4C0.800
T5C1.000
T6C1.200
T7C1.500
T8C1.800
T9C3.200
T10C1.100
T11C1.600
%
G90
G05
T1
X71120Y-120904
X92456Y-89408
X92456Y-99568
X92456Y-107188
X96520Y-116332
X97536Y-90424
X97536Y-97536
X98552Y-105664
X104140Y-84328
X104140Y-87376
X104140Y-90424
X104648Y-105156
X105156Y-91948
X105156Y-96520
X105664Y-93980
X109728Y-85344
X111252Y-85852
X112268Y-89916
X112268Y-99568
X113279Y-88387
X116840Y-102108
X117856Y-144272
X118364Y-106680
X118877Y-101087
X119380Y-133604
X121920Y-99568
X122428Y-134112
X122936Y-98552
X123444Y-91948
X123444Y-138176
X124968Y-94996
X125476Y-138176
X128524Y-101600
X132588Y-94996
X135128Y-139192
X142748Y-115316
X144780Y-134620
X148844Y-115824
X149860Y-137160
X152400Y-106680
T2
X69228Y-83312
X69228Y-143256
X69931Y-81615
X69931Y-85009
X69931Y-141559
X69931Y-144953
X71628Y-80912
X71628Y-85712
X71628Y-140856
X71628Y-145656
X73325Y-81615
X73325Y-85009
X73325Y-141559
X73325Y-144953
X74028Y-83312
X74028Y-143256
X150000Y-83312
X150000Y-143256
X150703Y-81615
X150703Y-85009
X150703Y-141559
X150703Y-144953
X152400Y-80912
X152400Y-85712
X152400Y-140856
X152400Y-145656
X154097Y-81615
X154097Y-85009
X154097Y-141559
X154097Y-144953
X154800Y-83312
X154800Y-143256
T3
X128016Y-106172
X129286Y-106172
X130556Y-106172
T4
X138684Y-143764
X141184Y-143764
T5
X77724Y-122428
X77724Y-140462
X101092Y-146304
X102616Y-111252
X102616Y-113792
X102616Y-116332
X103632Y-146304
X107696Y-98044
X107696Y-100584
X107696Y-103124
X107696Y-105664
X107696Y-108204
X107696Y-110744
X107696Y-113284
X107696Y-115824
X110998Y-128270
X110998Y-134874
X123444Y-110744
X123444Y-113284
X126492Y-84328
X129032Y-84328
X131572Y-84328
X134112Y-84328
X135636Y-91440
X135636Y-93940
X135636Y-96440
X146812Y-130556
X149352Y-130556
X150136Y-91440
X150136Y-96440
T6
X115824Y-121920
X143764Y-121920
T7
X130048Y-131572
X135498Y-131572
X140948Y-131572
T8
X130683Y-111887
X135683Y-111887
T9
X71628Y-83312
X71628Y-143256
X152400Y-83312
X152400Y-143256
T10
X91471Y-93656
T11
X91471Y-114656
T7
G00X142486Y-88340
M15
G01X143786Y-88340
M16
G05
G00X142486Y-99540
M15
G01X143786Y-99540
M16
G05
T0
M30
