%TF.GenerationSoftware,KiCad,Pcbnew,(5.1.10)-1*%
%TF.CreationDate,2021-08-06T22:34:04+03:00*%
%TF.ProjectId,electronic_load,656c6563-7472-46f6-9e69-635f6c6f6164,rev?*%
%TF.SameCoordinates,Original*%
%TF.FileFunction,Copper,L1,Top*%
%TF.FilePolarity,Positive*%
%FSLAX46Y46*%
G04 Gerber Fmt 4.6, Leading zero omitted, Abs format (unit mm)*
G04 Created by KiCad (PCBNEW (5.1.10)-1) date 2021-08-06 22:34:04*
%MOMM*%
%LPD*%
G01*
G04 APERTURE LIST*
%TA.AperFunction,ComponentPad*%
%ADD10C,1.700000*%
%TD*%
%TA.AperFunction,ComponentPad*%
%ADD11C,1.600000*%
%TD*%
%TA.AperFunction,ComponentPad*%
%ADD12R,1.600000X1.600000*%
%TD*%
%TA.AperFunction,ComponentPad*%
%ADD13O,1.700000X1.700000*%
%TD*%
%TA.AperFunction,ComponentPad*%
%ADD14R,1.700000X1.700000*%
%TD*%
%TA.AperFunction,SMDPad,CuDef*%
%ADD15R,0.700000X0.600000*%
%TD*%
%TA.AperFunction,SMDPad,CuDef*%
%ADD16R,0.600000X0.700000*%
%TD*%
%TA.AperFunction,SMDPad,CuDef*%
%ADD17R,1.000000X1.000000*%
%TD*%
%TA.AperFunction,ComponentPad*%
%ADD18R,1.050000X1.500000*%
%TD*%
%TA.AperFunction,ComponentPad*%
%ADD19O,1.050000X1.500000*%
%TD*%
%TA.AperFunction,ComponentPad*%
%ADD20C,0.800000*%
%TD*%
%TA.AperFunction,ComponentPad*%
%ADD21C,6.400000*%
%TD*%
%TA.AperFunction,SMDPad,CuDef*%
%ADD22R,2.800000X1.500000*%
%TD*%
%TA.AperFunction,SMDPad,CuDef*%
%ADD23R,1.500000X0.700000*%
%TD*%
%TA.AperFunction,SMDPad,CuDef*%
%ADD24R,1.500000X1.000000*%
%TD*%
%TA.AperFunction,SMDPad,CuDef*%
%ADD25R,2.500000X1.800000*%
%TD*%
%TA.AperFunction,ComponentPad*%
%ADD26C,3.000000*%
%TD*%
%TA.AperFunction,ComponentPad*%
%ADD27R,3.000000X3.000000*%
%TD*%
%TA.AperFunction,SMDPad,CuDef*%
%ADD28R,2.000000X2.400000*%
%TD*%
%TA.AperFunction,SMDPad,CuDef*%
%ADD29R,1.500000X2.000000*%
%TD*%
%TA.AperFunction,SMDPad,CuDef*%
%ADD30R,3.800000X2.000000*%
%TD*%
%TA.AperFunction,ComponentPad*%
%ADD31R,2.000000X2.000000*%
%TD*%
%TA.AperFunction,ComponentPad*%
%ADD32C,2.000000*%
%TD*%
%TA.AperFunction,ComponentPad*%
%ADD33R,3.200000X2.000000*%
%TD*%
%TA.AperFunction,ComponentPad*%
%ADD34O,2.400000X2.400000*%
%TD*%
%TA.AperFunction,ComponentPad*%
%ADD35C,2.400000*%
%TD*%
%TA.AperFunction,ComponentPad*%
%ADD36O,2.500000X4.500000*%
%TD*%
%TA.AperFunction,ComponentPad*%
%ADD37R,2.500000X4.500000*%
%TD*%
%TA.AperFunction,ViaPad*%
%ADD38C,0.800000*%
%TD*%
%TA.AperFunction,Conductor*%
%ADD39C,0.250000*%
%TD*%
%TA.AperFunction,Conductor*%
%ADD40C,0.500000*%
%TD*%
%TA.AperFunction,Conductor*%
%ADD41C,1.000000*%
%TD*%
%TA.AperFunction,Conductor*%
%ADD42C,2.000000*%
%TD*%
G04 APERTURE END LIST*
D10*
%TO.P,PS1,3*%
%TO.N,GND*%
X77724000Y-140462000D03*
%TO.P,PS1,4*%
%TO.N,+12V*%
X77724000Y-122428000D03*
%TO.P,PS1,1*%
%TO.N,Net-(J6-Pad2)*%
X110998000Y-134874000D03*
%TO.P,PS1,2*%
%TO.N,Net-(J6-Pad1)*%
X110998000Y-128270000D03*
%TD*%
%TO.P,R8,2*%
%TO.N,ADC_I*%
%TA.AperFunction,SMDPad,CuDef*%
G36*
G01*
X117928500Y-136769001D02*
X117928500Y-135518999D01*
G75*
G02*
X118178499Y-135269000I249999J0D01*
G01*
X118803501Y-135269000D01*
G75*
G02*
X119053500Y-135518999I0J-249999D01*
G01*
X119053500Y-136769001D01*
G75*
G02*
X118803501Y-137019000I-249999J0D01*
G01*
X118178499Y-137019000D01*
G75*
G02*
X117928500Y-136769001I0J249999D01*
G01*
G37*
%TD.AperFunction*%
%TO.P,R8,1*%
%TO.N,Net-(R7-Pad2)*%
%TA.AperFunction,SMDPad,CuDef*%
G36*
G01*
X115003500Y-136769001D02*
X115003500Y-135518999D01*
G75*
G02*
X115253499Y-135269000I249999J0D01*
G01*
X115878501Y-135269000D01*
G75*
G02*
X116128500Y-135518999I0J-249999D01*
G01*
X116128500Y-136769001D01*
G75*
G02*
X115878501Y-137019000I-249999J0D01*
G01*
X115253499Y-137019000D01*
G75*
G02*
X115003500Y-136769001I0J249999D01*
G01*
G37*
%TD.AperFunction*%
%TD*%
D11*
%TO.P,C17,2*%
%TO.N,GND*%
X141184000Y-143764000D03*
D12*
%TO.P,C17,1*%
%TO.N,+12V*%
X138684000Y-143764000D03*
%TD*%
D13*
%TO.P,J7,2*%
%TO.N,Net-(J7-Pad2)*%
X123444000Y-110744000D03*
D14*
%TO.P,J7,1*%
%TO.N,+12V*%
X123444000Y-113284000D03*
%TD*%
D15*
%TO.P,D3,1*%
%TO.N,ADC_U*%
X107696000Y-89600000D03*
%TO.P,D3,2*%
%TO.N,GND*%
X107696000Y-88200000D03*
%TD*%
D16*
%TO.P,D2,1*%
%TO.N,ADC_I*%
X111252000Y-87884000D03*
%TO.P,D2,2*%
%TO.N,GND*%
X109852000Y-87884000D03*
%TD*%
D17*
%TO.P,TP7,1*%
%TO.N,Net-(Q2-Pad2)*%
X121920000Y-107188000D03*
%TD*%
%TO.P,TP6,1*%
%TO.N,SD_detected*%
X95504000Y-87376000D03*
%TD*%
%TO.P,TP5,1*%
%TO.N,ADC_U*%
X109728000Y-89916000D03*
%TD*%
%TO.P,TP4,1*%
%TO.N,DAC_OUT*%
X118364000Y-115824000D03*
%TD*%
%TO.P,TP3,1*%
%TO.N,+3V3*%
X106680000Y-85852000D03*
%TD*%
%TO.P,TP2,1*%
%TO.N,ADC_I*%
X117348000Y-133604000D03*
%TD*%
%TO.P,TP1,1*%
%TO.N,+12V*%
X146812000Y-139192000D03*
%TD*%
D18*
%TO.P,Q2,1*%
%TO.N,Net-(J7-Pad2)*%
X128016000Y-106172000D03*
D19*
%TO.P,Q2,3*%
%TO.N,GND*%
X130556000Y-106172000D03*
%TO.P,Q2,2*%
%TO.N,Net-(Q2-Pad2)*%
X129286000Y-106172000D03*
%TD*%
%TO.P,R23,2*%
%TO.N,GND*%
%TA.AperFunction,SMDPad,CuDef*%
G36*
G01*
X125593001Y-102162500D02*
X124342999Y-102162500D01*
G75*
G02*
X124093000Y-101912501I0J249999D01*
G01*
X124093000Y-101287499D01*
G75*
G02*
X124342999Y-101037500I249999J0D01*
G01*
X125593001Y-101037500D01*
G75*
G02*
X125843000Y-101287499I0J-249999D01*
G01*
X125843000Y-101912501D01*
G75*
G02*
X125593001Y-102162500I-249999J0D01*
G01*
G37*
%TD.AperFunction*%
%TO.P,R23,1*%
%TO.N,Net-(Q2-Pad2)*%
%TA.AperFunction,SMDPad,CuDef*%
G36*
G01*
X125593001Y-105087500D02*
X124342999Y-105087500D01*
G75*
G02*
X124093000Y-104837501I0J249999D01*
G01*
X124093000Y-104212499D01*
G75*
G02*
X124342999Y-103962500I249999J0D01*
G01*
X125593001Y-103962500D01*
G75*
G02*
X125843000Y-104212499I0J-249999D01*
G01*
X125843000Y-104837501D01*
G75*
G02*
X125593001Y-105087500I-249999J0D01*
G01*
G37*
%TD.AperFunction*%
%TD*%
%TO.P,R12,2*%
%TO.N,FAN*%
%TA.AperFunction,SMDPad,CuDef*%
G36*
G01*
X122545001Y-102162500D02*
X121294999Y-102162500D01*
G75*
G02*
X121045000Y-101912501I0J249999D01*
G01*
X121045000Y-101287499D01*
G75*
G02*
X121294999Y-101037500I249999J0D01*
G01*
X122545001Y-101037500D01*
G75*
G02*
X122795000Y-101287499I0J-249999D01*
G01*
X122795000Y-101912501D01*
G75*
G02*
X122545001Y-102162500I-249999J0D01*
G01*
G37*
%TD.AperFunction*%
%TO.P,R12,1*%
%TO.N,Net-(Q2-Pad2)*%
%TA.AperFunction,SMDPad,CuDef*%
G36*
G01*
X122545001Y-105087500D02*
X121294999Y-105087500D01*
G75*
G02*
X121045000Y-104837501I0J249999D01*
G01*
X121045000Y-104212499D01*
G75*
G02*
X121294999Y-103962500I249999J0D01*
G01*
X122545001Y-103962500D01*
G75*
G02*
X122795000Y-104212499I0J-249999D01*
G01*
X122795000Y-104837501D01*
G75*
G02*
X122545001Y-105087500I-249999J0D01*
G01*
G37*
%TD.AperFunction*%
%TD*%
D13*
%TO.P,J6,2*%
%TO.N,Net-(J6-Pad2)*%
X103632000Y-146304000D03*
D14*
%TO.P,J6,1*%
%TO.N,Net-(J6-Pad1)*%
X101092000Y-146304000D03*
%TD*%
D20*
%TO.P,H2,1*%
%TO.N,GND*%
X154097056Y-81614944D03*
X152400000Y-80912000D03*
X150702944Y-81614944D03*
X150000000Y-83312000D03*
X150702944Y-85009056D03*
X152400000Y-85712000D03*
X154097056Y-85009056D03*
X154800000Y-83312000D03*
D21*
X152400000Y-83312000D03*
%TD*%
%TO.P,C3,2*%
%TO.N,GND*%
%TA.AperFunction,SMDPad,CuDef*%
G36*
G01*
X147436000Y-134096999D02*
X147436000Y-135397001D01*
G75*
G02*
X147186001Y-135647000I-249999J0D01*
G01*
X146535999Y-135647000D01*
G75*
G02*
X146286000Y-135397001I0J249999D01*
G01*
X146286000Y-134096999D01*
G75*
G02*
X146535999Y-133847000I249999J0D01*
G01*
X147186001Y-133847000D01*
G75*
G02*
X147436000Y-134096999I0J-249999D01*
G01*
G37*
%TD.AperFunction*%
%TO.P,C3,1*%
%TO.N,+12V*%
%TA.AperFunction,SMDPad,CuDef*%
G36*
G01*
X150386000Y-134096999D02*
X150386000Y-135397001D01*
G75*
G02*
X150136001Y-135647000I-249999J0D01*
G01*
X149485999Y-135647000D01*
G75*
G02*
X149236000Y-135397001I0J249999D01*
G01*
X149236000Y-134096999D01*
G75*
G02*
X149485999Y-133847000I249999J0D01*
G01*
X150136001Y-133847000D01*
G75*
G02*
X150386000Y-134096999I0J-249999D01*
G01*
G37*
%TD.AperFunction*%
%TD*%
D22*
%TO.P,J4,12*%
%TO.N,GND*%
X92471000Y-91506000D03*
X70971000Y-91506000D03*
X70971000Y-118806000D03*
X92471000Y-116606000D03*
D23*
%TO.P,J4,11*%
%TO.N,Net-(J4-Pad11)*%
X94271000Y-92901000D03*
%TO.P,J4,10*%
%TO.N,SD_detected*%
X94271000Y-94101000D03*
D24*
%TO.P,J4,9*%
%TO.N,SD_CS*%
X94271000Y-114531000D03*
%TO.P,J4,8*%
%TO.N,Net-(J4-Pad8)*%
X94271000Y-95401000D03*
%TO.P,J4,7*%
%TO.N,SD_MISO*%
X94271000Y-97101000D03*
%TO.P,J4,6*%
%TO.N,GND*%
X94271000Y-99531000D03*
%TO.P,J4,5*%
%TO.N,SD_SCK*%
X94271000Y-102031000D03*
%TO.P,J4,4*%
%TO.N,+3V3*%
X94271000Y-104531000D03*
%TO.P,J4,3*%
%TO.N,GND*%
X94271000Y-107031000D03*
%TO.P,J4,2*%
%TO.N,SD_MOSI*%
X94271000Y-109531000D03*
%TO.P,J4,1*%
%TO.N,SD_CS*%
X94271000Y-112031000D03*
%TD*%
%TO.P,C5,2*%
%TO.N,GND*%
%TA.AperFunction,SMDPad,CuDef*%
G36*
G01*
X118529000Y-82661999D02*
X118529000Y-83962001D01*
G75*
G02*
X118279001Y-84212000I-249999J0D01*
G01*
X117628999Y-84212000D01*
G75*
G02*
X117379000Y-83962001I0J249999D01*
G01*
X117379000Y-82661999D01*
G75*
G02*
X117628999Y-82412000I249999J0D01*
G01*
X118279001Y-82412000D01*
G75*
G02*
X118529000Y-82661999I0J-249999D01*
G01*
G37*
%TD.AperFunction*%
%TO.P,C5,1*%
%TO.N,Net-(C5-Pad1)*%
%TA.AperFunction,SMDPad,CuDef*%
G36*
G01*
X121479000Y-82661999D02*
X121479000Y-83962001D01*
G75*
G02*
X121229001Y-84212000I-249999J0D01*
G01*
X120578999Y-84212000D01*
G75*
G02*
X120329000Y-83962001I0J249999D01*
G01*
X120329000Y-82661999D01*
G75*
G02*
X120578999Y-82412000I249999J0D01*
G01*
X121229001Y-82412000D01*
G75*
G02*
X121479000Y-82661999I0J-249999D01*
G01*
G37*
%TD.AperFunction*%
%TD*%
D17*
%TO.P,REF\u002A\u002A,1*%
%TO.N,N/C*%
X149352000Y-111760000D03*
%TD*%
D13*
%TO.P,U3,8*%
%TO.N,GND*%
X107696000Y-115824000D03*
%TO.P,U3,7*%
%TO.N,Net-(J3-Pad2)*%
X107696000Y-113284000D03*
%TO.P,U3,6*%
%TO.N,+3V3*%
X107696000Y-110744000D03*
%TO.P,U3,5*%
%TO.N,CLK_DISPLAY*%
X107696000Y-108204000D03*
%TO.P,U3,4*%
%TO.N,DIN*%
X107696000Y-105664000D03*
%TO.P,U3,3*%
%TO.N,DC*%
X107696000Y-103124000D03*
%TO.P,U3,2*%
%TO.N,GND*%
X107696000Y-100584000D03*
D14*
%TO.P,U3,1*%
%TO.N,RST_DISPLAY*%
X107696000Y-98044000D03*
%TD*%
D25*
%TO.P,D1,2*%
%TO.N,V_in*%
X144208000Y-104648000D03*
%TO.P,D1,1*%
%TO.N,GND*%
X140208000Y-104648000D03*
%TD*%
D26*
%TO.P,J2,2*%
%TO.N,V_in*%
X135683000Y-111887000D03*
D27*
%TO.P,J2,1*%
%TO.N,GND*%
X130683000Y-111887000D03*
%TD*%
D28*
%TO.P,Y1,2*%
%TO.N,Net-(C6-Pad1)*%
X117022000Y-86868000D03*
%TO.P,Y1,1*%
%TO.N,Net-(C5-Pad1)*%
X120722000Y-86868000D03*
%TD*%
%TO.P,U5,8*%
%TO.N,DAC_OUT*%
%TA.AperFunction,SMDPad,CuDef*%
G36*
G01*
X119103000Y-108180000D02*
X119403000Y-108180000D01*
G75*
G02*
X119553000Y-108330000I0J-150000D01*
G01*
X119553000Y-109980000D01*
G75*
G02*
X119403000Y-110130000I-150000J0D01*
G01*
X119103000Y-110130000D01*
G75*
G02*
X118953000Y-109980000I0J150000D01*
G01*
X118953000Y-108330000D01*
G75*
G02*
X119103000Y-108180000I150000J0D01*
G01*
G37*
%TD.AperFunction*%
%TO.P,U5,7*%
%TO.N,GND*%
%TA.AperFunction,SMDPad,CuDef*%
G36*
G01*
X117833000Y-108180000D02*
X118133000Y-108180000D01*
G75*
G02*
X118283000Y-108330000I0J-150000D01*
G01*
X118283000Y-109980000D01*
G75*
G02*
X118133000Y-110130000I-150000J0D01*
G01*
X117833000Y-110130000D01*
G75*
G02*
X117683000Y-109980000I0J150000D01*
G01*
X117683000Y-108330000D01*
G75*
G02*
X117833000Y-108180000I150000J0D01*
G01*
G37*
%TD.AperFunction*%
%TO.P,U5,6*%
%TO.N,+3V3*%
%TA.AperFunction,SMDPad,CuDef*%
G36*
G01*
X116563000Y-108180000D02*
X116863000Y-108180000D01*
G75*
G02*
X117013000Y-108330000I0J-150000D01*
G01*
X117013000Y-109980000D01*
G75*
G02*
X116863000Y-110130000I-150000J0D01*
G01*
X116563000Y-110130000D01*
G75*
G02*
X116413000Y-109980000I0J150000D01*
G01*
X116413000Y-108330000D01*
G75*
G02*
X116563000Y-108180000I150000J0D01*
G01*
G37*
%TD.AperFunction*%
%TO.P,U5,5*%
%TO.N,LDAC*%
%TA.AperFunction,SMDPad,CuDef*%
G36*
G01*
X115293000Y-108180000D02*
X115593000Y-108180000D01*
G75*
G02*
X115743000Y-108330000I0J-150000D01*
G01*
X115743000Y-109980000D01*
G75*
G02*
X115593000Y-110130000I-150000J0D01*
G01*
X115293000Y-110130000D01*
G75*
G02*
X115143000Y-109980000I0J150000D01*
G01*
X115143000Y-108330000D01*
G75*
G02*
X115293000Y-108180000I150000J0D01*
G01*
G37*
%TD.AperFunction*%
%TO.P,U5,4*%
%TO.N,DAC_MOSI*%
%TA.AperFunction,SMDPad,CuDef*%
G36*
G01*
X115293000Y-103230000D02*
X115593000Y-103230000D01*
G75*
G02*
X115743000Y-103380000I0J-150000D01*
G01*
X115743000Y-105030000D01*
G75*
G02*
X115593000Y-105180000I-150000J0D01*
G01*
X115293000Y-105180000D01*
G75*
G02*
X115143000Y-105030000I0J150000D01*
G01*
X115143000Y-103380000D01*
G75*
G02*
X115293000Y-103230000I150000J0D01*
G01*
G37*
%TD.AperFunction*%
%TO.P,U5,3*%
%TO.N,DAC_SCK*%
%TA.AperFunction,SMDPad,CuDef*%
G36*
G01*
X116563000Y-103230000D02*
X116863000Y-103230000D01*
G75*
G02*
X117013000Y-103380000I0J-150000D01*
G01*
X117013000Y-105030000D01*
G75*
G02*
X116863000Y-105180000I-150000J0D01*
G01*
X116563000Y-105180000D01*
G75*
G02*
X116413000Y-105030000I0J150000D01*
G01*
X116413000Y-103380000D01*
G75*
G02*
X116563000Y-103230000I150000J0D01*
G01*
G37*
%TD.AperFunction*%
%TO.P,U5,2*%
%TO.N,DAC_CS*%
%TA.AperFunction,SMDPad,CuDef*%
G36*
G01*
X117833000Y-103230000D02*
X118133000Y-103230000D01*
G75*
G02*
X118283000Y-103380000I0J-150000D01*
G01*
X118283000Y-105030000D01*
G75*
G02*
X118133000Y-105180000I-150000J0D01*
G01*
X117833000Y-105180000D01*
G75*
G02*
X117683000Y-105030000I0J150000D01*
G01*
X117683000Y-103380000D01*
G75*
G02*
X117833000Y-103230000I150000J0D01*
G01*
G37*
%TD.AperFunction*%
%TO.P,U5,1*%
%TO.N,+3V3*%
%TA.AperFunction,SMDPad,CuDef*%
G36*
G01*
X119103000Y-103230000D02*
X119403000Y-103230000D01*
G75*
G02*
X119553000Y-103380000I0J-150000D01*
G01*
X119553000Y-105030000D01*
G75*
G02*
X119403000Y-105180000I-150000J0D01*
G01*
X119103000Y-105180000D01*
G75*
G02*
X118953000Y-105030000I0J150000D01*
G01*
X118953000Y-103380000D01*
G75*
G02*
X119103000Y-103230000I150000J0D01*
G01*
G37*
%TD.AperFunction*%
%TD*%
D29*
%TO.P,U4,1*%
%TO.N,GND*%
X148068000Y-125984000D03*
%TO.P,U4,3*%
%TO.N,+12V*%
X152668000Y-125984000D03*
%TO.P,U4,2*%
%TO.N,+3V3*%
X150368000Y-125984000D03*
D30*
X150368000Y-119684000D03*
%TD*%
%TO.P,U2,48*%
%TO.N,+3V3*%
%TA.AperFunction,SMDPad,CuDef*%
G36*
G01*
X120749500Y-91838000D02*
X122074500Y-91838000D01*
G75*
G02*
X122149500Y-91913000I0J-75000D01*
G01*
X122149500Y-92063000D01*
G75*
G02*
X122074500Y-92138000I-75000J0D01*
G01*
X120749500Y-92138000D01*
G75*
G02*
X120674500Y-92063000I0J75000D01*
G01*
X120674500Y-91913000D01*
G75*
G02*
X120749500Y-91838000I75000J0D01*
G01*
G37*
%TD.AperFunction*%
%TO.P,U2,47*%
%TO.N,GND*%
%TA.AperFunction,SMDPad,CuDef*%
G36*
G01*
X120749500Y-92338000D02*
X122074500Y-92338000D01*
G75*
G02*
X122149500Y-92413000I0J-75000D01*
G01*
X122149500Y-92563000D01*
G75*
G02*
X122074500Y-92638000I-75000J0D01*
G01*
X120749500Y-92638000D01*
G75*
G02*
X120674500Y-92563000I0J75000D01*
G01*
X120674500Y-92413000D01*
G75*
G02*
X120749500Y-92338000I75000J0D01*
G01*
G37*
%TD.AperFunction*%
%TO.P,U2,46*%
%TO.N,Net-(U2-Pad46)*%
%TA.AperFunction,SMDPad,CuDef*%
G36*
G01*
X120749500Y-92838000D02*
X122074500Y-92838000D01*
G75*
G02*
X122149500Y-92913000I0J-75000D01*
G01*
X122149500Y-93063000D01*
G75*
G02*
X122074500Y-93138000I-75000J0D01*
G01*
X120749500Y-93138000D01*
G75*
G02*
X120674500Y-93063000I0J75000D01*
G01*
X120674500Y-92913000D01*
G75*
G02*
X120749500Y-92838000I75000J0D01*
G01*
G37*
%TD.AperFunction*%
%TO.P,U2,45*%
%TO.N,Net-(U2-Pad45)*%
%TA.AperFunction,SMDPad,CuDef*%
G36*
G01*
X120749500Y-93338000D02*
X122074500Y-93338000D01*
G75*
G02*
X122149500Y-93413000I0J-75000D01*
G01*
X122149500Y-93563000D01*
G75*
G02*
X122074500Y-93638000I-75000J0D01*
G01*
X120749500Y-93638000D01*
G75*
G02*
X120674500Y-93563000I0J75000D01*
G01*
X120674500Y-93413000D01*
G75*
G02*
X120749500Y-93338000I75000J0D01*
G01*
G37*
%TD.AperFunction*%
%TO.P,U2,44*%
%TO.N,Net-(U2-Pad44)*%
%TA.AperFunction,SMDPad,CuDef*%
G36*
G01*
X120749500Y-93838000D02*
X122074500Y-93838000D01*
G75*
G02*
X122149500Y-93913000I0J-75000D01*
G01*
X122149500Y-94063000D01*
G75*
G02*
X122074500Y-94138000I-75000J0D01*
G01*
X120749500Y-94138000D01*
G75*
G02*
X120674500Y-94063000I0J75000D01*
G01*
X120674500Y-93913000D01*
G75*
G02*
X120749500Y-93838000I75000J0D01*
G01*
G37*
%TD.AperFunction*%
%TO.P,U2,43*%
%TO.N,ENC_1*%
%TA.AperFunction,SMDPad,CuDef*%
G36*
G01*
X120749500Y-94338000D02*
X122074500Y-94338000D01*
G75*
G02*
X122149500Y-94413000I0J-75000D01*
G01*
X122149500Y-94563000D01*
G75*
G02*
X122074500Y-94638000I-75000J0D01*
G01*
X120749500Y-94638000D01*
G75*
G02*
X120674500Y-94563000I0J75000D01*
G01*
X120674500Y-94413000D01*
G75*
G02*
X120749500Y-94338000I75000J0D01*
G01*
G37*
%TD.AperFunction*%
%TO.P,U2,42*%
%TO.N,ENC_2*%
%TA.AperFunction,SMDPad,CuDef*%
G36*
G01*
X120749500Y-94838000D02*
X122074500Y-94838000D01*
G75*
G02*
X122149500Y-94913000I0J-75000D01*
G01*
X122149500Y-95063000D01*
G75*
G02*
X122074500Y-95138000I-75000J0D01*
G01*
X120749500Y-95138000D01*
G75*
G02*
X120674500Y-95063000I0J75000D01*
G01*
X120674500Y-94913000D01*
G75*
G02*
X120749500Y-94838000I75000J0D01*
G01*
G37*
%TD.AperFunction*%
%TO.P,U2,41*%
%TO.N,ENC_Button*%
%TA.AperFunction,SMDPad,CuDef*%
G36*
G01*
X120749500Y-95338000D02*
X122074500Y-95338000D01*
G75*
G02*
X122149500Y-95413000I0J-75000D01*
G01*
X122149500Y-95563000D01*
G75*
G02*
X122074500Y-95638000I-75000J0D01*
G01*
X120749500Y-95638000D01*
G75*
G02*
X120674500Y-95563000I0J75000D01*
G01*
X120674500Y-95413000D01*
G75*
G02*
X120749500Y-95338000I75000J0D01*
G01*
G37*
%TD.AperFunction*%
%TO.P,U2,40*%
%TO.N,Net-(U2-Pad40)*%
%TA.AperFunction,SMDPad,CuDef*%
G36*
G01*
X120749500Y-95838000D02*
X122074500Y-95838000D01*
G75*
G02*
X122149500Y-95913000I0J-75000D01*
G01*
X122149500Y-96063000D01*
G75*
G02*
X122074500Y-96138000I-75000J0D01*
G01*
X120749500Y-96138000D01*
G75*
G02*
X120674500Y-96063000I0J75000D01*
G01*
X120674500Y-95913000D01*
G75*
G02*
X120749500Y-95838000I75000J0D01*
G01*
G37*
%TD.AperFunction*%
%TO.P,U2,39*%
%TO.N,Net-(U2-Pad39)*%
%TA.AperFunction,SMDPad,CuDef*%
G36*
G01*
X120749500Y-96338000D02*
X122074500Y-96338000D01*
G75*
G02*
X122149500Y-96413000I0J-75000D01*
G01*
X122149500Y-96563000D01*
G75*
G02*
X122074500Y-96638000I-75000J0D01*
G01*
X120749500Y-96638000D01*
G75*
G02*
X120674500Y-96563000I0J75000D01*
G01*
X120674500Y-96413000D01*
G75*
G02*
X120749500Y-96338000I75000J0D01*
G01*
G37*
%TD.AperFunction*%
%TO.P,U2,38*%
%TO.N,FAN*%
%TA.AperFunction,SMDPad,CuDef*%
G36*
G01*
X120749500Y-96838000D02*
X122074500Y-96838000D01*
G75*
G02*
X122149500Y-96913000I0J-75000D01*
G01*
X122149500Y-97063000D01*
G75*
G02*
X122074500Y-97138000I-75000J0D01*
G01*
X120749500Y-97138000D01*
G75*
G02*
X120674500Y-97063000I0J75000D01*
G01*
X120674500Y-96913000D01*
G75*
G02*
X120749500Y-96838000I75000J0D01*
G01*
G37*
%TD.AperFunction*%
%TO.P,U2,37*%
%TO.N,SWCLK*%
%TA.AperFunction,SMDPad,CuDef*%
G36*
G01*
X120749500Y-97338000D02*
X122074500Y-97338000D01*
G75*
G02*
X122149500Y-97413000I0J-75000D01*
G01*
X122149500Y-97563000D01*
G75*
G02*
X122074500Y-97638000I-75000J0D01*
G01*
X120749500Y-97638000D01*
G75*
G02*
X120674500Y-97563000I0J75000D01*
G01*
X120674500Y-97413000D01*
G75*
G02*
X120749500Y-97338000I75000J0D01*
G01*
G37*
%TD.AperFunction*%
%TO.P,U2,36*%
%TO.N,+3V3*%
%TA.AperFunction,SMDPad,CuDef*%
G36*
G01*
X119924500Y-98163000D02*
X120074500Y-98163000D01*
G75*
G02*
X120149500Y-98238000I0J-75000D01*
G01*
X120149500Y-99563000D01*
G75*
G02*
X120074500Y-99638000I-75000J0D01*
G01*
X119924500Y-99638000D01*
G75*
G02*
X119849500Y-99563000I0J75000D01*
G01*
X119849500Y-98238000D01*
G75*
G02*
X119924500Y-98163000I75000J0D01*
G01*
G37*
%TD.AperFunction*%
%TO.P,U2,35*%
%TO.N,GND*%
%TA.AperFunction,SMDPad,CuDef*%
G36*
G01*
X119424500Y-98163000D02*
X119574500Y-98163000D01*
G75*
G02*
X119649500Y-98238000I0J-75000D01*
G01*
X119649500Y-99563000D01*
G75*
G02*
X119574500Y-99638000I-75000J0D01*
G01*
X119424500Y-99638000D01*
G75*
G02*
X119349500Y-99563000I0J75000D01*
G01*
X119349500Y-98238000D01*
G75*
G02*
X119424500Y-98163000I75000J0D01*
G01*
G37*
%TD.AperFunction*%
%TO.P,U2,34*%
%TO.N,SWDIO*%
%TA.AperFunction,SMDPad,CuDef*%
G36*
G01*
X118924500Y-98163000D02*
X119074500Y-98163000D01*
G75*
G02*
X119149500Y-98238000I0J-75000D01*
G01*
X119149500Y-99563000D01*
G75*
G02*
X119074500Y-99638000I-75000J0D01*
G01*
X118924500Y-99638000D01*
G75*
G02*
X118849500Y-99563000I0J75000D01*
G01*
X118849500Y-98238000D01*
G75*
G02*
X118924500Y-98163000I75000J0D01*
G01*
G37*
%TD.AperFunction*%
%TO.P,U2,33*%
%TO.N,Net-(U2-Pad33)*%
%TA.AperFunction,SMDPad,CuDef*%
G36*
G01*
X118424500Y-98163000D02*
X118574500Y-98163000D01*
G75*
G02*
X118649500Y-98238000I0J-75000D01*
G01*
X118649500Y-99563000D01*
G75*
G02*
X118574500Y-99638000I-75000J0D01*
G01*
X118424500Y-99638000D01*
G75*
G02*
X118349500Y-99563000I0J75000D01*
G01*
X118349500Y-98238000D01*
G75*
G02*
X118424500Y-98163000I75000J0D01*
G01*
G37*
%TD.AperFunction*%
%TO.P,U2,32*%
%TO.N,Net-(U2-Pad32)*%
%TA.AperFunction,SMDPad,CuDef*%
G36*
G01*
X117924500Y-98163000D02*
X118074500Y-98163000D01*
G75*
G02*
X118149500Y-98238000I0J-75000D01*
G01*
X118149500Y-99563000D01*
G75*
G02*
X118074500Y-99638000I-75000J0D01*
G01*
X117924500Y-99638000D01*
G75*
G02*
X117849500Y-99563000I0J75000D01*
G01*
X117849500Y-98238000D01*
G75*
G02*
X117924500Y-98163000I75000J0D01*
G01*
G37*
%TD.AperFunction*%
%TO.P,U2,31*%
%TO.N,Net-(U2-Pad31)*%
%TA.AperFunction,SMDPad,CuDef*%
G36*
G01*
X117424500Y-98163000D02*
X117574500Y-98163000D01*
G75*
G02*
X117649500Y-98238000I0J-75000D01*
G01*
X117649500Y-99563000D01*
G75*
G02*
X117574500Y-99638000I-75000J0D01*
G01*
X117424500Y-99638000D01*
G75*
G02*
X117349500Y-99563000I0J75000D01*
G01*
X117349500Y-98238000D01*
G75*
G02*
X117424500Y-98163000I75000J0D01*
G01*
G37*
%TD.AperFunction*%
%TO.P,U2,30*%
%TO.N,Net-(U2-Pad30)*%
%TA.AperFunction,SMDPad,CuDef*%
G36*
G01*
X116924500Y-98163000D02*
X117074500Y-98163000D01*
G75*
G02*
X117149500Y-98238000I0J-75000D01*
G01*
X117149500Y-99563000D01*
G75*
G02*
X117074500Y-99638000I-75000J0D01*
G01*
X116924500Y-99638000D01*
G75*
G02*
X116849500Y-99563000I0J75000D01*
G01*
X116849500Y-98238000D01*
G75*
G02*
X116924500Y-98163000I75000J0D01*
G01*
G37*
%TD.AperFunction*%
%TO.P,U2,29*%
%TO.N,LDAC*%
%TA.AperFunction,SMDPad,CuDef*%
G36*
G01*
X116424500Y-98163000D02*
X116574500Y-98163000D01*
G75*
G02*
X116649500Y-98238000I0J-75000D01*
G01*
X116649500Y-99563000D01*
G75*
G02*
X116574500Y-99638000I-75000J0D01*
G01*
X116424500Y-99638000D01*
G75*
G02*
X116349500Y-99563000I0J75000D01*
G01*
X116349500Y-98238000D01*
G75*
G02*
X116424500Y-98163000I75000J0D01*
G01*
G37*
%TD.AperFunction*%
%TO.P,U2,28*%
%TO.N,DAC_MOSI*%
%TA.AperFunction,SMDPad,CuDef*%
G36*
G01*
X115924500Y-98163000D02*
X116074500Y-98163000D01*
G75*
G02*
X116149500Y-98238000I0J-75000D01*
G01*
X116149500Y-99563000D01*
G75*
G02*
X116074500Y-99638000I-75000J0D01*
G01*
X115924500Y-99638000D01*
G75*
G02*
X115849500Y-99563000I0J75000D01*
G01*
X115849500Y-98238000D01*
G75*
G02*
X115924500Y-98163000I75000J0D01*
G01*
G37*
%TD.AperFunction*%
%TO.P,U2,27*%
%TO.N,Net-(U2-Pad27)*%
%TA.AperFunction,SMDPad,CuDef*%
G36*
G01*
X115424500Y-98163000D02*
X115574500Y-98163000D01*
G75*
G02*
X115649500Y-98238000I0J-75000D01*
G01*
X115649500Y-99563000D01*
G75*
G02*
X115574500Y-99638000I-75000J0D01*
G01*
X115424500Y-99638000D01*
G75*
G02*
X115349500Y-99563000I0J75000D01*
G01*
X115349500Y-98238000D01*
G75*
G02*
X115424500Y-98163000I75000J0D01*
G01*
G37*
%TD.AperFunction*%
%TO.P,U2,26*%
%TO.N,DAC_SCK*%
%TA.AperFunction,SMDPad,CuDef*%
G36*
G01*
X114924500Y-98163000D02*
X115074500Y-98163000D01*
G75*
G02*
X115149500Y-98238000I0J-75000D01*
G01*
X115149500Y-99563000D01*
G75*
G02*
X115074500Y-99638000I-75000J0D01*
G01*
X114924500Y-99638000D01*
G75*
G02*
X114849500Y-99563000I0J75000D01*
G01*
X114849500Y-98238000D01*
G75*
G02*
X114924500Y-98163000I75000J0D01*
G01*
G37*
%TD.AperFunction*%
%TO.P,U2,25*%
%TO.N,DAC_CS*%
%TA.AperFunction,SMDPad,CuDef*%
G36*
G01*
X114424500Y-98163000D02*
X114574500Y-98163000D01*
G75*
G02*
X114649500Y-98238000I0J-75000D01*
G01*
X114649500Y-99563000D01*
G75*
G02*
X114574500Y-99638000I-75000J0D01*
G01*
X114424500Y-99638000D01*
G75*
G02*
X114349500Y-99563000I0J75000D01*
G01*
X114349500Y-98238000D01*
G75*
G02*
X114424500Y-98163000I75000J0D01*
G01*
G37*
%TD.AperFunction*%
%TO.P,U2,24*%
%TO.N,+3V3*%
%TA.AperFunction,SMDPad,CuDef*%
G36*
G01*
X112424500Y-97338000D02*
X113749500Y-97338000D01*
G75*
G02*
X113824500Y-97413000I0J-75000D01*
G01*
X113824500Y-97563000D01*
G75*
G02*
X113749500Y-97638000I-75000J0D01*
G01*
X112424500Y-97638000D01*
G75*
G02*
X112349500Y-97563000I0J75000D01*
G01*
X112349500Y-97413000D01*
G75*
G02*
X112424500Y-97338000I75000J0D01*
G01*
G37*
%TD.AperFunction*%
%TO.P,U2,23*%
%TO.N,GND*%
%TA.AperFunction,SMDPad,CuDef*%
G36*
G01*
X112424500Y-96838000D02*
X113749500Y-96838000D01*
G75*
G02*
X113824500Y-96913000I0J-75000D01*
G01*
X113824500Y-97063000D01*
G75*
G02*
X113749500Y-97138000I-75000J0D01*
G01*
X112424500Y-97138000D01*
G75*
G02*
X112349500Y-97063000I0J75000D01*
G01*
X112349500Y-96913000D01*
G75*
G02*
X112424500Y-96838000I75000J0D01*
G01*
G37*
%TD.AperFunction*%
%TO.P,U2,22*%
%TO.N,Net-(U2-Pad22)*%
%TA.AperFunction,SMDPad,CuDef*%
G36*
G01*
X112424500Y-96338000D02*
X113749500Y-96338000D01*
G75*
G02*
X113824500Y-96413000I0J-75000D01*
G01*
X113824500Y-96563000D01*
G75*
G02*
X113749500Y-96638000I-75000J0D01*
G01*
X112424500Y-96638000D01*
G75*
G02*
X112349500Y-96563000I0J75000D01*
G01*
X112349500Y-96413000D01*
G75*
G02*
X112424500Y-96338000I75000J0D01*
G01*
G37*
%TD.AperFunction*%
%TO.P,U2,21*%
%TO.N,CLK_DISPLAY*%
%TA.AperFunction,SMDPad,CuDef*%
G36*
G01*
X112424500Y-95838000D02*
X113749500Y-95838000D01*
G75*
G02*
X113824500Y-95913000I0J-75000D01*
G01*
X113824500Y-96063000D01*
G75*
G02*
X113749500Y-96138000I-75000J0D01*
G01*
X112424500Y-96138000D01*
G75*
G02*
X112349500Y-96063000I0J75000D01*
G01*
X112349500Y-95913000D01*
G75*
G02*
X112424500Y-95838000I75000J0D01*
G01*
G37*
%TD.AperFunction*%
%TO.P,U2,20*%
%TO.N,DIN*%
%TA.AperFunction,SMDPad,CuDef*%
G36*
G01*
X112424500Y-95338000D02*
X113749500Y-95338000D01*
G75*
G02*
X113824500Y-95413000I0J-75000D01*
G01*
X113824500Y-95563000D01*
G75*
G02*
X113749500Y-95638000I-75000J0D01*
G01*
X112424500Y-95638000D01*
G75*
G02*
X112349500Y-95563000I0J75000D01*
G01*
X112349500Y-95413000D01*
G75*
G02*
X112424500Y-95338000I75000J0D01*
G01*
G37*
%TD.AperFunction*%
%TO.P,U2,19*%
%TO.N,DC*%
%TA.AperFunction,SMDPad,CuDef*%
G36*
G01*
X112424500Y-94838000D02*
X113749500Y-94838000D01*
G75*
G02*
X113824500Y-94913000I0J-75000D01*
G01*
X113824500Y-95063000D01*
G75*
G02*
X113749500Y-95138000I-75000J0D01*
G01*
X112424500Y-95138000D01*
G75*
G02*
X112349500Y-95063000I0J75000D01*
G01*
X112349500Y-94913000D01*
G75*
G02*
X112424500Y-94838000I75000J0D01*
G01*
G37*
%TD.AperFunction*%
%TO.P,U2,18*%
%TO.N,RST_DISPLAY*%
%TA.AperFunction,SMDPad,CuDef*%
G36*
G01*
X112424500Y-94338000D02*
X113749500Y-94338000D01*
G75*
G02*
X113824500Y-94413000I0J-75000D01*
G01*
X113824500Y-94563000D01*
G75*
G02*
X113749500Y-94638000I-75000J0D01*
G01*
X112424500Y-94638000D01*
G75*
G02*
X112349500Y-94563000I0J75000D01*
G01*
X112349500Y-94413000D01*
G75*
G02*
X112424500Y-94338000I75000J0D01*
G01*
G37*
%TD.AperFunction*%
%TO.P,U2,17*%
%TO.N,SD_MOSI*%
%TA.AperFunction,SMDPad,CuDef*%
G36*
G01*
X112424500Y-93838000D02*
X113749500Y-93838000D01*
G75*
G02*
X113824500Y-93913000I0J-75000D01*
G01*
X113824500Y-94063000D01*
G75*
G02*
X113749500Y-94138000I-75000J0D01*
G01*
X112424500Y-94138000D01*
G75*
G02*
X112349500Y-94063000I0J75000D01*
G01*
X112349500Y-93913000D01*
G75*
G02*
X112424500Y-93838000I75000J0D01*
G01*
G37*
%TD.AperFunction*%
%TO.P,U2,16*%
%TO.N,SD_MISO*%
%TA.AperFunction,SMDPad,CuDef*%
G36*
G01*
X112424500Y-93338000D02*
X113749500Y-93338000D01*
G75*
G02*
X113824500Y-93413000I0J-75000D01*
G01*
X113824500Y-93563000D01*
G75*
G02*
X113749500Y-93638000I-75000J0D01*
G01*
X112424500Y-93638000D01*
G75*
G02*
X112349500Y-93563000I0J75000D01*
G01*
X112349500Y-93413000D01*
G75*
G02*
X112424500Y-93338000I75000J0D01*
G01*
G37*
%TD.AperFunction*%
%TO.P,U2,15*%
%TO.N,SD_SCK*%
%TA.AperFunction,SMDPad,CuDef*%
G36*
G01*
X112424500Y-92838000D02*
X113749500Y-92838000D01*
G75*
G02*
X113824500Y-92913000I0J-75000D01*
G01*
X113824500Y-93063000D01*
G75*
G02*
X113749500Y-93138000I-75000J0D01*
G01*
X112424500Y-93138000D01*
G75*
G02*
X112349500Y-93063000I0J75000D01*
G01*
X112349500Y-92913000D01*
G75*
G02*
X112424500Y-92838000I75000J0D01*
G01*
G37*
%TD.AperFunction*%
%TO.P,U2,14*%
%TO.N,SD_CS*%
%TA.AperFunction,SMDPad,CuDef*%
G36*
G01*
X112424500Y-92338000D02*
X113749500Y-92338000D01*
G75*
G02*
X113824500Y-92413000I0J-75000D01*
G01*
X113824500Y-92563000D01*
G75*
G02*
X113749500Y-92638000I-75000J0D01*
G01*
X112424500Y-92638000D01*
G75*
G02*
X112349500Y-92563000I0J75000D01*
G01*
X112349500Y-92413000D01*
G75*
G02*
X112424500Y-92338000I75000J0D01*
G01*
G37*
%TD.AperFunction*%
%TO.P,U2,13*%
%TO.N,SD_detected*%
%TA.AperFunction,SMDPad,CuDef*%
G36*
G01*
X112424500Y-91838000D02*
X113749500Y-91838000D01*
G75*
G02*
X113824500Y-91913000I0J-75000D01*
G01*
X113824500Y-92063000D01*
G75*
G02*
X113749500Y-92138000I-75000J0D01*
G01*
X112424500Y-92138000D01*
G75*
G02*
X112349500Y-92063000I0J75000D01*
G01*
X112349500Y-91913000D01*
G75*
G02*
X112424500Y-91838000I75000J0D01*
G01*
G37*
%TD.AperFunction*%
%TO.P,U2,12*%
%TO.N,Net-(U2-Pad12)*%
%TA.AperFunction,SMDPad,CuDef*%
G36*
G01*
X114424500Y-89838000D02*
X114574500Y-89838000D01*
G75*
G02*
X114649500Y-89913000I0J-75000D01*
G01*
X114649500Y-91238000D01*
G75*
G02*
X114574500Y-91313000I-75000J0D01*
G01*
X114424500Y-91313000D01*
G75*
G02*
X114349500Y-91238000I0J75000D01*
G01*
X114349500Y-89913000D01*
G75*
G02*
X114424500Y-89838000I75000J0D01*
G01*
G37*
%TD.AperFunction*%
%TO.P,U2,11*%
%TO.N,ADC_U*%
%TA.AperFunction,SMDPad,CuDef*%
G36*
G01*
X114924500Y-89838000D02*
X115074500Y-89838000D01*
G75*
G02*
X115149500Y-89913000I0J-75000D01*
G01*
X115149500Y-91238000D01*
G75*
G02*
X115074500Y-91313000I-75000J0D01*
G01*
X114924500Y-91313000D01*
G75*
G02*
X114849500Y-91238000I0J75000D01*
G01*
X114849500Y-89913000D01*
G75*
G02*
X114924500Y-89838000I75000J0D01*
G01*
G37*
%TD.AperFunction*%
%TO.P,U2,10*%
%TO.N,ADC_I*%
%TA.AperFunction,SMDPad,CuDef*%
G36*
G01*
X115424500Y-89838000D02*
X115574500Y-89838000D01*
G75*
G02*
X115649500Y-89913000I0J-75000D01*
G01*
X115649500Y-91238000D01*
G75*
G02*
X115574500Y-91313000I-75000J0D01*
G01*
X115424500Y-91313000D01*
G75*
G02*
X115349500Y-91238000I0J75000D01*
G01*
X115349500Y-89913000D01*
G75*
G02*
X115424500Y-89838000I75000J0D01*
G01*
G37*
%TD.AperFunction*%
%TO.P,U2,9*%
%TO.N,+3V3*%
%TA.AperFunction,SMDPad,CuDef*%
G36*
G01*
X115924500Y-89838000D02*
X116074500Y-89838000D01*
G75*
G02*
X116149500Y-89913000I0J-75000D01*
G01*
X116149500Y-91238000D01*
G75*
G02*
X116074500Y-91313000I-75000J0D01*
G01*
X115924500Y-91313000D01*
G75*
G02*
X115849500Y-91238000I0J75000D01*
G01*
X115849500Y-89913000D01*
G75*
G02*
X115924500Y-89838000I75000J0D01*
G01*
G37*
%TD.AperFunction*%
%TO.P,U2,8*%
%TO.N,GND*%
%TA.AperFunction,SMDPad,CuDef*%
G36*
G01*
X116424500Y-89838000D02*
X116574500Y-89838000D01*
G75*
G02*
X116649500Y-89913000I0J-75000D01*
G01*
X116649500Y-91238000D01*
G75*
G02*
X116574500Y-91313000I-75000J0D01*
G01*
X116424500Y-91313000D01*
G75*
G02*
X116349500Y-91238000I0J75000D01*
G01*
X116349500Y-89913000D01*
G75*
G02*
X116424500Y-89838000I75000J0D01*
G01*
G37*
%TD.AperFunction*%
%TO.P,U2,7*%
%TO.N,Net-(U2-Pad7)*%
%TA.AperFunction,SMDPad,CuDef*%
G36*
G01*
X116924500Y-89838000D02*
X117074500Y-89838000D01*
G75*
G02*
X117149500Y-89913000I0J-75000D01*
G01*
X117149500Y-91238000D01*
G75*
G02*
X117074500Y-91313000I-75000J0D01*
G01*
X116924500Y-91313000D01*
G75*
G02*
X116849500Y-91238000I0J75000D01*
G01*
X116849500Y-89913000D01*
G75*
G02*
X116924500Y-89838000I75000J0D01*
G01*
G37*
%TD.AperFunction*%
%TO.P,U2,6*%
%TO.N,Net-(C6-Pad1)*%
%TA.AperFunction,SMDPad,CuDef*%
G36*
G01*
X117424500Y-89838000D02*
X117574500Y-89838000D01*
G75*
G02*
X117649500Y-89913000I0J-75000D01*
G01*
X117649500Y-91238000D01*
G75*
G02*
X117574500Y-91313000I-75000J0D01*
G01*
X117424500Y-91313000D01*
G75*
G02*
X117349500Y-91238000I0J75000D01*
G01*
X117349500Y-89913000D01*
G75*
G02*
X117424500Y-89838000I75000J0D01*
G01*
G37*
%TD.AperFunction*%
%TO.P,U2,5*%
%TO.N,Net-(C5-Pad1)*%
%TA.AperFunction,SMDPad,CuDef*%
G36*
G01*
X117924500Y-89838000D02*
X118074500Y-89838000D01*
G75*
G02*
X118149500Y-89913000I0J-75000D01*
G01*
X118149500Y-91238000D01*
G75*
G02*
X118074500Y-91313000I-75000J0D01*
G01*
X117924500Y-91313000D01*
G75*
G02*
X117849500Y-91238000I0J75000D01*
G01*
X117849500Y-89913000D01*
G75*
G02*
X117924500Y-89838000I75000J0D01*
G01*
G37*
%TD.AperFunction*%
%TO.P,U2,4*%
%TO.N,Net-(U2-Pad4)*%
%TA.AperFunction,SMDPad,CuDef*%
G36*
G01*
X118424500Y-89838000D02*
X118574500Y-89838000D01*
G75*
G02*
X118649500Y-89913000I0J-75000D01*
G01*
X118649500Y-91238000D01*
G75*
G02*
X118574500Y-91313000I-75000J0D01*
G01*
X118424500Y-91313000D01*
G75*
G02*
X118349500Y-91238000I0J75000D01*
G01*
X118349500Y-89913000D01*
G75*
G02*
X118424500Y-89838000I75000J0D01*
G01*
G37*
%TD.AperFunction*%
%TO.P,U2,3*%
%TO.N,Net-(U2-Pad3)*%
%TA.AperFunction,SMDPad,CuDef*%
G36*
G01*
X118924500Y-89838000D02*
X119074500Y-89838000D01*
G75*
G02*
X119149500Y-89913000I0J-75000D01*
G01*
X119149500Y-91238000D01*
G75*
G02*
X119074500Y-91313000I-75000J0D01*
G01*
X118924500Y-91313000D01*
G75*
G02*
X118849500Y-91238000I0J75000D01*
G01*
X118849500Y-89913000D01*
G75*
G02*
X118924500Y-89838000I75000J0D01*
G01*
G37*
%TD.AperFunction*%
%TO.P,U2,2*%
%TO.N,Net-(U2-Pad2)*%
%TA.AperFunction,SMDPad,CuDef*%
G36*
G01*
X119424500Y-89838000D02*
X119574500Y-89838000D01*
G75*
G02*
X119649500Y-89913000I0J-75000D01*
G01*
X119649500Y-91238000D01*
G75*
G02*
X119574500Y-91313000I-75000J0D01*
G01*
X119424500Y-91313000D01*
G75*
G02*
X119349500Y-91238000I0J75000D01*
G01*
X119349500Y-89913000D01*
G75*
G02*
X119424500Y-89838000I75000J0D01*
G01*
G37*
%TD.AperFunction*%
%TO.P,U2,1*%
%TO.N,Net-(U2-Pad1)*%
%TA.AperFunction,SMDPad,CuDef*%
G36*
G01*
X119924500Y-89838000D02*
X120074500Y-89838000D01*
G75*
G02*
X120149500Y-89913000I0J-75000D01*
G01*
X120149500Y-91238000D01*
G75*
G02*
X120074500Y-91313000I-75000J0D01*
G01*
X119924500Y-91313000D01*
G75*
G02*
X119849500Y-91238000I0J75000D01*
G01*
X119849500Y-89913000D01*
G75*
G02*
X119924500Y-89838000I75000J0D01*
G01*
G37*
%TD.AperFunction*%
%TD*%
%TO.P,U1,8*%
%TO.N,+12V*%
%TA.AperFunction,SMDPad,CuDef*%
G36*
G01*
X124501000Y-140612000D02*
X124501000Y-140312000D01*
G75*
G02*
X124651000Y-140162000I150000J0D01*
G01*
X126301000Y-140162000D01*
G75*
G02*
X126451000Y-140312000I0J-150000D01*
G01*
X126451000Y-140612000D01*
G75*
G02*
X126301000Y-140762000I-150000J0D01*
G01*
X124651000Y-140762000D01*
G75*
G02*
X124501000Y-140612000I0J150000D01*
G01*
G37*
%TD.AperFunction*%
%TO.P,U1,7*%
%TO.N,Net-(C1-Pad1)*%
%TA.AperFunction,SMDPad,CuDef*%
G36*
G01*
X124501000Y-141882000D02*
X124501000Y-141582000D01*
G75*
G02*
X124651000Y-141432000I150000J0D01*
G01*
X126301000Y-141432000D01*
G75*
G02*
X126451000Y-141582000I0J-150000D01*
G01*
X126451000Y-141882000D01*
G75*
G02*
X126301000Y-142032000I-150000J0D01*
G01*
X124651000Y-142032000D01*
G75*
G02*
X124501000Y-141882000I0J150000D01*
G01*
G37*
%TD.AperFunction*%
%TO.P,U1,6*%
%TO.N,Net-(C1-Pad2)*%
%TA.AperFunction,SMDPad,CuDef*%
G36*
G01*
X124501000Y-143152000D02*
X124501000Y-142852000D01*
G75*
G02*
X124651000Y-142702000I150000J0D01*
G01*
X126301000Y-142702000D01*
G75*
G02*
X126451000Y-142852000I0J-150000D01*
G01*
X126451000Y-143152000D01*
G75*
G02*
X126301000Y-143302000I-150000J0D01*
G01*
X124651000Y-143302000D01*
G75*
G02*
X124501000Y-143152000I0J150000D01*
G01*
G37*
%TD.AperFunction*%
%TO.P,U1,5*%
%TO.N,DAC_OUT*%
%TA.AperFunction,SMDPad,CuDef*%
G36*
G01*
X124501000Y-144422000D02*
X124501000Y-144122000D01*
G75*
G02*
X124651000Y-143972000I150000J0D01*
G01*
X126301000Y-143972000D01*
G75*
G02*
X126451000Y-144122000I0J-150000D01*
G01*
X126451000Y-144422000D01*
G75*
G02*
X126301000Y-144572000I-150000J0D01*
G01*
X124651000Y-144572000D01*
G75*
G02*
X124501000Y-144422000I0J150000D01*
G01*
G37*
%TD.AperFunction*%
%TO.P,U1,4*%
%TO.N,GND*%
%TA.AperFunction,SMDPad,CuDef*%
G36*
G01*
X119551000Y-144422000D02*
X119551000Y-144122000D01*
G75*
G02*
X119701000Y-143972000I150000J0D01*
G01*
X121351000Y-143972000D01*
G75*
G02*
X121501000Y-144122000I0J-150000D01*
G01*
X121501000Y-144422000D01*
G75*
G02*
X121351000Y-144572000I-150000J0D01*
G01*
X119701000Y-144572000D01*
G75*
G02*
X119551000Y-144422000I0J150000D01*
G01*
G37*
%TD.AperFunction*%
%TO.P,U1,3*%
%TO.N,Net-(R10-Pad1)*%
%TA.AperFunction,SMDPad,CuDef*%
G36*
G01*
X119551000Y-143152000D02*
X119551000Y-142852000D01*
G75*
G02*
X119701000Y-142702000I150000J0D01*
G01*
X121351000Y-142702000D01*
G75*
G02*
X121501000Y-142852000I0J-150000D01*
G01*
X121501000Y-143152000D01*
G75*
G02*
X121351000Y-143302000I-150000J0D01*
G01*
X119701000Y-143302000D01*
G75*
G02*
X119551000Y-143152000I0J150000D01*
G01*
G37*
%TD.AperFunction*%
%TO.P,U1,2*%
%TO.N,Net-(R6-Pad2)*%
%TA.AperFunction,SMDPad,CuDef*%
G36*
G01*
X119551000Y-141882000D02*
X119551000Y-141582000D01*
G75*
G02*
X119701000Y-141432000I150000J0D01*
G01*
X121351000Y-141432000D01*
G75*
G02*
X121501000Y-141582000I0J-150000D01*
G01*
X121501000Y-141882000D01*
G75*
G02*
X121351000Y-142032000I-150000J0D01*
G01*
X119701000Y-142032000D01*
G75*
G02*
X119551000Y-141882000I0J150000D01*
G01*
G37*
%TD.AperFunction*%
%TO.P,U1,1*%
%TO.N,Net-(R7-Pad2)*%
%TA.AperFunction,SMDPad,CuDef*%
G36*
G01*
X119551000Y-140612000D02*
X119551000Y-140312000D01*
G75*
G02*
X119701000Y-140162000I150000J0D01*
G01*
X121351000Y-140162000D01*
G75*
G02*
X121501000Y-140312000I0J-150000D01*
G01*
X121501000Y-140612000D01*
G75*
G02*
X121351000Y-140762000I-150000J0D01*
G01*
X119701000Y-140762000D01*
G75*
G02*
X119551000Y-140612000I0J150000D01*
G01*
G37*
%TD.AperFunction*%
%TD*%
D31*
%TO.P,SW1,A*%
%TO.N,ENC_1*%
X135636000Y-91440000D03*
D32*
%TO.P,SW1,C*%
%TO.N,GND*%
X135636000Y-93940000D03*
%TO.P,SW1,B*%
%TO.N,ENC_2*%
X135636000Y-96440000D03*
D33*
%TO.P,SW1,MP*%
%TO.N,N/C*%
X143136000Y-88340000D03*
X143136000Y-99540000D03*
D32*
%TO.P,SW1,S2*%
%TO.N,GND*%
X150136000Y-91440000D03*
%TO.P,SW1,S1*%
%TO.N,ENC_Button*%
X150136000Y-96440000D03*
%TD*%
%TO.P,R22,2*%
%TO.N,Net-(C12-Pad1)*%
%TA.AperFunction,SMDPad,CuDef*%
G36*
G01*
X150250999Y-104470500D02*
X151501001Y-104470500D01*
G75*
G02*
X151751000Y-104720499I0J-249999D01*
G01*
X151751000Y-105345501D01*
G75*
G02*
X151501001Y-105595500I-249999J0D01*
G01*
X150250999Y-105595500D01*
G75*
G02*
X150001000Y-105345501I0J249999D01*
G01*
X150001000Y-104720499D01*
G75*
G02*
X150250999Y-104470500I249999J0D01*
G01*
G37*
%TD.AperFunction*%
%TO.P,R22,1*%
%TO.N,ENC_Button*%
%TA.AperFunction,SMDPad,CuDef*%
G36*
G01*
X150250999Y-101545500D02*
X151501001Y-101545500D01*
G75*
G02*
X151751000Y-101795499I0J-249999D01*
G01*
X151751000Y-102420501D01*
G75*
G02*
X151501001Y-102670500I-249999J0D01*
G01*
X150250999Y-102670500D01*
G75*
G02*
X150001000Y-102420501I0J249999D01*
G01*
X150001000Y-101795499D01*
G75*
G02*
X150250999Y-101545500I249999J0D01*
G01*
G37*
%TD.AperFunction*%
%TD*%
%TO.P,R21,2*%
%TO.N,ENC_Button*%
%TA.AperFunction,SMDPad,CuDef*%
G36*
G01*
X148961001Y-102670500D02*
X147710999Y-102670500D01*
G75*
G02*
X147461000Y-102420501I0J249999D01*
G01*
X147461000Y-101795499D01*
G75*
G02*
X147710999Y-101545500I249999J0D01*
G01*
X148961001Y-101545500D01*
G75*
G02*
X149211000Y-101795499I0J-249999D01*
G01*
X149211000Y-102420501D01*
G75*
G02*
X148961001Y-102670500I-249999J0D01*
G01*
G37*
%TD.AperFunction*%
%TO.P,R21,1*%
%TO.N,+3V3*%
%TA.AperFunction,SMDPad,CuDef*%
G36*
G01*
X148961001Y-105595500D02*
X147710999Y-105595500D01*
G75*
G02*
X147461000Y-105345501I0J249999D01*
G01*
X147461000Y-104720499D01*
G75*
G02*
X147710999Y-104470500I249999J0D01*
G01*
X148961001Y-104470500D01*
G75*
G02*
X149211000Y-104720499I0J-249999D01*
G01*
X149211000Y-105345501D01*
G75*
G02*
X148961001Y-105595500I-249999J0D01*
G01*
G37*
%TD.AperFunction*%
%TD*%
%TO.P,R20,2*%
%TO.N,ENC_1*%
%TA.AperFunction,SMDPad,CuDef*%
G36*
G01*
X127625001Y-90601500D02*
X126374999Y-90601500D01*
G75*
G02*
X126125000Y-90351501I0J249999D01*
G01*
X126125000Y-89726499D01*
G75*
G02*
X126374999Y-89476500I249999J0D01*
G01*
X127625001Y-89476500D01*
G75*
G02*
X127875000Y-89726499I0J-249999D01*
G01*
X127875000Y-90351501D01*
G75*
G02*
X127625001Y-90601500I-249999J0D01*
G01*
G37*
%TD.AperFunction*%
%TO.P,R20,1*%
%TO.N,+3V3*%
%TA.AperFunction,SMDPad,CuDef*%
G36*
G01*
X127625001Y-93526500D02*
X126374999Y-93526500D01*
G75*
G02*
X126125000Y-93276501I0J249999D01*
G01*
X126125000Y-92651499D01*
G75*
G02*
X126374999Y-92401500I249999J0D01*
G01*
X127625001Y-92401500D01*
G75*
G02*
X127875000Y-92651499I0J-249999D01*
G01*
X127875000Y-93276501D01*
G75*
G02*
X127625001Y-93526500I-249999J0D01*
G01*
G37*
%TD.AperFunction*%
%TD*%
%TO.P,R19,2*%
%TO.N,ENC_2*%
%TA.AperFunction,SMDPad,CuDef*%
G36*
G01*
X126374999Y-98497500D02*
X127625001Y-98497500D01*
G75*
G02*
X127875000Y-98747499I0J-249999D01*
G01*
X127875000Y-99372501D01*
G75*
G02*
X127625001Y-99622500I-249999J0D01*
G01*
X126374999Y-99622500D01*
G75*
G02*
X126125000Y-99372501I0J249999D01*
G01*
X126125000Y-98747499D01*
G75*
G02*
X126374999Y-98497500I249999J0D01*
G01*
G37*
%TD.AperFunction*%
%TO.P,R19,1*%
%TO.N,+3V3*%
%TA.AperFunction,SMDPad,CuDef*%
G36*
G01*
X126374999Y-95572500D02*
X127625001Y-95572500D01*
G75*
G02*
X127875000Y-95822499I0J-249999D01*
G01*
X127875000Y-96447501D01*
G75*
G02*
X127625001Y-96697500I-249999J0D01*
G01*
X126374999Y-96697500D01*
G75*
G02*
X126125000Y-96447501I0J249999D01*
G01*
X126125000Y-95822499D01*
G75*
G02*
X126374999Y-95572500I249999J0D01*
G01*
G37*
%TD.AperFunction*%
%TD*%
%TO.P,R18,2*%
%TO.N,SD_SCK*%
%TA.AperFunction,SMDPad,CuDef*%
G36*
G01*
X100253500Y-93862999D02*
X100253500Y-95113001D01*
G75*
G02*
X100003501Y-95363000I-249999J0D01*
G01*
X99378499Y-95363000D01*
G75*
G02*
X99128500Y-95113001I0J249999D01*
G01*
X99128500Y-93862999D01*
G75*
G02*
X99378499Y-93613000I249999J0D01*
G01*
X100003501Y-93613000D01*
G75*
G02*
X100253500Y-93862999I0J-249999D01*
G01*
G37*
%TD.AperFunction*%
%TO.P,R18,1*%
%TO.N,+3V3*%
%TA.AperFunction,SMDPad,CuDef*%
G36*
G01*
X103178500Y-93862999D02*
X103178500Y-95113001D01*
G75*
G02*
X102928501Y-95363000I-249999J0D01*
G01*
X102303499Y-95363000D01*
G75*
G02*
X102053500Y-95113001I0J249999D01*
G01*
X102053500Y-93862999D01*
G75*
G02*
X102303499Y-93613000I249999J0D01*
G01*
X102928501Y-93613000D01*
G75*
G02*
X103178500Y-93862999I0J-249999D01*
G01*
G37*
%TD.AperFunction*%
%TD*%
%TO.P,R17,2*%
%TO.N,SD_MISO*%
%TA.AperFunction,SMDPad,CuDef*%
G36*
G01*
X100253500Y-89798999D02*
X100253500Y-91049001D01*
G75*
G02*
X100003501Y-91299000I-249999J0D01*
G01*
X99378499Y-91299000D01*
G75*
G02*
X99128500Y-91049001I0J249999D01*
G01*
X99128500Y-89798999D01*
G75*
G02*
X99378499Y-89549000I249999J0D01*
G01*
X100003501Y-89549000D01*
G75*
G02*
X100253500Y-89798999I0J-249999D01*
G01*
G37*
%TD.AperFunction*%
%TO.P,R17,1*%
%TO.N,+3V3*%
%TA.AperFunction,SMDPad,CuDef*%
G36*
G01*
X103178500Y-89798999D02*
X103178500Y-91049001D01*
G75*
G02*
X102928501Y-91299000I-249999J0D01*
G01*
X102303499Y-91299000D01*
G75*
G02*
X102053500Y-91049001I0J249999D01*
G01*
X102053500Y-89798999D01*
G75*
G02*
X102303499Y-89549000I249999J0D01*
G01*
X102928501Y-89549000D01*
G75*
G02*
X103178500Y-89798999I0J-249999D01*
G01*
G37*
%TD.AperFunction*%
%TD*%
%TO.P,R16,2*%
%TO.N,SD_MOSI*%
%TA.AperFunction,SMDPad,CuDef*%
G36*
G01*
X100253500Y-102498999D02*
X100253500Y-103749001D01*
G75*
G02*
X100003501Y-103999000I-249999J0D01*
G01*
X99378499Y-103999000D01*
G75*
G02*
X99128500Y-103749001I0J249999D01*
G01*
X99128500Y-102498999D01*
G75*
G02*
X99378499Y-102249000I249999J0D01*
G01*
X100003501Y-102249000D01*
G75*
G02*
X100253500Y-102498999I0J-249999D01*
G01*
G37*
%TD.AperFunction*%
%TO.P,R16,1*%
%TO.N,+3V3*%
%TA.AperFunction,SMDPad,CuDef*%
G36*
G01*
X103178500Y-102498999D02*
X103178500Y-103749001D01*
G75*
G02*
X102928501Y-103999000I-249999J0D01*
G01*
X102303499Y-103999000D01*
G75*
G02*
X102053500Y-103749001I0J249999D01*
G01*
X102053500Y-102498999D01*
G75*
G02*
X102303499Y-102249000I249999J0D01*
G01*
X102928501Y-102249000D01*
G75*
G02*
X103178500Y-102498999I0J-249999D01*
G01*
G37*
%TD.AperFunction*%
%TD*%
%TO.P,R15,2*%
%TO.N,SD_CS*%
%TA.AperFunction,SMDPad,CuDef*%
G36*
G01*
X100253500Y-107070999D02*
X100253500Y-108321001D01*
G75*
G02*
X100003501Y-108571000I-249999J0D01*
G01*
X99378499Y-108571000D01*
G75*
G02*
X99128500Y-108321001I0J249999D01*
G01*
X99128500Y-107070999D01*
G75*
G02*
X99378499Y-106821000I249999J0D01*
G01*
X100003501Y-106821000D01*
G75*
G02*
X100253500Y-107070999I0J-249999D01*
G01*
G37*
%TD.AperFunction*%
%TO.P,R15,1*%
%TO.N,+3V3*%
%TA.AperFunction,SMDPad,CuDef*%
G36*
G01*
X103178500Y-107070999D02*
X103178500Y-108321001D01*
G75*
G02*
X102928501Y-108571000I-249999J0D01*
G01*
X102303499Y-108571000D01*
G75*
G02*
X102053500Y-108321001I0J249999D01*
G01*
X102053500Y-107070999D01*
G75*
G02*
X102303499Y-106821000I249999J0D01*
G01*
X102928501Y-106821000D01*
G75*
G02*
X103178500Y-107070999I0J-249999D01*
G01*
G37*
%TD.AperFunction*%
%TD*%
%TO.P,R14,2*%
%TO.N,GND*%
%TA.AperFunction,SMDPad,CuDef*%
G36*
G01*
X145932999Y-114884500D02*
X147183001Y-114884500D01*
G75*
G02*
X147433000Y-115134499I0J-249999D01*
G01*
X147433000Y-115759501D01*
G75*
G02*
X147183001Y-116009500I-249999J0D01*
G01*
X145932999Y-116009500D01*
G75*
G02*
X145683000Y-115759501I0J249999D01*
G01*
X145683000Y-115134499D01*
G75*
G02*
X145932999Y-114884500I249999J0D01*
G01*
G37*
%TD.AperFunction*%
%TO.P,R14,1*%
%TO.N,ADC_U*%
%TA.AperFunction,SMDPad,CuDef*%
G36*
G01*
X145932999Y-111959500D02*
X147183001Y-111959500D01*
G75*
G02*
X147433000Y-112209499I0J-249999D01*
G01*
X147433000Y-112834501D01*
G75*
G02*
X147183001Y-113084500I-249999J0D01*
G01*
X145932999Y-113084500D01*
G75*
G02*
X145683000Y-112834501I0J249999D01*
G01*
X145683000Y-112209499D01*
G75*
G02*
X145932999Y-111959500I249999J0D01*
G01*
G37*
%TD.AperFunction*%
%TD*%
%TO.P,R13,2*%
%TO.N,ADC_U*%
%TA.AperFunction,SMDPad,CuDef*%
G36*
G01*
X142820500Y-113147001D02*
X142820500Y-111896999D01*
G75*
G02*
X143070499Y-111647000I249999J0D01*
G01*
X143695501Y-111647000D01*
G75*
G02*
X143945500Y-111896999I0J-249999D01*
G01*
X143945500Y-113147001D01*
G75*
G02*
X143695501Y-113397000I-249999J0D01*
G01*
X143070499Y-113397000D01*
G75*
G02*
X142820500Y-113147001I0J249999D01*
G01*
G37*
%TD.AperFunction*%
%TO.P,R13,1*%
%TO.N,V_in*%
%TA.AperFunction,SMDPad,CuDef*%
G36*
G01*
X139895500Y-113147001D02*
X139895500Y-111896999D01*
G75*
G02*
X140145499Y-111647000I249999J0D01*
G01*
X140770501Y-111647000D01*
G75*
G02*
X141020500Y-111896999I0J-249999D01*
G01*
X141020500Y-113147001D01*
G75*
G02*
X140770501Y-113397000I-249999J0D01*
G01*
X140145499Y-113397000D01*
G75*
G02*
X139895500Y-113147001I0J249999D01*
G01*
G37*
%TD.AperFunction*%
%TD*%
%TO.P,R11,2*%
%TO.N,SD_detected*%
%TA.AperFunction,SMDPad,CuDef*%
G36*
G01*
X100253500Y-86750999D02*
X100253500Y-88001001D01*
G75*
G02*
X100003501Y-88251000I-249999J0D01*
G01*
X99378499Y-88251000D01*
G75*
G02*
X99128500Y-88001001I0J249999D01*
G01*
X99128500Y-86750999D01*
G75*
G02*
X99378499Y-86501000I249999J0D01*
G01*
X100003501Y-86501000D01*
G75*
G02*
X100253500Y-86750999I0J-249999D01*
G01*
G37*
%TD.AperFunction*%
%TO.P,R11,1*%
%TO.N,+3V3*%
%TA.AperFunction,SMDPad,CuDef*%
G36*
G01*
X103178500Y-86750999D02*
X103178500Y-88001001D01*
G75*
G02*
X102928501Y-88251000I-249999J0D01*
G01*
X102303499Y-88251000D01*
G75*
G02*
X102053500Y-88001001I0J249999D01*
G01*
X102053500Y-86750999D01*
G75*
G02*
X102303499Y-86501000I249999J0D01*
G01*
X102928501Y-86501000D01*
G75*
G02*
X103178500Y-86750999I0J-249999D01*
G01*
G37*
%TD.AperFunction*%
%TD*%
%TO.P,R10,2*%
%TO.N,Net-(Q1-Pad3)*%
%TA.AperFunction,SMDPad,CuDef*%
G36*
G01*
X123328000Y-147437001D02*
X123328000Y-146186999D01*
G75*
G02*
X123577999Y-145937000I249999J0D01*
G01*
X124203001Y-145937000D01*
G75*
G02*
X124453000Y-146186999I0J-249999D01*
G01*
X124453000Y-147437001D01*
G75*
G02*
X124203001Y-147687000I-249999J0D01*
G01*
X123577999Y-147687000D01*
G75*
G02*
X123328000Y-147437001I0J249999D01*
G01*
G37*
%TD.AperFunction*%
%TO.P,R10,1*%
%TO.N,Net-(R10-Pad1)*%
%TA.AperFunction,SMDPad,CuDef*%
G36*
G01*
X120403000Y-147437001D02*
X120403000Y-146186999D01*
G75*
G02*
X120652999Y-145937000I249999J0D01*
G01*
X121278001Y-145937000D01*
G75*
G02*
X121528000Y-146186999I0J-249999D01*
G01*
X121528000Y-147437001D01*
G75*
G02*
X121278001Y-147687000I-249999J0D01*
G01*
X120652999Y-147687000D01*
G75*
G02*
X120403000Y-147437001I0J249999D01*
G01*
G37*
%TD.AperFunction*%
%TD*%
%TO.P,R9,2*%
%TO.N,Net-(R10-Pad1)*%
%TA.AperFunction,SMDPad,CuDef*%
G36*
G01*
X118248000Y-147437001D02*
X118248000Y-146186999D01*
G75*
G02*
X118497999Y-145937000I249999J0D01*
G01*
X119123001Y-145937000D01*
G75*
G02*
X119373000Y-146186999I0J-249999D01*
G01*
X119373000Y-147437001D01*
G75*
G02*
X119123001Y-147687000I-249999J0D01*
G01*
X118497999Y-147687000D01*
G75*
G02*
X118248000Y-147437001I0J249999D01*
G01*
G37*
%TD.AperFunction*%
%TO.P,R9,1*%
%TO.N,GND*%
%TA.AperFunction,SMDPad,CuDef*%
G36*
G01*
X115323000Y-147437001D02*
X115323000Y-146186999D01*
G75*
G02*
X115572999Y-145937000I249999J0D01*
G01*
X116198001Y-145937000D01*
G75*
G02*
X116448000Y-146186999I0J-249999D01*
G01*
X116448000Y-147437001D01*
G75*
G02*
X116198001Y-147687000I-249999J0D01*
G01*
X115572999Y-147687000D01*
G75*
G02*
X115323000Y-147437001I0J249999D01*
G01*
G37*
%TD.AperFunction*%
%TD*%
%TO.P,R7,2*%
%TO.N,Net-(R7-Pad2)*%
%TA.AperFunction,SMDPad,CuDef*%
G36*
G01*
X117801500Y-139309001D02*
X117801500Y-138058999D01*
G75*
G02*
X118051499Y-137809000I249999J0D01*
G01*
X118676501Y-137809000D01*
G75*
G02*
X118926500Y-138058999I0J-249999D01*
G01*
X118926500Y-139309001D01*
G75*
G02*
X118676501Y-139559000I-249999J0D01*
G01*
X118051499Y-139559000D01*
G75*
G02*
X117801500Y-139309001I0J249999D01*
G01*
G37*
%TD.AperFunction*%
%TO.P,R7,1*%
%TO.N,Net-(R6-Pad2)*%
%TA.AperFunction,SMDPad,CuDef*%
G36*
G01*
X114876500Y-139309001D02*
X114876500Y-138058999D01*
G75*
G02*
X115126499Y-137809000I249999J0D01*
G01*
X115751501Y-137809000D01*
G75*
G02*
X116001500Y-138058999I0J-249999D01*
G01*
X116001500Y-139309001D01*
G75*
G02*
X115751501Y-139559000I-249999J0D01*
G01*
X115126499Y-139559000D01*
G75*
G02*
X114876500Y-139309001I0J249999D01*
G01*
G37*
%TD.AperFunction*%
%TD*%
%TO.P,R6,2*%
%TO.N,Net-(R6-Pad2)*%
%TA.AperFunction,SMDPad,CuDef*%
G36*
G01*
X116449001Y-141909500D02*
X115198999Y-141909500D01*
G75*
G02*
X114949000Y-141659501I0J249999D01*
G01*
X114949000Y-141034499D01*
G75*
G02*
X115198999Y-140784500I249999J0D01*
G01*
X116449001Y-140784500D01*
G75*
G02*
X116699000Y-141034499I0J-249999D01*
G01*
X116699000Y-141659501D01*
G75*
G02*
X116449001Y-141909500I-249999J0D01*
G01*
G37*
%TD.AperFunction*%
%TO.P,R6,1*%
%TO.N,GND*%
%TA.AperFunction,SMDPad,CuDef*%
G36*
G01*
X116449001Y-144834500D02*
X115198999Y-144834500D01*
G75*
G02*
X114949000Y-144584501I0J249999D01*
G01*
X114949000Y-143959499D01*
G75*
G02*
X115198999Y-143709500I249999J0D01*
G01*
X116449001Y-143709500D01*
G75*
G02*
X116699000Y-143959499I0J-249999D01*
G01*
X116699000Y-144584501D01*
G75*
G02*
X116449001Y-144834500I-249999J0D01*
G01*
G37*
%TD.AperFunction*%
%TD*%
%TO.P,R5,2*%
%TO.N,Net-(Q1-Pad3)*%
%TA.AperFunction,SMDPad,CuDef*%
G36*
G01*
X130505500Y-146802001D02*
X130505500Y-145551999D01*
G75*
G02*
X130755499Y-145302000I249999J0D01*
G01*
X131380501Y-145302000D01*
G75*
G02*
X131630500Y-145551999I0J-249999D01*
G01*
X131630500Y-146802001D01*
G75*
G02*
X131380501Y-147052000I-249999J0D01*
G01*
X130755499Y-147052000D01*
G75*
G02*
X130505500Y-146802001I0J249999D01*
G01*
G37*
%TD.AperFunction*%
%TO.P,R5,1*%
%TO.N,Net-(C1-Pad2)*%
%TA.AperFunction,SMDPad,CuDef*%
G36*
G01*
X127580500Y-146802001D02*
X127580500Y-145551999D01*
G75*
G02*
X127830499Y-145302000I249999J0D01*
G01*
X128455501Y-145302000D01*
G75*
G02*
X128705500Y-145551999I0J-249999D01*
G01*
X128705500Y-146802001D01*
G75*
G02*
X128455501Y-147052000I-249999J0D01*
G01*
X127830499Y-147052000D01*
G75*
G02*
X127580500Y-146802001I0J249999D01*
G01*
G37*
%TD.AperFunction*%
%TD*%
%TO.P,R4,2*%
%TO.N,Net-(C1-Pad1)*%
%TA.AperFunction,SMDPad,CuDef*%
G36*
G01*
X130165001Y-140639500D02*
X128914999Y-140639500D01*
G75*
G02*
X128665000Y-140389501I0J249999D01*
G01*
X128665000Y-139764499D01*
G75*
G02*
X128914999Y-139514500I249999J0D01*
G01*
X130165001Y-139514500D01*
G75*
G02*
X130415000Y-139764499I0J-249999D01*
G01*
X130415000Y-140389501D01*
G75*
G02*
X130165001Y-140639500I-249999J0D01*
G01*
G37*
%TD.AperFunction*%
%TO.P,R4,1*%
%TO.N,Net-(C1-Pad2)*%
%TA.AperFunction,SMDPad,CuDef*%
G36*
G01*
X130165001Y-143564500D02*
X128914999Y-143564500D01*
G75*
G02*
X128665000Y-143314501I0J249999D01*
G01*
X128665000Y-142689499D01*
G75*
G02*
X128914999Y-142439500I249999J0D01*
G01*
X130165001Y-142439500D01*
G75*
G02*
X130415000Y-142689499I0J-249999D01*
G01*
X130415000Y-143314501D01*
G75*
G02*
X130165001Y-143564500I-249999J0D01*
G01*
G37*
%TD.AperFunction*%
%TD*%
D34*
%TO.P,R3,2*%
%TO.N,GND*%
X115824000Y-121920000D03*
D35*
%TO.P,R3,1*%
%TO.N,Net-(Q1-Pad3)*%
X143764000Y-121920000D03*
%TD*%
%TO.P,R2,2*%
%TO.N,GND*%
%TA.AperFunction,SMDPad,CuDef*%
G36*
G01*
X136028000Y-137912001D02*
X136028000Y-136661999D01*
G75*
G02*
X136277999Y-136412000I249999J0D01*
G01*
X136903001Y-136412000D01*
G75*
G02*
X137153000Y-136661999I0J-249999D01*
G01*
X137153000Y-137912001D01*
G75*
G02*
X136903001Y-138162000I-249999J0D01*
G01*
X136277999Y-138162000D01*
G75*
G02*
X136028000Y-137912001I0J249999D01*
G01*
G37*
%TD.AperFunction*%
%TO.P,R2,1*%
%TO.N,Net-(Q1-Pad1)*%
%TA.AperFunction,SMDPad,CuDef*%
G36*
G01*
X133103000Y-137912001D02*
X133103000Y-136661999D01*
G75*
G02*
X133352999Y-136412000I249999J0D01*
G01*
X133978001Y-136412000D01*
G75*
G02*
X134228000Y-136661999I0J-249999D01*
G01*
X134228000Y-137912001D01*
G75*
G02*
X133978001Y-138162000I-249999J0D01*
G01*
X133352999Y-138162000D01*
G75*
G02*
X133103000Y-137912001I0J249999D01*
G01*
G37*
%TD.AperFunction*%
%TD*%
%TO.P,R1,2*%
%TO.N,Net-(Q1-Pad1)*%
%TA.AperFunction,SMDPad,CuDef*%
G36*
G01*
X130313000Y-137912001D02*
X130313000Y-136661999D01*
G75*
G02*
X130562999Y-136412000I249999J0D01*
G01*
X131188001Y-136412000D01*
G75*
G02*
X131438000Y-136661999I0J-249999D01*
G01*
X131438000Y-137912001D01*
G75*
G02*
X131188001Y-138162000I-249999J0D01*
G01*
X130562999Y-138162000D01*
G75*
G02*
X130313000Y-137912001I0J249999D01*
G01*
G37*
%TD.AperFunction*%
%TO.P,R1,1*%
%TO.N,Net-(C1-Pad1)*%
%TA.AperFunction,SMDPad,CuDef*%
G36*
G01*
X127388000Y-137912001D02*
X127388000Y-136661999D01*
G75*
G02*
X127637999Y-136412000I249999J0D01*
G01*
X128263001Y-136412000D01*
G75*
G02*
X128513000Y-136661999I0J-249999D01*
G01*
X128513000Y-137912001D01*
G75*
G02*
X128263001Y-138162000I-249999J0D01*
G01*
X127637999Y-138162000D01*
G75*
G02*
X127388000Y-137912001I0J249999D01*
G01*
G37*
%TD.AperFunction*%
%TD*%
D36*
%TO.P,Q1,3*%
%TO.N,Net-(Q1-Pad3)*%
X140948000Y-131572000D03*
%TO.P,Q1,2*%
%TO.N,V_in*%
X135498000Y-131572000D03*
D37*
%TO.P,Q1,1*%
%TO.N,Net-(Q1-Pad1)*%
X130048000Y-131572000D03*
%TD*%
D13*
%TO.P,J5,4*%
%TO.N,GND*%
X126492000Y-84328000D03*
%TO.P,J5,3*%
%TO.N,SWCLK*%
X129032000Y-84328000D03*
%TO.P,J5,2*%
%TO.N,SWDIO*%
X131572000Y-84328000D03*
D14*
%TO.P,J5,1*%
%TO.N,+3V3*%
X134112000Y-84328000D03*
%TD*%
D13*
%TO.P,J3,3*%
%TO.N,+3V3*%
X102616000Y-111252000D03*
%TO.P,J3,2*%
%TO.N,Net-(J3-Pad2)*%
X102616000Y-113792000D03*
D14*
%TO.P,J3,1*%
%TO.N,GND*%
X102616000Y-116332000D03*
%TD*%
D13*
%TO.P,J1,2*%
%TO.N,+12V*%
X149352000Y-130556000D03*
D14*
%TO.P,J1,1*%
%TO.N,GND*%
X146812000Y-130556000D03*
%TD*%
D20*
%TO.P,H4,1*%
%TO.N,GND*%
X73325056Y-141558944D03*
X71628000Y-140856000D03*
X69930944Y-141558944D03*
X69228000Y-143256000D03*
X69930944Y-144953056D03*
X71628000Y-145656000D03*
X73325056Y-144953056D03*
X74028000Y-143256000D03*
D21*
X71628000Y-143256000D03*
%TD*%
D20*
%TO.P,H3,1*%
%TO.N,GND*%
X73325056Y-81614944D03*
X71628000Y-80912000D03*
X69930944Y-81614944D03*
X69228000Y-83312000D03*
X69930944Y-85009056D03*
X71628000Y-85712000D03*
X73325056Y-85009056D03*
X74028000Y-83312000D03*
D21*
X71628000Y-83312000D03*
%TD*%
D20*
%TO.P,H1,1*%
%TO.N,GND*%
X154097056Y-141558944D03*
X152400000Y-140856000D03*
X150702944Y-141558944D03*
X150000000Y-143256000D03*
X150702944Y-144953056D03*
X152400000Y-145656000D03*
X154097056Y-144953056D03*
X154800000Y-143256000D03*
D21*
X152400000Y-143256000D03*
%TD*%
%TO.P,C16,2*%
%TO.N,GND*%
%TA.AperFunction,SMDPad,CuDef*%
G36*
G01*
X102041000Y-84978001D02*
X102041000Y-83677999D01*
G75*
G02*
X102290999Y-83428000I249999J0D01*
G01*
X102941001Y-83428000D01*
G75*
G02*
X103191000Y-83677999I0J-249999D01*
G01*
X103191000Y-84978001D01*
G75*
G02*
X102941001Y-85228000I-249999J0D01*
G01*
X102290999Y-85228000D01*
G75*
G02*
X102041000Y-84978001I0J249999D01*
G01*
G37*
%TD.AperFunction*%
%TO.P,C16,1*%
%TO.N,SD_detected*%
%TA.AperFunction,SMDPad,CuDef*%
G36*
G01*
X99091000Y-84978001D02*
X99091000Y-83677999D01*
G75*
G02*
X99340999Y-83428000I249999J0D01*
G01*
X99991001Y-83428000D01*
G75*
G02*
X100241000Y-83677999I0J-249999D01*
G01*
X100241000Y-84978001D01*
G75*
G02*
X99991001Y-85228000I-249999J0D01*
G01*
X99340999Y-85228000D01*
G75*
G02*
X99091000Y-84978001I0J249999D01*
G01*
G37*
%TD.AperFunction*%
%TD*%
%TO.P,C15,2*%
%TO.N,GND*%
%TA.AperFunction,SMDPad,CuDef*%
G36*
G01*
X117415000Y-112633999D02*
X117415000Y-113934001D01*
G75*
G02*
X117165001Y-114184000I-249999J0D01*
G01*
X116514999Y-114184000D01*
G75*
G02*
X116265000Y-113934001I0J249999D01*
G01*
X116265000Y-112633999D01*
G75*
G02*
X116514999Y-112384000I249999J0D01*
G01*
X117165001Y-112384000D01*
G75*
G02*
X117415000Y-112633999I0J-249999D01*
G01*
G37*
%TD.AperFunction*%
%TO.P,C15,1*%
%TO.N,DAC_OUT*%
%TA.AperFunction,SMDPad,CuDef*%
G36*
G01*
X120365000Y-112633999D02*
X120365000Y-113934001D01*
G75*
G02*
X120115001Y-114184000I-249999J0D01*
G01*
X119464999Y-114184000D01*
G75*
G02*
X119215000Y-113934001I0J249999D01*
G01*
X119215000Y-112633999D01*
G75*
G02*
X119464999Y-112384000I249999J0D01*
G01*
X120115001Y-112384000D01*
G75*
G02*
X120365000Y-112633999I0J-249999D01*
G01*
G37*
%TD.AperFunction*%
%TD*%
%TO.P,C14,2*%
%TO.N,GND*%
%TA.AperFunction,SMDPad,CuDef*%
G36*
G01*
X142583000Y-109362001D02*
X142583000Y-108061999D01*
G75*
G02*
X142832999Y-107812000I249999J0D01*
G01*
X143483001Y-107812000D01*
G75*
G02*
X143733000Y-108061999I0J-249999D01*
G01*
X143733000Y-109362001D01*
G75*
G02*
X143483001Y-109612000I-249999J0D01*
G01*
X142832999Y-109612000D01*
G75*
G02*
X142583000Y-109362001I0J249999D01*
G01*
G37*
%TD.AperFunction*%
%TO.P,C14,1*%
%TO.N,V_in*%
%TA.AperFunction,SMDPad,CuDef*%
G36*
G01*
X139633000Y-109362001D02*
X139633000Y-108061999D01*
G75*
G02*
X139882999Y-107812000I249999J0D01*
G01*
X140533001Y-107812000D01*
G75*
G02*
X140783000Y-108061999I0J-249999D01*
G01*
X140783000Y-109362001D01*
G75*
G02*
X140533001Y-109612000I-249999J0D01*
G01*
X139882999Y-109612000D01*
G75*
G02*
X139633000Y-109362001I0J249999D01*
G01*
G37*
%TD.AperFunction*%
%TD*%
%TO.P,C13,2*%
%TO.N,GND*%
%TA.AperFunction,SMDPad,CuDef*%
G36*
G01*
X130698001Y-96636000D02*
X129397999Y-96636000D01*
G75*
G02*
X129148000Y-96386001I0J249999D01*
G01*
X129148000Y-95735999D01*
G75*
G02*
X129397999Y-95486000I249999J0D01*
G01*
X130698001Y-95486000D01*
G75*
G02*
X130948000Y-95735999I0J-249999D01*
G01*
X130948000Y-96386001D01*
G75*
G02*
X130698001Y-96636000I-249999J0D01*
G01*
G37*
%TD.AperFunction*%
%TO.P,C13,1*%
%TO.N,ENC_2*%
%TA.AperFunction,SMDPad,CuDef*%
G36*
G01*
X130698001Y-99586000D02*
X129397999Y-99586000D01*
G75*
G02*
X129148000Y-99336001I0J249999D01*
G01*
X129148000Y-98685999D01*
G75*
G02*
X129397999Y-98436000I249999J0D01*
G01*
X130698001Y-98436000D01*
G75*
G02*
X130948000Y-98685999I0J-249999D01*
G01*
X130948000Y-99336001D01*
G75*
G02*
X130698001Y-99586000I-249999J0D01*
G01*
G37*
%TD.AperFunction*%
%TD*%
%TO.P,C12,2*%
%TO.N,GND*%
%TA.AperFunction,SMDPad,CuDef*%
G36*
G01*
X143880000Y-84693999D02*
X143880000Y-85994001D01*
G75*
G02*
X143630001Y-86244000I-249999J0D01*
G01*
X142979999Y-86244000D01*
G75*
G02*
X142730000Y-85994001I0J249999D01*
G01*
X142730000Y-84693999D01*
G75*
G02*
X142979999Y-84444000I249999J0D01*
G01*
X143630001Y-84444000D01*
G75*
G02*
X143880000Y-84693999I0J-249999D01*
G01*
G37*
%TD.AperFunction*%
%TO.P,C12,1*%
%TO.N,Net-(C12-Pad1)*%
%TA.AperFunction,SMDPad,CuDef*%
G36*
G01*
X146830000Y-84693999D02*
X146830000Y-85994001D01*
G75*
G02*
X146580001Y-86244000I-249999J0D01*
G01*
X145929999Y-86244000D01*
G75*
G02*
X145680000Y-85994001I0J249999D01*
G01*
X145680000Y-84693999D01*
G75*
G02*
X145929999Y-84444000I249999J0D01*
G01*
X146580001Y-84444000D01*
G75*
G02*
X146830000Y-84693999I0J-249999D01*
G01*
G37*
%TD.AperFunction*%
%TD*%
%TO.P,C11,2*%
%TO.N,GND*%
%TA.AperFunction,SMDPad,CuDef*%
G36*
G01*
X113725000Y-113934001D02*
X113725000Y-112633999D01*
G75*
G02*
X113974999Y-112384000I249999J0D01*
G01*
X114625001Y-112384000D01*
G75*
G02*
X114875000Y-112633999I0J-249999D01*
G01*
X114875000Y-113934001D01*
G75*
G02*
X114625001Y-114184000I-249999J0D01*
G01*
X113974999Y-114184000D01*
G75*
G02*
X113725000Y-113934001I0J249999D01*
G01*
G37*
%TD.AperFunction*%
%TO.P,C11,1*%
%TO.N,+3V3*%
%TA.AperFunction,SMDPad,CuDef*%
G36*
G01*
X110775000Y-113934001D02*
X110775000Y-112633999D01*
G75*
G02*
X111024999Y-112384000I249999J0D01*
G01*
X111675001Y-112384000D01*
G75*
G02*
X111925000Y-112633999I0J-249999D01*
G01*
X111925000Y-113934001D01*
G75*
G02*
X111675001Y-114184000I-249999J0D01*
G01*
X111024999Y-114184000D01*
G75*
G02*
X110775000Y-113934001I0J249999D01*
G01*
G37*
%TD.AperFunction*%
%TD*%
%TO.P,C10,2*%
%TO.N,GND*%
%TA.AperFunction,SMDPad,CuDef*%
G36*
G01*
X129397999Y-92389000D02*
X130698001Y-92389000D01*
G75*
G02*
X130948000Y-92638999I0J-249999D01*
G01*
X130948000Y-93289001D01*
G75*
G02*
X130698001Y-93539000I-249999J0D01*
G01*
X129397999Y-93539000D01*
G75*
G02*
X129148000Y-93289001I0J249999D01*
G01*
X129148000Y-92638999D01*
G75*
G02*
X129397999Y-92389000I249999J0D01*
G01*
G37*
%TD.AperFunction*%
%TO.P,C10,1*%
%TO.N,ENC_1*%
%TA.AperFunction,SMDPad,CuDef*%
G36*
G01*
X129397999Y-89439000D02*
X130698001Y-89439000D01*
G75*
G02*
X130948000Y-89688999I0J-249999D01*
G01*
X130948000Y-90339001D01*
G75*
G02*
X130698001Y-90589000I-249999J0D01*
G01*
X129397999Y-90589000D01*
G75*
G02*
X129148000Y-90339001I0J249999D01*
G01*
X129148000Y-89688999D01*
G75*
G02*
X129397999Y-89439000I249999J0D01*
G01*
G37*
%TD.AperFunction*%
%TD*%
%TO.P,C9,2*%
%TO.N,GND*%
%TA.AperFunction,SMDPad,CuDef*%
G36*
G01*
X98790999Y-99882000D02*
X100091001Y-99882000D01*
G75*
G02*
X100341000Y-100131999I0J-249999D01*
G01*
X100341000Y-100782001D01*
G75*
G02*
X100091001Y-101032000I-249999J0D01*
G01*
X98790999Y-101032000D01*
G75*
G02*
X98541000Y-100782001I0J249999D01*
G01*
X98541000Y-100131999D01*
G75*
G02*
X98790999Y-99882000I249999J0D01*
G01*
G37*
%TD.AperFunction*%
%TO.P,C9,1*%
%TO.N,+3V3*%
%TA.AperFunction,SMDPad,CuDef*%
G36*
G01*
X98790999Y-96932000D02*
X100091001Y-96932000D01*
G75*
G02*
X100341000Y-97181999I0J-249999D01*
G01*
X100341000Y-97832001D01*
G75*
G02*
X100091001Y-98082000I-249999J0D01*
G01*
X98790999Y-98082000D01*
G75*
G02*
X98541000Y-97832001I0J249999D01*
G01*
X98541000Y-97181999D01*
G75*
G02*
X98790999Y-96932000I249999J0D01*
G01*
G37*
%TD.AperFunction*%
%TD*%
%TO.P,C8,2*%
%TO.N,GND*%
%TA.AperFunction,SMDPad,CuDef*%
G36*
G01*
X102473999Y-99911000D02*
X103774001Y-99911000D01*
G75*
G02*
X104024000Y-100160999I0J-249999D01*
G01*
X104024000Y-100811001D01*
G75*
G02*
X103774001Y-101061000I-249999J0D01*
G01*
X102473999Y-101061000D01*
G75*
G02*
X102224000Y-100811001I0J249999D01*
G01*
X102224000Y-100160999D01*
G75*
G02*
X102473999Y-99911000I249999J0D01*
G01*
G37*
%TD.AperFunction*%
%TO.P,C8,1*%
%TO.N,+3V3*%
%TA.AperFunction,SMDPad,CuDef*%
G36*
G01*
X102473999Y-96961000D02*
X103774001Y-96961000D01*
G75*
G02*
X104024000Y-97210999I0J-249999D01*
G01*
X104024000Y-97861001D01*
G75*
G02*
X103774001Y-98111000I-249999J0D01*
G01*
X102473999Y-98111000D01*
G75*
G02*
X102224000Y-97861001I0J249999D01*
G01*
X102224000Y-97210999D01*
G75*
G02*
X102473999Y-96961000I249999J0D01*
G01*
G37*
%TD.AperFunction*%
%TD*%
%TO.P,C7,2*%
%TO.N,GND*%
%TA.AperFunction,SMDPad,CuDef*%
G36*
G01*
X148728000Y-109362001D02*
X148728000Y-108061999D01*
G75*
G02*
X148977999Y-107812000I249999J0D01*
G01*
X149628001Y-107812000D01*
G75*
G02*
X149878000Y-108061999I0J-249999D01*
G01*
X149878000Y-109362001D01*
G75*
G02*
X149628001Y-109612000I-249999J0D01*
G01*
X148977999Y-109612000D01*
G75*
G02*
X148728000Y-109362001I0J249999D01*
G01*
G37*
%TD.AperFunction*%
%TO.P,C7,1*%
%TO.N,ADC_U*%
%TA.AperFunction,SMDPad,CuDef*%
G36*
G01*
X145778000Y-109362001D02*
X145778000Y-108061999D01*
G75*
G02*
X146027999Y-107812000I249999J0D01*
G01*
X146678001Y-107812000D01*
G75*
G02*
X146928000Y-108061999I0J-249999D01*
G01*
X146928000Y-109362001D01*
G75*
G02*
X146678001Y-109612000I-249999J0D01*
G01*
X146027999Y-109612000D01*
G75*
G02*
X145778000Y-109362001I0J249999D01*
G01*
G37*
%TD.AperFunction*%
%TD*%
%TO.P,C6,2*%
%TO.N,GND*%
%TA.AperFunction,SMDPad,CuDef*%
G36*
G01*
X111925000Y-83677999D02*
X111925000Y-84978001D01*
G75*
G02*
X111675001Y-85228000I-249999J0D01*
G01*
X111024999Y-85228000D01*
G75*
G02*
X110775000Y-84978001I0J249999D01*
G01*
X110775000Y-83677999D01*
G75*
G02*
X111024999Y-83428000I249999J0D01*
G01*
X111675001Y-83428000D01*
G75*
G02*
X111925000Y-83677999I0J-249999D01*
G01*
G37*
%TD.AperFunction*%
%TO.P,C6,1*%
%TO.N,Net-(C6-Pad1)*%
%TA.AperFunction,SMDPad,CuDef*%
G36*
G01*
X114875000Y-83677999D02*
X114875000Y-84978001D01*
G75*
G02*
X114625001Y-85228000I-249999J0D01*
G01*
X113974999Y-85228000D01*
G75*
G02*
X113725000Y-84978001I0J249999D01*
G01*
X113725000Y-83677999D01*
G75*
G02*
X113974999Y-83428000I249999J0D01*
G01*
X114625001Y-83428000D01*
G75*
G02*
X114875000Y-83677999I0J-249999D01*
G01*
G37*
%TD.AperFunction*%
%TD*%
%TO.P,C4,2*%
%TO.N,GND*%
%TA.AperFunction,SMDPad,CuDef*%
G36*
G01*
X151526001Y-114592000D02*
X150225999Y-114592000D01*
G75*
G02*
X149976000Y-114342001I0J249999D01*
G01*
X149976000Y-113691999D01*
G75*
G02*
X150225999Y-113442000I249999J0D01*
G01*
X151526001Y-113442000D01*
G75*
G02*
X151776000Y-113691999I0J-249999D01*
G01*
X151776000Y-114342001D01*
G75*
G02*
X151526001Y-114592000I-249999J0D01*
G01*
G37*
%TD.AperFunction*%
%TO.P,C4,1*%
%TO.N,+3V3*%
%TA.AperFunction,SMDPad,CuDef*%
G36*
G01*
X151526001Y-117542000D02*
X150225999Y-117542000D01*
G75*
G02*
X149976000Y-117292001I0J249999D01*
G01*
X149976000Y-116641999D01*
G75*
G02*
X150225999Y-116392000I249999J0D01*
G01*
X151526001Y-116392000D01*
G75*
G02*
X151776000Y-116641999I0J-249999D01*
G01*
X151776000Y-117292001D01*
G75*
G02*
X151526001Y-117542000I-249999J0D01*
G01*
G37*
%TD.AperFunction*%
%TD*%
%TO.P,C2,2*%
%TO.N,GND*%
%TA.AperFunction,SMDPad,CuDef*%
G36*
G01*
X122820000Y-136794001D02*
X122820000Y-135493999D01*
G75*
G02*
X123069999Y-135244000I249999J0D01*
G01*
X123720001Y-135244000D01*
G75*
G02*
X123970000Y-135493999I0J-249999D01*
G01*
X123970000Y-136794001D01*
G75*
G02*
X123720001Y-137044000I-249999J0D01*
G01*
X123069999Y-137044000D01*
G75*
G02*
X122820000Y-136794001I0J249999D01*
G01*
G37*
%TD.AperFunction*%
%TO.P,C2,1*%
%TO.N,ADC_I*%
%TA.AperFunction,SMDPad,CuDef*%
G36*
G01*
X119870000Y-136794001D02*
X119870000Y-135493999D01*
G75*
G02*
X120119999Y-135244000I249999J0D01*
G01*
X120770001Y-135244000D01*
G75*
G02*
X121020000Y-135493999I0J-249999D01*
G01*
X121020000Y-136794001D01*
G75*
G02*
X120770001Y-137044000I-249999J0D01*
G01*
X120119999Y-137044000D01*
G75*
G02*
X119870000Y-136794001I0J249999D01*
G01*
G37*
%TD.AperFunction*%
%TD*%
%TO.P,C1,2*%
%TO.N,Net-(C1-Pad2)*%
%TA.AperFunction,SMDPad,CuDef*%
G36*
G01*
X131937999Y-142427000D02*
X133238001Y-142427000D01*
G75*
G02*
X133488000Y-142676999I0J-249999D01*
G01*
X133488000Y-143327001D01*
G75*
G02*
X133238001Y-143577000I-249999J0D01*
G01*
X131937999Y-143577000D01*
G75*
G02*
X131688000Y-143327001I0J249999D01*
G01*
X131688000Y-142676999D01*
G75*
G02*
X131937999Y-142427000I249999J0D01*
G01*
G37*
%TD.AperFunction*%
%TO.P,C1,1*%
%TO.N,Net-(C1-Pad1)*%
%TA.AperFunction,SMDPad,CuDef*%
G36*
G01*
X131937999Y-139477000D02*
X133238001Y-139477000D01*
G75*
G02*
X133488000Y-139726999I0J-249999D01*
G01*
X133488000Y-140377001D01*
G75*
G02*
X133238001Y-140627000I-249999J0D01*
G01*
X131937999Y-140627000D01*
G75*
G02*
X131688000Y-140377001I0J249999D01*
G01*
X131688000Y-139726999D01*
G75*
G02*
X131937999Y-139477000I249999J0D01*
G01*
G37*
%TD.AperFunction*%
%TD*%
D38*
%TO.N,+12V*%
X149860000Y-137160000D03*
X122428000Y-134112000D03*
X125476000Y-138176000D03*
%TO.N,GND*%
X117856000Y-144272000D03*
X104140000Y-84328000D03*
X112268000Y-99568000D03*
X132588000Y-94996000D03*
X109728000Y-85344000D03*
X92456000Y-99568000D03*
X92456000Y-89408000D03*
X92456000Y-107188000D03*
X105156000Y-96520008D03*
X144780000Y-134620000D03*
X96520000Y-116332000D03*
X71119998Y-120904000D03*
X128524000Y-101600000D03*
X135128000Y-139192000D03*
X123444000Y-138176000D03*
%TO.N,+3V3*%
X124968000Y-94996000D03*
X104140000Y-90424000D03*
X104140000Y-87376000D03*
X104648000Y-105156000D03*
X121920000Y-99568000D03*
X97536002Y-97535998D03*
X152400000Y-106680000D03*
X148844000Y-115824000D03*
X123444000Y-91948000D03*
X111252000Y-85852000D03*
%TO.N,SD_MISO*%
X97536000Y-90424000D03*
X105664000Y-93980000D03*
%TO.N,SD_CS*%
X98552000Y-105664000D03*
X105156000Y-91948000D03*
%TO.N,LDAC*%
X118364000Y-106680000D03*
X116840000Y-102108000D03*
%TO.N,ADC_U*%
X142748000Y-115316000D03*
X112268000Y-89916000D03*
%TO.N,ADC_I*%
X119380000Y-133604000D03*
X113279340Y-88387340D03*
%TO.N,SWCLK*%
X122936000Y-98552000D03*
%TO.N,SWDIO*%
X118876660Y-101087340D03*
%TD*%
D39*
%TO.N,+12V*%
X149860000Y-134796000D02*
X149811000Y-134747000D01*
D40*
X149860000Y-137160000D02*
X149860000Y-134796000D01*
D39*
X149811000Y-131015000D02*
X149352000Y-130556000D01*
D41*
X147828000Y-139192000D02*
X149860000Y-137160000D01*
X146812000Y-139192000D02*
X147828000Y-139192000D01*
D40*
X149811000Y-133047000D02*
X149352000Y-132588000D01*
X149811000Y-134747000D02*
X149811000Y-133047000D01*
D39*
X149352000Y-132588000D02*
X149352000Y-130556000D01*
D41*
X142748000Y-139192000D02*
X146812000Y-139192000D01*
X138684000Y-143256000D02*
X142748000Y-139192000D01*
X138684000Y-143764000D02*
X138684000Y-143256000D01*
D40*
X152668000Y-127240000D02*
X152668000Y-125578000D01*
X151892000Y-128016000D02*
X152668000Y-127240000D01*
X150269000Y-128016000D02*
X151892000Y-128016000D01*
X149352000Y-128933000D02*
X150269000Y-128016000D01*
X149352000Y-129921000D02*
X149352000Y-128933000D01*
D39*
X125476000Y-138176000D02*
X125476000Y-140462000D01*
X122428000Y-133604000D02*
X122428000Y-134112000D01*
X111252000Y-122428000D02*
X122428000Y-133604000D01*
X77851000Y-122428000D02*
X111252000Y-122428000D01*
X77724000Y-122301000D02*
X77851000Y-122428000D01*
%TO.N,GND*%
X130683000Y-111887000D02*
X130683000Y-110617000D01*
X143158000Y-108712000D02*
X145063000Y-106807000D01*
X145063000Y-106807000D02*
X148463000Y-106807000D01*
X149303000Y-107647000D02*
X149303000Y-108712000D01*
X148463000Y-106807000D02*
X149303000Y-107647000D01*
X103095000Y-100457000D02*
X103124000Y-100486000D01*
X99441000Y-100457000D02*
X103095000Y-100457000D01*
X99438000Y-100460000D02*
X99441000Y-100457000D01*
X130048000Y-96061000D02*
X130048000Y-92964000D01*
X135636000Y-93940000D02*
X133056000Y-93940000D01*
X132080000Y-92964000D02*
X130048000Y-92964000D01*
X133056000Y-93940000D02*
X132080000Y-92964000D01*
X114300000Y-113284000D02*
X116840000Y-113284000D01*
X147636000Y-93940000D02*
X150136000Y-91440000D01*
X135636000Y-93940000D02*
X147636000Y-93940000D01*
X132588000Y-94996000D02*
X131572000Y-96012000D01*
X130097000Y-96012000D02*
X130048000Y-96061000D01*
X131572000Y-96012000D02*
X130097000Y-96012000D01*
X102616000Y-84328000D02*
X104140000Y-84328000D01*
X112268000Y-99568000D02*
X111760000Y-99060000D01*
X111760000Y-99060000D02*
X111760000Y-97511798D01*
X111760000Y-97511798D02*
X112258808Y-97012990D01*
X113062010Y-97012990D02*
X113087000Y-96988000D01*
X112258808Y-97012990D02*
X113062010Y-97012990D01*
X113087000Y-96988000D02*
X118832000Y-96988000D01*
X119499500Y-97655500D02*
X119499500Y-98900500D01*
X118832000Y-96988000D02*
X119499500Y-97655500D01*
X116499500Y-90764500D02*
X116474510Y-90789490D01*
X116499500Y-90575500D02*
X116499500Y-90764500D01*
X107696000Y-115824000D02*
X112776000Y-115824000D01*
X114300000Y-114300000D02*
X114300000Y-113284000D01*
X112776000Y-115824000D02*
X114300000Y-114300000D01*
X117983000Y-112141000D02*
X117983000Y-109155000D01*
X116840000Y-113284000D02*
X117983000Y-112141000D01*
X124250990Y-82086990D02*
X126492000Y-84328000D01*
X119179010Y-82086990D02*
X124250990Y-82086990D01*
X117954000Y-83312000D02*
X119179010Y-82086990D01*
X92493000Y-99531000D02*
X92456000Y-99568000D01*
X94271000Y-99531000D02*
X92493000Y-99531000D01*
X92471000Y-89931000D02*
X92471000Y-91506000D01*
X92456000Y-89408000D02*
X92471000Y-89931000D01*
X92613000Y-107031000D02*
X92456000Y-107188000D01*
X94271000Y-107031000D02*
X92613000Y-107031000D01*
X103124000Y-100486000D02*
X105156000Y-98454000D01*
X105156000Y-98454000D02*
X105156000Y-96520008D01*
X70971000Y-85493000D02*
X71120000Y-85344000D01*
X70971000Y-91506000D02*
X70971000Y-85493000D01*
X147443000Y-115447000D02*
X146558000Y-115447000D01*
X148873000Y-114017000D02*
X147443000Y-115447000D01*
X150876000Y-114017000D02*
X148873000Y-114017000D01*
X150368000Y-108712000D02*
X150876000Y-109220000D01*
X150876000Y-109220000D02*
X150876000Y-114017000D01*
X149303000Y-108712000D02*
X150368000Y-108712000D01*
X144907000Y-134747000D02*
X144780000Y-134620000D01*
D40*
X146861000Y-134747000D02*
X144907000Y-134747000D01*
D39*
X146861000Y-130605000D02*
X146812000Y-130556000D01*
D40*
X146861000Y-134747000D02*
X146861000Y-130605000D01*
D39*
X107188000Y-116332000D02*
X107696000Y-115824000D01*
X96246000Y-116606000D02*
X92471000Y-116606000D01*
X96520000Y-116332000D02*
X96246000Y-116606000D01*
X70971000Y-118806000D02*
X70971000Y-120755002D01*
X70971000Y-120755002D02*
X71119998Y-120904000D01*
X130683000Y-111887000D02*
X131953000Y-111887000D01*
X139192000Y-104648000D02*
X140208000Y-104648000D01*
X131953000Y-111887000D02*
X139192000Y-104648000D01*
X128524000Y-101600000D02*
X124968000Y-101600000D01*
X149860000Y-143256000D02*
X150876000Y-144272000D01*
X144272000Y-85344000D02*
X143305000Y-85344000D01*
X145796000Y-86868000D02*
X144272000Y-85344000D01*
X146812000Y-88900000D02*
X145796000Y-87884000D01*
X148336000Y-88900000D02*
X146812000Y-88900000D01*
X145796000Y-87884000D02*
X145796000Y-86868000D01*
X150368000Y-90932000D02*
X148336000Y-88900000D01*
X150368000Y-91208000D02*
X150368000Y-90932000D01*
X150136000Y-91440000D02*
X150368000Y-91208000D01*
X121387010Y-92512990D02*
X120583808Y-92512990D01*
X121412000Y-92488000D02*
X121387010Y-92512990D01*
X120583808Y-92512990D02*
X118832000Y-94264798D01*
X118832000Y-94264798D02*
X118832000Y-96988000D01*
X118832000Y-94264798D02*
X118832000Y-93940000D01*
X116499500Y-91607500D02*
X116499500Y-90575500D01*
X118832000Y-93940000D02*
X116499500Y-91607500D01*
D41*
X151892000Y-143764000D02*
X152400000Y-143256000D01*
X141184000Y-143764000D02*
X151892000Y-143764000D01*
D39*
X135128000Y-138749500D02*
X136590500Y-137287000D01*
X135128000Y-139192000D02*
X135128000Y-138749500D01*
X109728000Y-87760000D02*
X109728000Y-85344000D01*
X109852000Y-87884000D02*
X109728000Y-87760000D01*
X109096000Y-87884000D02*
X109852000Y-87884000D01*
X108780000Y-88200000D02*
X109096000Y-87884000D01*
X107696000Y-88200000D02*
X108780000Y-88200000D01*
X116464095Y-83312000D02*
X117954000Y-83312000D01*
X115956095Y-82804000D02*
X116464095Y-83312000D01*
X112874000Y-82804000D02*
X115956095Y-82804000D01*
X110334000Y-85344000D02*
X112874000Y-82804000D01*
X109728000Y-85344000D02*
X110334000Y-85344000D01*
D40*
X146812000Y-130556000D02*
X146812000Y-129032000D01*
X148068000Y-127776000D02*
X148068000Y-125984000D01*
X146812000Y-129032000D02*
X148068000Y-127776000D01*
X148068000Y-125984000D02*
X148068000Y-123176000D01*
X146558000Y-121666000D02*
X146558000Y-115447000D01*
X148068000Y-123176000D02*
X146558000Y-121666000D01*
D42*
X121158000Y-121412000D02*
X130683000Y-111887000D01*
X116332000Y-121412000D02*
X121158000Y-121412000D01*
X115824000Y-121920000D02*
X116332000Y-121412000D01*
D39*
X117856000Y-144272000D02*
X120515490Y-144272000D01*
X115824000Y-144272000D02*
X117856000Y-144272000D01*
X123444000Y-136193000D02*
X123395000Y-136144000D01*
X123444000Y-138176000D02*
X123444000Y-136193000D01*
X115885500Y-144272000D02*
X117856000Y-144272000D01*
X115885500Y-146812000D02*
X115885500Y-144272000D01*
%TO.N,+3V3*%
X103095000Y-97507000D02*
X103124000Y-97536000D01*
X99441000Y-97507000D02*
X103095000Y-97507000D01*
X127000000Y-92964000D02*
X127000000Y-96135000D01*
X102616000Y-107696000D02*
X102616000Y-103124000D01*
X103124000Y-94996000D02*
X102616000Y-94488000D01*
X103124000Y-97536000D02*
X103124000Y-94996000D01*
X102616000Y-111760000D02*
X102616000Y-107696000D01*
X119253000Y-104205000D02*
X119999500Y-103458500D01*
X126107000Y-96135000D02*
X127000000Y-96135000D01*
X124968000Y-94996000D02*
X126107000Y-96135000D01*
X102616000Y-87376000D02*
X104140000Y-87376000D01*
X104140000Y-90424000D02*
X102616000Y-90424000D01*
X104648000Y-104140000D02*
X103632000Y-103124000D01*
X103632000Y-103124000D02*
X102616000Y-103124000D01*
X104648000Y-105156000D02*
X104648000Y-104140000D01*
X119999500Y-100187500D02*
X121300500Y-100187500D01*
X119999500Y-103458500D02*
X119999500Y-100187500D01*
X121300500Y-100187500D02*
X121920000Y-99568000D01*
X119999500Y-100187500D02*
X119999500Y-98900500D01*
X119253000Y-107277250D02*
X119253000Y-104205000D01*
X118872000Y-107658250D02*
X119253000Y-107277250D01*
X117832982Y-107658250D02*
X118872000Y-107658250D01*
X117357990Y-108133242D02*
X117832982Y-107658250D01*
X117357990Y-108510010D02*
X117357990Y-108133242D01*
X116713000Y-109155000D02*
X117357990Y-108510010D01*
X97565000Y-97507000D02*
X97536002Y-97535998D01*
X99441000Y-97507000D02*
X97565000Y-97507000D01*
X97536002Y-101265998D02*
X97536002Y-97535998D01*
X94271000Y-104531000D02*
X97536002Y-101265998D01*
X149983000Y-106680000D02*
X148336000Y-105033000D01*
X152400000Y-106680000D02*
X149983000Y-106680000D01*
X149733000Y-115824000D02*
X150876000Y-116967000D01*
X148844000Y-115824000D02*
X149733000Y-115824000D01*
X107188000Y-111252000D02*
X107696000Y-110744000D01*
X105156000Y-87376000D02*
X106680000Y-85852000D01*
X104140000Y-87376000D02*
X105156000Y-87376000D01*
X121452000Y-91948000D02*
X121412000Y-91988000D01*
X123444000Y-91948000D02*
X121452000Y-91948000D01*
X115999500Y-89326680D02*
X115999500Y-90575500D01*
X112524820Y-85852000D02*
X115999500Y-89326680D01*
X111252000Y-85852000D02*
X112524820Y-85852000D01*
D40*
X150368000Y-125984000D02*
X150368000Y-119684000D01*
X150368000Y-117475000D02*
X150876000Y-116967000D01*
X150368000Y-119684000D02*
X150368000Y-117475000D01*
D39*
X108204000Y-110744000D02*
X110744000Y-113284000D01*
X110744000Y-113284000D02*
X111350000Y-113284000D01*
X107696000Y-110744000D02*
X108204000Y-110744000D01*
X116713000Y-110363000D02*
X116713000Y-109155000D01*
X113792000Y-111252000D02*
X115824000Y-111252000D01*
X115824000Y-111252000D02*
X116713000Y-110363000D01*
X111760000Y-113284000D02*
X113792000Y-111252000D01*
X111350000Y-113284000D02*
X111760000Y-113284000D01*
X112993001Y-97581999D02*
X113087000Y-97488000D01*
X112776000Y-100584000D02*
X112993001Y-100366999D01*
X112776000Y-109728000D02*
X112776000Y-100584000D01*
X111350000Y-111154000D02*
X112776000Y-109728000D01*
X112993001Y-100366999D02*
X112993001Y-97581999D01*
X111350000Y-113284000D02*
X111350000Y-111154000D01*
%TO.N,Net-(J3-Pad2)*%
X105664000Y-113284000D02*
X107696000Y-113284000D01*
X105156000Y-113792000D02*
X105664000Y-113284000D01*
X102616000Y-113792000D02*
X105156000Y-113792000D01*
%TO.N,SD_MISO*%
X97430000Y-90530000D02*
X97536000Y-90424000D01*
X106156000Y-93488000D02*
X113087000Y-93488000D01*
X105664000Y-93980000D02*
X106156000Y-93488000D01*
X97536000Y-90424000D02*
X99691000Y-90424000D01*
X95271000Y-97101000D02*
X96012000Y-96360000D01*
X94271000Y-97101000D02*
X95271000Y-97101000D01*
X96012000Y-91948000D02*
X97536000Y-90424000D01*
X96012000Y-96360000D02*
X96012000Y-91948000D01*
%TO.N,SD_SCK*%
X101191000Y-92988000D02*
X113087000Y-92988000D01*
X99691000Y-94488000D02*
X101191000Y-92988000D01*
X94271000Y-102031000D02*
X96520000Y-99782000D01*
X99128500Y-94488000D02*
X99691000Y-94488000D01*
X96520000Y-97096500D02*
X99128500Y-94488000D01*
X96520000Y-99782000D02*
X96520000Y-97096500D01*
%TO.N,SD_MOSI*%
X99527000Y-102960000D02*
X99691000Y-103124000D01*
X94271000Y-109531000D02*
X95193000Y-109531000D01*
X95193000Y-109531000D02*
X96520000Y-108204000D01*
X96520000Y-108204000D02*
X96520000Y-104140000D01*
X97536000Y-103124000D02*
X99691000Y-103124000D01*
X96520000Y-104140000D02*
X97536000Y-103124000D01*
X108253006Y-93988000D02*
X113087000Y-93988000D01*
X105881002Y-100366998D02*
X105881002Y-96360004D01*
X104648000Y-101600000D02*
X105881002Y-100366998D01*
X101215000Y-101600000D02*
X104648000Y-101600000D01*
X99691000Y-103124000D02*
X101215000Y-101600000D01*
X105881002Y-96360004D02*
X108253006Y-93988000D01*
%TO.N,SD_CS*%
X99691000Y-106803000D02*
X98552000Y-105664000D01*
X99691000Y-107696000D02*
X99691000Y-106803000D01*
X105696000Y-92488000D02*
X113087000Y-92488000D01*
X105156000Y-91948000D02*
X105696000Y-92488000D01*
X94271000Y-114531000D02*
X95781000Y-114531000D01*
X95781000Y-114531000D02*
X96012000Y-114300000D01*
X96012000Y-114300000D02*
X96012000Y-112776000D01*
X95267000Y-112031000D02*
X94271000Y-112031000D01*
X96012000Y-112776000D02*
X95267000Y-112031000D01*
X95267000Y-112031000D02*
X97028000Y-110270000D01*
X97028000Y-110270000D02*
X97028000Y-108712000D01*
X98044000Y-107696000D02*
X99691000Y-107696000D01*
X97028000Y-108712000D02*
X98044000Y-107696000D01*
%TO.N,Net-(Q1-Pad3)*%
X131068000Y-147062000D02*
X131068000Y-146177000D01*
X130302000Y-147828000D02*
X131068000Y-147062000D01*
X124906500Y-147828000D02*
X130302000Y-147828000D01*
X123890500Y-146812000D02*
X124906500Y-147828000D01*
D42*
X140948000Y-124736000D02*
X143764000Y-121920000D01*
X140948000Y-132102000D02*
X140948000Y-124736000D01*
D39*
X140948000Y-135404000D02*
X140948000Y-131572000D01*
X135128000Y-141224000D02*
X140948000Y-135404000D01*
X135128000Y-143764000D02*
X135128000Y-141224000D01*
X132715000Y-146177000D02*
X135128000Y-143764000D01*
X131068000Y-146177000D02*
X132715000Y-146177000D01*
%TO.N,Net-(Q1-Pad1)*%
X130875500Y-137287000D02*
X133665500Y-137287000D01*
X130875500Y-137287000D02*
X130875500Y-136209500D01*
X130048000Y-135382000D02*
X130048000Y-131572000D01*
X130875500Y-136209500D02*
X130048000Y-135382000D01*
%TO.N,ENC_2*%
X130048000Y-99011000D02*
X131113000Y-99011000D01*
X133684000Y-96440000D02*
X135636000Y-96440000D01*
X131113000Y-99011000D02*
X133684000Y-96440000D01*
X127049000Y-99011000D02*
X127000000Y-99060000D01*
X130048000Y-99011000D02*
X127049000Y-99011000D01*
X121412000Y-94988000D02*
X123490500Y-94988000D01*
X123490500Y-94988000D02*
X127000000Y-98497500D01*
X127000000Y-98497500D02*
X127000000Y-99060000D01*
%TO.N,ENC_Button*%
X148336000Y-102108000D02*
X150876000Y-102108000D01*
X150876000Y-97180000D02*
X150136000Y-96440000D01*
X150876000Y-102108000D02*
X150876000Y-97180000D01*
X148213000Y-102108000D02*
X148336000Y-102231000D01*
X133604000Y-102108000D02*
X148213000Y-102108000D01*
X132080000Y-100584000D02*
X133604000Y-102108000D01*
X126240980Y-100584000D02*
X132080000Y-100584000D01*
X124517990Y-98861010D02*
X126240980Y-100584000D01*
X124517990Y-97085990D02*
X124517990Y-98861010D01*
X122920000Y-95488000D02*
X124517990Y-97085990D01*
X121412000Y-95488000D02*
X122920000Y-95488000D01*
%TO.N,Net-(C1-Pad1)*%
X129540000Y-138876500D02*
X127950500Y-137287000D01*
X129540000Y-140077000D02*
X129540000Y-138876500D01*
X127000000Y-141732000D02*
X125476000Y-141732000D01*
X128655000Y-140077000D02*
X127000000Y-141732000D01*
X132563000Y-140077000D02*
X128655000Y-140077000D01*
X132588000Y-140052000D02*
X132563000Y-140077000D01*
%TO.N,Net-(R10-Pad1)*%
X118810500Y-146812000D02*
X120965500Y-146812000D01*
X120965500Y-146812000D02*
X122428000Y-145349500D01*
X122428000Y-145349500D02*
X122428000Y-143764000D01*
X121666000Y-143002000D02*
X120526000Y-143002000D01*
X122428000Y-143764000D02*
X121666000Y-143002000D01*
%TO.N,Net-(C1-Pad2)*%
X128143000Y-145669000D02*
X129540000Y-144272000D01*
X128143000Y-146177000D02*
X128143000Y-145669000D01*
X129540000Y-144272000D02*
X129540000Y-143002000D01*
X125476000Y-143002000D02*
X132588000Y-143002000D01*
%TO.N,Net-(R6-Pad2)*%
X116209000Y-141732000D02*
X115824000Y-141347000D01*
X120526000Y-141732000D02*
X116209000Y-141732000D01*
X115824000Y-139069000D02*
X115439000Y-138684000D01*
X115824000Y-141347000D02*
X115824000Y-139069000D01*
%TO.N,DAC_OUT*%
X119888000Y-113186000D02*
X119790000Y-113284000D01*
X119888000Y-111760000D02*
X119888000Y-113186000D01*
X119253000Y-111125000D02*
X119888000Y-111760000D01*
X119253000Y-109155000D02*
X119253000Y-111125000D01*
X122936000Y-142748000D02*
X124460000Y-144272000D01*
X122936000Y-140208000D02*
X122936000Y-142748000D01*
X124460000Y-138684000D02*
X122936000Y-140208000D01*
X124460000Y-144272000D02*
X125476000Y-144272000D01*
X125476000Y-136652000D02*
X124460000Y-137668000D01*
X113284000Y-122936000D02*
X125476000Y-135128000D01*
X124460000Y-137668000D02*
X124460000Y-138684000D01*
X113284000Y-119888000D02*
X113284000Y-122936000D01*
X114300000Y-118872000D02*
X113284000Y-119888000D01*
X118364000Y-118872000D02*
X114300000Y-118872000D01*
X119790000Y-117446000D02*
X118364000Y-118872000D01*
X125476000Y-135128000D02*
X125476000Y-136652000D01*
X119790000Y-113284000D02*
X119790000Y-117446000D01*
X118364000Y-115824000D02*
X118364000Y-114710000D01*
X118364000Y-114710000D02*
X119790000Y-113284000D01*
%TO.N,Net-(R7-Pad2)*%
X118106000Y-138684000D02*
X118364000Y-138684000D01*
X115566000Y-136144000D02*
X118106000Y-138684000D01*
X118364000Y-138684000D02*
X118364000Y-139700000D01*
X119126000Y-140462000D02*
X120526000Y-140462000D01*
X118364000Y-139700000D02*
X119126000Y-140462000D01*
%TO.N,ENC_1*%
X130048000Y-90014000D02*
X131670000Y-90014000D01*
X133096000Y-91440000D02*
X135636000Y-91440000D01*
X131670000Y-90014000D02*
X133096000Y-91440000D01*
X130023000Y-90039000D02*
X130048000Y-90014000D01*
X127000000Y-90039000D02*
X130023000Y-90039000D01*
X121412000Y-94488000D02*
X123952000Y-94488000D01*
X123952000Y-94488000D02*
X124968000Y-93472000D01*
X124968000Y-93472000D02*
X124968000Y-90424000D01*
X125353000Y-90039000D02*
X127000000Y-90039000D01*
X124968000Y-90424000D02*
X125353000Y-90039000D01*
%TO.N,LDAC*%
X115443000Y-109155000D02*
X115443000Y-107569000D01*
X116332000Y-106680000D02*
X118364000Y-106680000D01*
X115443000Y-107569000D02*
X116332000Y-106680000D01*
X116499500Y-101767500D02*
X116499500Y-98900500D01*
X116840000Y-102108000D02*
X116499500Y-101767500D01*
%TO.N,DAC_MOSI*%
X115443000Y-104205000D02*
X115443000Y-102997000D01*
X115999500Y-102440500D02*
X115999500Y-98900500D01*
X115443000Y-102997000D02*
X115999500Y-102440500D01*
%TO.N,DAC_SCK*%
X114999500Y-102424500D02*
X114999500Y-98900500D01*
X114300000Y-105156000D02*
X114300000Y-103124000D01*
X116332000Y-105664000D02*
X114808000Y-105664000D01*
X114808000Y-105664000D02*
X114300000Y-105156000D01*
X116713000Y-105283000D02*
X116332000Y-105664000D01*
X114300000Y-103124000D02*
X114999500Y-102424500D01*
X116713000Y-104205000D02*
X116713000Y-105283000D01*
%TO.N,DAC_CS*%
X113792000Y-102616000D02*
X114499500Y-101908500D01*
X113792000Y-105664000D02*
X113792000Y-102616000D01*
X114300000Y-106172000D02*
X113792000Y-105664000D01*
X117348000Y-106172000D02*
X114300000Y-106172000D01*
X117983000Y-105537000D02*
X117348000Y-106172000D01*
X114499500Y-101908500D02*
X114499500Y-98900500D01*
X117983000Y-104205000D02*
X117983000Y-105537000D01*
%TO.N,CLK_DISPLAY*%
X111779899Y-95988000D02*
X113087000Y-95988000D01*
X110744000Y-97023899D02*
X111779899Y-95988000D01*
X110744000Y-105156000D02*
X110744000Y-97023899D01*
X107696000Y-108204000D02*
X110744000Y-105156000D01*
%TO.N,DIN*%
X111268000Y-95488000D02*
X113087000Y-95488000D01*
X110236000Y-96520000D02*
X111268000Y-95488000D01*
X110236000Y-103124000D02*
X110236000Y-96520000D01*
X107696000Y-105664000D02*
X110236000Y-103124000D01*
%TO.N,DC*%
X107696000Y-103124000D02*
X109728000Y-101092000D01*
X109728000Y-101092000D02*
X109728000Y-96012000D01*
X110752000Y-94988000D02*
X113087000Y-94988000D01*
X109728000Y-96012000D02*
X110752000Y-94988000D01*
%TO.N,RST_DISPLAY*%
X107696000Y-98044000D02*
X107696000Y-96012000D01*
X109220000Y-94488000D02*
X113087000Y-94488000D01*
X107696000Y-96012000D02*
X109220000Y-94488000D01*
%TO.N,ADC_U*%
X143383000Y-112522000D02*
X146558000Y-112522000D01*
X146353000Y-112317000D02*
X146558000Y-112522000D01*
X146353000Y-108712000D02*
X146353000Y-112317000D01*
X143383000Y-114681000D02*
X142748000Y-115316000D01*
X143383000Y-112522000D02*
X143383000Y-114681000D01*
X114999500Y-89853500D02*
X114999500Y-90575500D01*
X114974510Y-89828510D02*
X114999500Y-89853500D01*
X114974510Y-89747308D02*
X114974510Y-89828510D01*
X114740192Y-89512990D02*
X114974510Y-89747308D01*
X113306010Y-89512990D02*
X114740192Y-89512990D01*
X112903000Y-89916000D02*
X113306010Y-89512990D01*
X112268000Y-89916000D02*
X112903000Y-89916000D01*
X109728000Y-89916000D02*
X112268000Y-89916000D01*
X107696000Y-89600000D02*
X107888000Y-89600000D01*
X108204000Y-89916000D02*
X109728000Y-89916000D01*
X107888000Y-89600000D02*
X108204000Y-89916000D01*
%TO.N,ADC_I*%
X115499500Y-90575500D02*
X115499500Y-89463090D01*
X115499500Y-89463090D02*
X114023751Y-87987341D01*
X114023751Y-87987341D02*
X113679339Y-87987341D01*
X113679339Y-87987341D02*
X113279340Y-88387340D01*
X113279340Y-88387340D02*
X112776000Y-87884000D01*
X112776000Y-87884000D02*
X111252000Y-87884000D01*
X118491000Y-136144000D02*
X120445000Y-136144000D01*
X119380000Y-133604000D02*
X117348000Y-133604000D01*
X120445000Y-134669000D02*
X120445000Y-136144000D01*
X119380000Y-133604000D02*
X120445000Y-134669000D01*
%TO.N,Net-(C6-Pad1)*%
X117499500Y-87345500D02*
X117499500Y-90575500D01*
X117022000Y-86868000D02*
X117499500Y-87345500D01*
X114990000Y-84836000D02*
X117022000Y-86868000D01*
X114300000Y-84836000D02*
X114990000Y-84836000D01*
%TO.N,Net-(C5-Pad1)*%
X120904000Y-86686000D02*
X120722000Y-86868000D01*
X120904000Y-83312000D02*
X120904000Y-86686000D01*
X117999500Y-89590500D02*
X117999500Y-90575500D01*
X120722000Y-86868000D02*
X117999500Y-89590500D01*
%TO.N,SWCLK*%
X121460000Y-97536000D02*
X121412000Y-97488000D01*
X122428000Y-97536000D02*
X121460000Y-97536000D01*
X122936000Y-98044000D02*
X122428000Y-97536000D01*
X122936000Y-98552000D02*
X122936000Y-98044000D01*
%TO.N,SWDIO*%
X118999500Y-100964500D02*
X118876660Y-101087340D01*
X118999500Y-98900500D02*
X118999500Y-100964500D01*
%TO.N,Net-(C12-Pad1)*%
X151353590Y-89916000D02*
X146781590Y-85344000D01*
X151384000Y-89916000D02*
X151353590Y-89916000D01*
X146781590Y-85344000D02*
X146255000Y-85344000D01*
X152076010Y-90608010D02*
X151384000Y-89916000D01*
X152076010Y-103832990D02*
X152076010Y-90608010D01*
X150876000Y-105033000D02*
X152076010Y-103832990D01*
D42*
%TO.N,V_in*%
X135498000Y-112072000D02*
X135683000Y-111887000D01*
X135498000Y-131572000D02*
X135498000Y-112072000D01*
D39*
X135683000Y-111887000D02*
X138303000Y-111887000D01*
X138938000Y-112522000D02*
X140458000Y-112522000D01*
X138303000Y-111887000D02*
X138938000Y-112522000D01*
X140458000Y-108962000D02*
X140208000Y-108712000D01*
X140458000Y-112522000D02*
X140458000Y-108962000D01*
X144208000Y-104712000D02*
X144208000Y-104648000D01*
X140208000Y-108712000D02*
X144208000Y-104712000D01*
%TO.N,SD_detected*%
X99537000Y-87530000D02*
X99691000Y-87376000D01*
X99666000Y-87351000D02*
X99691000Y-87376000D01*
X99666000Y-84328000D02*
X99666000Y-87351000D01*
X99691000Y-87376000D02*
X101215000Y-88900000D01*
X101215000Y-88900000D02*
X104140000Y-88900000D01*
X107228000Y-91988000D02*
X113087000Y-91988000D01*
X104140000Y-88900000D02*
X107228000Y-91988000D01*
X95271000Y-94101000D02*
X95504000Y-93868000D01*
X94271000Y-94101000D02*
X95271000Y-94101000D01*
X95504000Y-93868000D02*
X95504000Y-89916000D01*
X98044000Y-87376000D02*
X99691000Y-87376000D01*
X95504000Y-89916000D02*
X98044000Y-87376000D01*
X95504000Y-87376000D02*
X98044000Y-87376000D01*
%TO.N,Net-(J6-Pad2)*%
X110490000Y-134874000D02*
X111379000Y-134874000D01*
X103632000Y-141732000D02*
X110490000Y-134874000D01*
X103632000Y-146304000D02*
X103632000Y-141732000D01*
%TO.N,Net-(J6-Pad1)*%
X111125000Y-128524000D02*
X111379000Y-128270000D01*
X104648000Y-128524000D02*
X111125000Y-128524000D01*
X101092000Y-132080000D02*
X104648000Y-128524000D01*
X101092000Y-146304000D02*
X101092000Y-132080000D01*
D40*
%TO.N,Net-(J7-Pad2)*%
X123444000Y-110744000D02*
X123444000Y-109220000D01*
X126492000Y-106172000D02*
X128016000Y-106172000D01*
X123444000Y-109220000D02*
X126492000Y-106172000D01*
D39*
%TO.N,FAN*%
X121412000Y-96988000D02*
X123404000Y-96988000D01*
X123404000Y-96988000D02*
X123952000Y-97536000D01*
X121920000Y-100641002D02*
X121920000Y-101600000D01*
X123952000Y-98609002D02*
X121920000Y-100641002D01*
X123952000Y-97536000D02*
X123952000Y-98609002D01*
%TO.N,Net-(Q2-Pad2)*%
X124968000Y-104525000D02*
X121920000Y-104525000D01*
X124968000Y-104525000D02*
X128909000Y-104525000D01*
X129286000Y-104902000D02*
X129286000Y-106172000D01*
X128909000Y-104525000D02*
X129286000Y-104902000D01*
X121920000Y-107188000D02*
X121920000Y-104525000D01*
%TD*%
M02*
