%TF.GenerationSoftware,KiCad,Pcbnew,(5.1.10)-1*%
%TF.CreationDate,2021-08-06T22:34:04+03:00*%
%TF.ProjectId,electronic_load,656c6563-7472-46f6-9e69-635f6c6f6164,rev?*%
%TF.SameCoordinates,Original*%
%TF.FileFunction,Paste,Top*%
%TF.FilePolarity,Positive*%
%FSLAX46Y46*%
G04 Gerber Fmt 4.6, Leading zero omitted, Abs format (unit mm)*
G04 Created by KiCad (PCBNEW (5.1.10)-1) date 2021-08-06 22:34:04*
%MOMM*%
%LPD*%
G01*
G04 APERTURE LIST*
%ADD10R,0.700000X0.600000*%
%ADD11R,0.600000X0.700000*%
%ADD12R,2.800000X1.500000*%
%ADD13R,1.500000X0.700000*%
%ADD14R,1.500000X1.000000*%
%ADD15R,2.500000X1.800000*%
%ADD16R,2.000000X2.400000*%
%ADD17R,1.500000X2.000000*%
%ADD18R,3.800000X2.000000*%
G04 APERTURE END LIST*
%TO.C,R8*%
G36*
G01*
X117928500Y-136769001D02*
X117928500Y-135518999D01*
G75*
G02*
X118178499Y-135269000I249999J0D01*
G01*
X118803501Y-135269000D01*
G75*
G02*
X119053500Y-135518999I0J-249999D01*
G01*
X119053500Y-136769001D01*
G75*
G02*
X118803501Y-137019000I-249999J0D01*
G01*
X118178499Y-137019000D01*
G75*
G02*
X117928500Y-136769001I0J249999D01*
G01*
G37*
G36*
G01*
X115003500Y-136769001D02*
X115003500Y-135518999D01*
G75*
G02*
X115253499Y-135269000I249999J0D01*
G01*
X115878501Y-135269000D01*
G75*
G02*
X116128500Y-135518999I0J-249999D01*
G01*
X116128500Y-136769001D01*
G75*
G02*
X115878501Y-137019000I-249999J0D01*
G01*
X115253499Y-137019000D01*
G75*
G02*
X115003500Y-136769001I0J249999D01*
G01*
G37*
%TD*%
D10*
%TO.C,D3*%
X107696000Y-89600000D03*
X107696000Y-88200000D03*
%TD*%
D11*
%TO.C,D2*%
X111252000Y-87884000D03*
X109852000Y-87884000D03*
%TD*%
%TO.C,R23*%
G36*
G01*
X125593001Y-102162500D02*
X124342999Y-102162500D01*
G75*
G02*
X124093000Y-101912501I0J249999D01*
G01*
X124093000Y-101287499D01*
G75*
G02*
X124342999Y-101037500I249999J0D01*
G01*
X125593001Y-101037500D01*
G75*
G02*
X125843000Y-101287499I0J-249999D01*
G01*
X125843000Y-101912501D01*
G75*
G02*
X125593001Y-102162500I-249999J0D01*
G01*
G37*
G36*
G01*
X125593001Y-105087500D02*
X124342999Y-105087500D01*
G75*
G02*
X124093000Y-104837501I0J249999D01*
G01*
X124093000Y-104212499D01*
G75*
G02*
X124342999Y-103962500I249999J0D01*
G01*
X125593001Y-103962500D01*
G75*
G02*
X125843000Y-104212499I0J-249999D01*
G01*
X125843000Y-104837501D01*
G75*
G02*
X125593001Y-105087500I-249999J0D01*
G01*
G37*
%TD*%
%TO.C,R12*%
G36*
G01*
X122545001Y-102162500D02*
X121294999Y-102162500D01*
G75*
G02*
X121045000Y-101912501I0J249999D01*
G01*
X121045000Y-101287499D01*
G75*
G02*
X121294999Y-101037500I249999J0D01*
G01*
X122545001Y-101037500D01*
G75*
G02*
X122795000Y-101287499I0J-249999D01*
G01*
X122795000Y-101912501D01*
G75*
G02*
X122545001Y-102162500I-249999J0D01*
G01*
G37*
G36*
G01*
X122545001Y-105087500D02*
X121294999Y-105087500D01*
G75*
G02*
X121045000Y-104837501I0J249999D01*
G01*
X121045000Y-104212499D01*
G75*
G02*
X121294999Y-103962500I249999J0D01*
G01*
X122545001Y-103962500D01*
G75*
G02*
X122795000Y-104212499I0J-249999D01*
G01*
X122795000Y-104837501D01*
G75*
G02*
X122545001Y-105087500I-249999J0D01*
G01*
G37*
%TD*%
%TO.C,C3*%
G36*
G01*
X147436000Y-134096999D02*
X147436000Y-135397001D01*
G75*
G02*
X147186001Y-135647000I-249999J0D01*
G01*
X146535999Y-135647000D01*
G75*
G02*
X146286000Y-135397001I0J249999D01*
G01*
X146286000Y-134096999D01*
G75*
G02*
X146535999Y-133847000I249999J0D01*
G01*
X147186001Y-133847000D01*
G75*
G02*
X147436000Y-134096999I0J-249999D01*
G01*
G37*
G36*
G01*
X150386000Y-134096999D02*
X150386000Y-135397001D01*
G75*
G02*
X150136001Y-135647000I-249999J0D01*
G01*
X149485999Y-135647000D01*
G75*
G02*
X149236000Y-135397001I0J249999D01*
G01*
X149236000Y-134096999D01*
G75*
G02*
X149485999Y-133847000I249999J0D01*
G01*
X150136001Y-133847000D01*
G75*
G02*
X150386000Y-134096999I0J-249999D01*
G01*
G37*
%TD*%
D12*
%TO.C,J4*%
X92471000Y-91506000D03*
X70971000Y-91506000D03*
X70971000Y-118806000D03*
X92471000Y-116606000D03*
D13*
X94271000Y-92901000D03*
X94271000Y-94101000D03*
D14*
X94271000Y-114531000D03*
X94271000Y-95401000D03*
X94271000Y-97101000D03*
X94271000Y-99531000D03*
X94271000Y-102031000D03*
X94271000Y-104531000D03*
X94271000Y-107031000D03*
X94271000Y-109531000D03*
X94271000Y-112031000D03*
%TD*%
%TO.C,C5*%
G36*
G01*
X118529000Y-82661999D02*
X118529000Y-83962001D01*
G75*
G02*
X118279001Y-84212000I-249999J0D01*
G01*
X117628999Y-84212000D01*
G75*
G02*
X117379000Y-83962001I0J249999D01*
G01*
X117379000Y-82661999D01*
G75*
G02*
X117628999Y-82412000I249999J0D01*
G01*
X118279001Y-82412000D01*
G75*
G02*
X118529000Y-82661999I0J-249999D01*
G01*
G37*
G36*
G01*
X121479000Y-82661999D02*
X121479000Y-83962001D01*
G75*
G02*
X121229001Y-84212000I-249999J0D01*
G01*
X120578999Y-84212000D01*
G75*
G02*
X120329000Y-83962001I0J249999D01*
G01*
X120329000Y-82661999D01*
G75*
G02*
X120578999Y-82412000I249999J0D01*
G01*
X121229001Y-82412000D01*
G75*
G02*
X121479000Y-82661999I0J-249999D01*
G01*
G37*
%TD*%
D15*
%TO.C,D1*%
X144208000Y-104648000D03*
X140208000Y-104648000D03*
%TD*%
D16*
%TO.C,Y1*%
X117022000Y-86868000D03*
X120722000Y-86868000D03*
%TD*%
%TO.C,U5*%
G36*
G01*
X119103000Y-108180000D02*
X119403000Y-108180000D01*
G75*
G02*
X119553000Y-108330000I0J-150000D01*
G01*
X119553000Y-109980000D01*
G75*
G02*
X119403000Y-110130000I-150000J0D01*
G01*
X119103000Y-110130000D01*
G75*
G02*
X118953000Y-109980000I0J150000D01*
G01*
X118953000Y-108330000D01*
G75*
G02*
X119103000Y-108180000I150000J0D01*
G01*
G37*
G36*
G01*
X117833000Y-108180000D02*
X118133000Y-108180000D01*
G75*
G02*
X118283000Y-108330000I0J-150000D01*
G01*
X118283000Y-109980000D01*
G75*
G02*
X118133000Y-110130000I-150000J0D01*
G01*
X117833000Y-110130000D01*
G75*
G02*
X117683000Y-109980000I0J150000D01*
G01*
X117683000Y-108330000D01*
G75*
G02*
X117833000Y-108180000I150000J0D01*
G01*
G37*
G36*
G01*
X116563000Y-108180000D02*
X116863000Y-108180000D01*
G75*
G02*
X117013000Y-108330000I0J-150000D01*
G01*
X117013000Y-109980000D01*
G75*
G02*
X116863000Y-110130000I-150000J0D01*
G01*
X116563000Y-110130000D01*
G75*
G02*
X116413000Y-109980000I0J150000D01*
G01*
X116413000Y-108330000D01*
G75*
G02*
X116563000Y-108180000I150000J0D01*
G01*
G37*
G36*
G01*
X115293000Y-108180000D02*
X115593000Y-108180000D01*
G75*
G02*
X115743000Y-108330000I0J-150000D01*
G01*
X115743000Y-109980000D01*
G75*
G02*
X115593000Y-110130000I-150000J0D01*
G01*
X115293000Y-110130000D01*
G75*
G02*
X115143000Y-109980000I0J150000D01*
G01*
X115143000Y-108330000D01*
G75*
G02*
X115293000Y-108180000I150000J0D01*
G01*
G37*
G36*
G01*
X115293000Y-103230000D02*
X115593000Y-103230000D01*
G75*
G02*
X115743000Y-103380000I0J-150000D01*
G01*
X115743000Y-105030000D01*
G75*
G02*
X115593000Y-105180000I-150000J0D01*
G01*
X115293000Y-105180000D01*
G75*
G02*
X115143000Y-105030000I0J150000D01*
G01*
X115143000Y-103380000D01*
G75*
G02*
X115293000Y-103230000I150000J0D01*
G01*
G37*
G36*
G01*
X116563000Y-103230000D02*
X116863000Y-103230000D01*
G75*
G02*
X117013000Y-103380000I0J-150000D01*
G01*
X117013000Y-105030000D01*
G75*
G02*
X116863000Y-105180000I-150000J0D01*
G01*
X116563000Y-105180000D01*
G75*
G02*
X116413000Y-105030000I0J150000D01*
G01*
X116413000Y-103380000D01*
G75*
G02*
X116563000Y-103230000I150000J0D01*
G01*
G37*
G36*
G01*
X117833000Y-103230000D02*
X118133000Y-103230000D01*
G75*
G02*
X118283000Y-103380000I0J-150000D01*
G01*
X118283000Y-105030000D01*
G75*
G02*
X118133000Y-105180000I-150000J0D01*
G01*
X117833000Y-105180000D01*
G75*
G02*
X117683000Y-105030000I0J150000D01*
G01*
X117683000Y-103380000D01*
G75*
G02*
X117833000Y-103230000I150000J0D01*
G01*
G37*
G36*
G01*
X119103000Y-103230000D02*
X119403000Y-103230000D01*
G75*
G02*
X119553000Y-103380000I0J-150000D01*
G01*
X119553000Y-105030000D01*
G75*
G02*
X119403000Y-105180000I-150000J0D01*
G01*
X119103000Y-105180000D01*
G75*
G02*
X118953000Y-105030000I0J150000D01*
G01*
X118953000Y-103380000D01*
G75*
G02*
X119103000Y-103230000I150000J0D01*
G01*
G37*
%TD*%
D17*
%TO.C,U4*%
X148068000Y-125984000D03*
X152668000Y-125984000D03*
X150368000Y-125984000D03*
D18*
X150368000Y-119684000D03*
%TD*%
%TO.C,U2*%
G36*
G01*
X120749500Y-91838000D02*
X122074500Y-91838000D01*
G75*
G02*
X122149500Y-91913000I0J-75000D01*
G01*
X122149500Y-92063000D01*
G75*
G02*
X122074500Y-92138000I-75000J0D01*
G01*
X120749500Y-92138000D01*
G75*
G02*
X120674500Y-92063000I0J75000D01*
G01*
X120674500Y-91913000D01*
G75*
G02*
X120749500Y-91838000I75000J0D01*
G01*
G37*
G36*
G01*
X120749500Y-92338000D02*
X122074500Y-92338000D01*
G75*
G02*
X122149500Y-92413000I0J-75000D01*
G01*
X122149500Y-92563000D01*
G75*
G02*
X122074500Y-92638000I-75000J0D01*
G01*
X120749500Y-92638000D01*
G75*
G02*
X120674500Y-92563000I0J75000D01*
G01*
X120674500Y-92413000D01*
G75*
G02*
X120749500Y-92338000I75000J0D01*
G01*
G37*
G36*
G01*
X120749500Y-92838000D02*
X122074500Y-92838000D01*
G75*
G02*
X122149500Y-92913000I0J-75000D01*
G01*
X122149500Y-93063000D01*
G75*
G02*
X122074500Y-93138000I-75000J0D01*
G01*
X120749500Y-93138000D01*
G75*
G02*
X120674500Y-93063000I0J75000D01*
G01*
X120674500Y-92913000D01*
G75*
G02*
X120749500Y-92838000I75000J0D01*
G01*
G37*
G36*
G01*
X120749500Y-93338000D02*
X122074500Y-93338000D01*
G75*
G02*
X122149500Y-93413000I0J-75000D01*
G01*
X122149500Y-93563000D01*
G75*
G02*
X122074500Y-93638000I-75000J0D01*
G01*
X120749500Y-93638000D01*
G75*
G02*
X120674500Y-93563000I0J75000D01*
G01*
X120674500Y-93413000D01*
G75*
G02*
X120749500Y-93338000I75000J0D01*
G01*
G37*
G36*
G01*
X120749500Y-93838000D02*
X122074500Y-93838000D01*
G75*
G02*
X122149500Y-93913000I0J-75000D01*
G01*
X122149500Y-94063000D01*
G75*
G02*
X122074500Y-94138000I-75000J0D01*
G01*
X120749500Y-94138000D01*
G75*
G02*
X120674500Y-94063000I0J75000D01*
G01*
X120674500Y-93913000D01*
G75*
G02*
X120749500Y-93838000I75000J0D01*
G01*
G37*
G36*
G01*
X120749500Y-94338000D02*
X122074500Y-94338000D01*
G75*
G02*
X122149500Y-94413000I0J-75000D01*
G01*
X122149500Y-94563000D01*
G75*
G02*
X122074500Y-94638000I-75000J0D01*
G01*
X120749500Y-94638000D01*
G75*
G02*
X120674500Y-94563000I0J75000D01*
G01*
X120674500Y-94413000D01*
G75*
G02*
X120749500Y-94338000I75000J0D01*
G01*
G37*
G36*
G01*
X120749500Y-94838000D02*
X122074500Y-94838000D01*
G75*
G02*
X122149500Y-94913000I0J-75000D01*
G01*
X122149500Y-95063000D01*
G75*
G02*
X122074500Y-95138000I-75000J0D01*
G01*
X120749500Y-95138000D01*
G75*
G02*
X120674500Y-95063000I0J75000D01*
G01*
X120674500Y-94913000D01*
G75*
G02*
X120749500Y-94838000I75000J0D01*
G01*
G37*
G36*
G01*
X120749500Y-95338000D02*
X122074500Y-95338000D01*
G75*
G02*
X122149500Y-95413000I0J-75000D01*
G01*
X122149500Y-95563000D01*
G75*
G02*
X122074500Y-95638000I-75000J0D01*
G01*
X120749500Y-95638000D01*
G75*
G02*
X120674500Y-95563000I0J75000D01*
G01*
X120674500Y-95413000D01*
G75*
G02*
X120749500Y-95338000I75000J0D01*
G01*
G37*
G36*
G01*
X120749500Y-95838000D02*
X122074500Y-95838000D01*
G75*
G02*
X122149500Y-95913000I0J-75000D01*
G01*
X122149500Y-96063000D01*
G75*
G02*
X122074500Y-96138000I-75000J0D01*
G01*
X120749500Y-96138000D01*
G75*
G02*
X120674500Y-96063000I0J75000D01*
G01*
X120674500Y-95913000D01*
G75*
G02*
X120749500Y-95838000I75000J0D01*
G01*
G37*
G36*
G01*
X120749500Y-96338000D02*
X122074500Y-96338000D01*
G75*
G02*
X122149500Y-96413000I0J-75000D01*
G01*
X122149500Y-96563000D01*
G75*
G02*
X122074500Y-96638000I-75000J0D01*
G01*
X120749500Y-96638000D01*
G75*
G02*
X120674500Y-96563000I0J75000D01*
G01*
X120674500Y-96413000D01*
G75*
G02*
X120749500Y-96338000I75000J0D01*
G01*
G37*
G36*
G01*
X120749500Y-96838000D02*
X122074500Y-96838000D01*
G75*
G02*
X122149500Y-96913000I0J-75000D01*
G01*
X122149500Y-97063000D01*
G75*
G02*
X122074500Y-97138000I-75000J0D01*
G01*
X120749500Y-97138000D01*
G75*
G02*
X120674500Y-97063000I0J75000D01*
G01*
X120674500Y-96913000D01*
G75*
G02*
X120749500Y-96838000I75000J0D01*
G01*
G37*
G36*
G01*
X120749500Y-97338000D02*
X122074500Y-97338000D01*
G75*
G02*
X122149500Y-97413000I0J-75000D01*
G01*
X122149500Y-97563000D01*
G75*
G02*
X122074500Y-97638000I-75000J0D01*
G01*
X120749500Y-97638000D01*
G75*
G02*
X120674500Y-97563000I0J75000D01*
G01*
X120674500Y-97413000D01*
G75*
G02*
X120749500Y-97338000I75000J0D01*
G01*
G37*
G36*
G01*
X119924500Y-98163000D02*
X120074500Y-98163000D01*
G75*
G02*
X120149500Y-98238000I0J-75000D01*
G01*
X120149500Y-99563000D01*
G75*
G02*
X120074500Y-99638000I-75000J0D01*
G01*
X119924500Y-99638000D01*
G75*
G02*
X119849500Y-99563000I0J75000D01*
G01*
X119849500Y-98238000D01*
G75*
G02*
X119924500Y-98163000I75000J0D01*
G01*
G37*
G36*
G01*
X119424500Y-98163000D02*
X119574500Y-98163000D01*
G75*
G02*
X119649500Y-98238000I0J-75000D01*
G01*
X119649500Y-99563000D01*
G75*
G02*
X119574500Y-99638000I-75000J0D01*
G01*
X119424500Y-99638000D01*
G75*
G02*
X119349500Y-99563000I0J75000D01*
G01*
X119349500Y-98238000D01*
G75*
G02*
X119424500Y-98163000I75000J0D01*
G01*
G37*
G36*
G01*
X118924500Y-98163000D02*
X119074500Y-98163000D01*
G75*
G02*
X119149500Y-98238000I0J-75000D01*
G01*
X119149500Y-99563000D01*
G75*
G02*
X119074500Y-99638000I-75000J0D01*
G01*
X118924500Y-99638000D01*
G75*
G02*
X118849500Y-99563000I0J75000D01*
G01*
X118849500Y-98238000D01*
G75*
G02*
X118924500Y-98163000I75000J0D01*
G01*
G37*
G36*
G01*
X118424500Y-98163000D02*
X118574500Y-98163000D01*
G75*
G02*
X118649500Y-98238000I0J-75000D01*
G01*
X118649500Y-99563000D01*
G75*
G02*
X118574500Y-99638000I-75000J0D01*
G01*
X118424500Y-99638000D01*
G75*
G02*
X118349500Y-99563000I0J75000D01*
G01*
X118349500Y-98238000D01*
G75*
G02*
X118424500Y-98163000I75000J0D01*
G01*
G37*
G36*
G01*
X117924500Y-98163000D02*
X118074500Y-98163000D01*
G75*
G02*
X118149500Y-98238000I0J-75000D01*
G01*
X118149500Y-99563000D01*
G75*
G02*
X118074500Y-99638000I-75000J0D01*
G01*
X117924500Y-99638000D01*
G75*
G02*
X117849500Y-99563000I0J75000D01*
G01*
X117849500Y-98238000D01*
G75*
G02*
X117924500Y-98163000I75000J0D01*
G01*
G37*
G36*
G01*
X117424500Y-98163000D02*
X117574500Y-98163000D01*
G75*
G02*
X117649500Y-98238000I0J-75000D01*
G01*
X117649500Y-99563000D01*
G75*
G02*
X117574500Y-99638000I-75000J0D01*
G01*
X117424500Y-99638000D01*
G75*
G02*
X117349500Y-99563000I0J75000D01*
G01*
X117349500Y-98238000D01*
G75*
G02*
X117424500Y-98163000I75000J0D01*
G01*
G37*
G36*
G01*
X116924500Y-98163000D02*
X117074500Y-98163000D01*
G75*
G02*
X117149500Y-98238000I0J-75000D01*
G01*
X117149500Y-99563000D01*
G75*
G02*
X117074500Y-99638000I-75000J0D01*
G01*
X116924500Y-99638000D01*
G75*
G02*
X116849500Y-99563000I0J75000D01*
G01*
X116849500Y-98238000D01*
G75*
G02*
X116924500Y-98163000I75000J0D01*
G01*
G37*
G36*
G01*
X116424500Y-98163000D02*
X116574500Y-98163000D01*
G75*
G02*
X116649500Y-98238000I0J-75000D01*
G01*
X116649500Y-99563000D01*
G75*
G02*
X116574500Y-99638000I-75000J0D01*
G01*
X116424500Y-99638000D01*
G75*
G02*
X116349500Y-99563000I0J75000D01*
G01*
X116349500Y-98238000D01*
G75*
G02*
X116424500Y-98163000I75000J0D01*
G01*
G37*
G36*
G01*
X115924500Y-98163000D02*
X116074500Y-98163000D01*
G75*
G02*
X116149500Y-98238000I0J-75000D01*
G01*
X116149500Y-99563000D01*
G75*
G02*
X116074500Y-99638000I-75000J0D01*
G01*
X115924500Y-99638000D01*
G75*
G02*
X115849500Y-99563000I0J75000D01*
G01*
X115849500Y-98238000D01*
G75*
G02*
X115924500Y-98163000I75000J0D01*
G01*
G37*
G36*
G01*
X115424500Y-98163000D02*
X115574500Y-98163000D01*
G75*
G02*
X115649500Y-98238000I0J-75000D01*
G01*
X115649500Y-99563000D01*
G75*
G02*
X115574500Y-99638000I-75000J0D01*
G01*
X115424500Y-99638000D01*
G75*
G02*
X115349500Y-99563000I0J75000D01*
G01*
X115349500Y-98238000D01*
G75*
G02*
X115424500Y-98163000I75000J0D01*
G01*
G37*
G36*
G01*
X114924500Y-98163000D02*
X115074500Y-98163000D01*
G75*
G02*
X115149500Y-98238000I0J-75000D01*
G01*
X115149500Y-99563000D01*
G75*
G02*
X115074500Y-99638000I-75000J0D01*
G01*
X114924500Y-99638000D01*
G75*
G02*
X114849500Y-99563000I0J75000D01*
G01*
X114849500Y-98238000D01*
G75*
G02*
X114924500Y-98163000I75000J0D01*
G01*
G37*
G36*
G01*
X114424500Y-98163000D02*
X114574500Y-98163000D01*
G75*
G02*
X114649500Y-98238000I0J-75000D01*
G01*
X114649500Y-99563000D01*
G75*
G02*
X114574500Y-99638000I-75000J0D01*
G01*
X114424500Y-99638000D01*
G75*
G02*
X114349500Y-99563000I0J75000D01*
G01*
X114349500Y-98238000D01*
G75*
G02*
X114424500Y-98163000I75000J0D01*
G01*
G37*
G36*
G01*
X112424500Y-97338000D02*
X113749500Y-97338000D01*
G75*
G02*
X113824500Y-97413000I0J-75000D01*
G01*
X113824500Y-97563000D01*
G75*
G02*
X113749500Y-97638000I-75000J0D01*
G01*
X112424500Y-97638000D01*
G75*
G02*
X112349500Y-97563000I0J75000D01*
G01*
X112349500Y-97413000D01*
G75*
G02*
X112424500Y-97338000I75000J0D01*
G01*
G37*
G36*
G01*
X112424500Y-96838000D02*
X113749500Y-96838000D01*
G75*
G02*
X113824500Y-96913000I0J-75000D01*
G01*
X113824500Y-97063000D01*
G75*
G02*
X113749500Y-97138000I-75000J0D01*
G01*
X112424500Y-97138000D01*
G75*
G02*
X112349500Y-97063000I0J75000D01*
G01*
X112349500Y-96913000D01*
G75*
G02*
X112424500Y-96838000I75000J0D01*
G01*
G37*
G36*
G01*
X112424500Y-96338000D02*
X113749500Y-96338000D01*
G75*
G02*
X113824500Y-96413000I0J-75000D01*
G01*
X113824500Y-96563000D01*
G75*
G02*
X113749500Y-96638000I-75000J0D01*
G01*
X112424500Y-96638000D01*
G75*
G02*
X112349500Y-96563000I0J75000D01*
G01*
X112349500Y-96413000D01*
G75*
G02*
X112424500Y-96338000I75000J0D01*
G01*
G37*
G36*
G01*
X112424500Y-95838000D02*
X113749500Y-95838000D01*
G75*
G02*
X113824500Y-95913000I0J-75000D01*
G01*
X113824500Y-96063000D01*
G75*
G02*
X113749500Y-96138000I-75000J0D01*
G01*
X112424500Y-96138000D01*
G75*
G02*
X112349500Y-96063000I0J75000D01*
G01*
X112349500Y-95913000D01*
G75*
G02*
X112424500Y-95838000I75000J0D01*
G01*
G37*
G36*
G01*
X112424500Y-95338000D02*
X113749500Y-95338000D01*
G75*
G02*
X113824500Y-95413000I0J-75000D01*
G01*
X113824500Y-95563000D01*
G75*
G02*
X113749500Y-95638000I-75000J0D01*
G01*
X112424500Y-95638000D01*
G75*
G02*
X112349500Y-95563000I0J75000D01*
G01*
X112349500Y-95413000D01*
G75*
G02*
X112424500Y-95338000I75000J0D01*
G01*
G37*
G36*
G01*
X112424500Y-94838000D02*
X113749500Y-94838000D01*
G75*
G02*
X113824500Y-94913000I0J-75000D01*
G01*
X113824500Y-95063000D01*
G75*
G02*
X113749500Y-95138000I-75000J0D01*
G01*
X112424500Y-95138000D01*
G75*
G02*
X112349500Y-95063000I0J75000D01*
G01*
X112349500Y-94913000D01*
G75*
G02*
X112424500Y-94838000I75000J0D01*
G01*
G37*
G36*
G01*
X112424500Y-94338000D02*
X113749500Y-94338000D01*
G75*
G02*
X113824500Y-94413000I0J-75000D01*
G01*
X113824500Y-94563000D01*
G75*
G02*
X113749500Y-94638000I-75000J0D01*
G01*
X112424500Y-94638000D01*
G75*
G02*
X112349500Y-94563000I0J75000D01*
G01*
X112349500Y-94413000D01*
G75*
G02*
X112424500Y-94338000I75000J0D01*
G01*
G37*
G36*
G01*
X112424500Y-93838000D02*
X113749500Y-93838000D01*
G75*
G02*
X113824500Y-93913000I0J-75000D01*
G01*
X113824500Y-94063000D01*
G75*
G02*
X113749500Y-94138000I-75000J0D01*
G01*
X112424500Y-94138000D01*
G75*
G02*
X112349500Y-94063000I0J75000D01*
G01*
X112349500Y-93913000D01*
G75*
G02*
X112424500Y-93838000I75000J0D01*
G01*
G37*
G36*
G01*
X112424500Y-93338000D02*
X113749500Y-93338000D01*
G75*
G02*
X113824500Y-93413000I0J-75000D01*
G01*
X113824500Y-93563000D01*
G75*
G02*
X113749500Y-93638000I-75000J0D01*
G01*
X112424500Y-93638000D01*
G75*
G02*
X112349500Y-93563000I0J75000D01*
G01*
X112349500Y-93413000D01*
G75*
G02*
X112424500Y-93338000I75000J0D01*
G01*
G37*
G36*
G01*
X112424500Y-92838000D02*
X113749500Y-92838000D01*
G75*
G02*
X113824500Y-92913000I0J-75000D01*
G01*
X113824500Y-93063000D01*
G75*
G02*
X113749500Y-93138000I-75000J0D01*
G01*
X112424500Y-93138000D01*
G75*
G02*
X112349500Y-93063000I0J75000D01*
G01*
X112349500Y-92913000D01*
G75*
G02*
X112424500Y-92838000I75000J0D01*
G01*
G37*
G36*
G01*
X112424500Y-92338000D02*
X113749500Y-92338000D01*
G75*
G02*
X113824500Y-92413000I0J-75000D01*
G01*
X113824500Y-92563000D01*
G75*
G02*
X113749500Y-92638000I-75000J0D01*
G01*
X112424500Y-92638000D01*
G75*
G02*
X112349500Y-92563000I0J75000D01*
G01*
X112349500Y-92413000D01*
G75*
G02*
X112424500Y-92338000I75000J0D01*
G01*
G37*
G36*
G01*
X112424500Y-91838000D02*
X113749500Y-91838000D01*
G75*
G02*
X113824500Y-91913000I0J-75000D01*
G01*
X113824500Y-92063000D01*
G75*
G02*
X113749500Y-92138000I-75000J0D01*
G01*
X112424500Y-92138000D01*
G75*
G02*
X112349500Y-92063000I0J75000D01*
G01*
X112349500Y-91913000D01*
G75*
G02*
X112424500Y-91838000I75000J0D01*
G01*
G37*
G36*
G01*
X114424500Y-89838000D02*
X114574500Y-89838000D01*
G75*
G02*
X114649500Y-89913000I0J-75000D01*
G01*
X114649500Y-91238000D01*
G75*
G02*
X114574500Y-91313000I-75000J0D01*
G01*
X114424500Y-91313000D01*
G75*
G02*
X114349500Y-91238000I0J75000D01*
G01*
X114349500Y-89913000D01*
G75*
G02*
X114424500Y-89838000I75000J0D01*
G01*
G37*
G36*
G01*
X114924500Y-89838000D02*
X115074500Y-89838000D01*
G75*
G02*
X115149500Y-89913000I0J-75000D01*
G01*
X115149500Y-91238000D01*
G75*
G02*
X115074500Y-91313000I-75000J0D01*
G01*
X114924500Y-91313000D01*
G75*
G02*
X114849500Y-91238000I0J75000D01*
G01*
X114849500Y-89913000D01*
G75*
G02*
X114924500Y-89838000I75000J0D01*
G01*
G37*
G36*
G01*
X115424500Y-89838000D02*
X115574500Y-89838000D01*
G75*
G02*
X115649500Y-89913000I0J-75000D01*
G01*
X115649500Y-91238000D01*
G75*
G02*
X115574500Y-91313000I-75000J0D01*
G01*
X115424500Y-91313000D01*
G75*
G02*
X115349500Y-91238000I0J75000D01*
G01*
X115349500Y-89913000D01*
G75*
G02*
X115424500Y-89838000I75000J0D01*
G01*
G37*
G36*
G01*
X115924500Y-89838000D02*
X116074500Y-89838000D01*
G75*
G02*
X116149500Y-89913000I0J-75000D01*
G01*
X116149500Y-91238000D01*
G75*
G02*
X116074500Y-91313000I-75000J0D01*
G01*
X115924500Y-91313000D01*
G75*
G02*
X115849500Y-91238000I0J75000D01*
G01*
X115849500Y-89913000D01*
G75*
G02*
X115924500Y-89838000I75000J0D01*
G01*
G37*
G36*
G01*
X116424500Y-89838000D02*
X116574500Y-89838000D01*
G75*
G02*
X116649500Y-89913000I0J-75000D01*
G01*
X116649500Y-91238000D01*
G75*
G02*
X116574500Y-91313000I-75000J0D01*
G01*
X116424500Y-91313000D01*
G75*
G02*
X116349500Y-91238000I0J75000D01*
G01*
X116349500Y-89913000D01*
G75*
G02*
X116424500Y-89838000I75000J0D01*
G01*
G37*
G36*
G01*
X116924500Y-89838000D02*
X117074500Y-89838000D01*
G75*
G02*
X117149500Y-89913000I0J-75000D01*
G01*
X117149500Y-91238000D01*
G75*
G02*
X117074500Y-91313000I-75000J0D01*
G01*
X116924500Y-91313000D01*
G75*
G02*
X116849500Y-91238000I0J75000D01*
G01*
X116849500Y-89913000D01*
G75*
G02*
X116924500Y-89838000I75000J0D01*
G01*
G37*
G36*
G01*
X117424500Y-89838000D02*
X117574500Y-89838000D01*
G75*
G02*
X117649500Y-89913000I0J-75000D01*
G01*
X117649500Y-91238000D01*
G75*
G02*
X117574500Y-91313000I-75000J0D01*
G01*
X117424500Y-91313000D01*
G75*
G02*
X117349500Y-91238000I0J75000D01*
G01*
X117349500Y-89913000D01*
G75*
G02*
X117424500Y-89838000I75000J0D01*
G01*
G37*
G36*
G01*
X117924500Y-89838000D02*
X118074500Y-89838000D01*
G75*
G02*
X118149500Y-89913000I0J-75000D01*
G01*
X118149500Y-91238000D01*
G75*
G02*
X118074500Y-91313000I-75000J0D01*
G01*
X117924500Y-91313000D01*
G75*
G02*
X117849500Y-91238000I0J75000D01*
G01*
X117849500Y-89913000D01*
G75*
G02*
X117924500Y-89838000I75000J0D01*
G01*
G37*
G36*
G01*
X118424500Y-89838000D02*
X118574500Y-89838000D01*
G75*
G02*
X118649500Y-89913000I0J-75000D01*
G01*
X118649500Y-91238000D01*
G75*
G02*
X118574500Y-91313000I-75000J0D01*
G01*
X118424500Y-91313000D01*
G75*
G02*
X118349500Y-91238000I0J75000D01*
G01*
X118349500Y-89913000D01*
G75*
G02*
X118424500Y-89838000I75000J0D01*
G01*
G37*
G36*
G01*
X118924500Y-89838000D02*
X119074500Y-89838000D01*
G75*
G02*
X119149500Y-89913000I0J-75000D01*
G01*
X119149500Y-91238000D01*
G75*
G02*
X119074500Y-91313000I-75000J0D01*
G01*
X118924500Y-91313000D01*
G75*
G02*
X118849500Y-91238000I0J75000D01*
G01*
X118849500Y-89913000D01*
G75*
G02*
X118924500Y-89838000I75000J0D01*
G01*
G37*
G36*
G01*
X119424500Y-89838000D02*
X119574500Y-89838000D01*
G75*
G02*
X119649500Y-89913000I0J-75000D01*
G01*
X119649500Y-91238000D01*
G75*
G02*
X119574500Y-91313000I-75000J0D01*
G01*
X119424500Y-91313000D01*
G75*
G02*
X119349500Y-91238000I0J75000D01*
G01*
X119349500Y-89913000D01*
G75*
G02*
X119424500Y-89838000I75000J0D01*
G01*
G37*
G36*
G01*
X119924500Y-89838000D02*
X120074500Y-89838000D01*
G75*
G02*
X120149500Y-89913000I0J-75000D01*
G01*
X120149500Y-91238000D01*
G75*
G02*
X120074500Y-91313000I-75000J0D01*
G01*
X119924500Y-91313000D01*
G75*
G02*
X119849500Y-91238000I0J75000D01*
G01*
X119849500Y-89913000D01*
G75*
G02*
X119924500Y-89838000I75000J0D01*
G01*
G37*
%TD*%
%TO.C,U1*%
G36*
G01*
X124501000Y-140612000D02*
X124501000Y-140312000D01*
G75*
G02*
X124651000Y-140162000I150000J0D01*
G01*
X126301000Y-140162000D01*
G75*
G02*
X126451000Y-140312000I0J-150000D01*
G01*
X126451000Y-140612000D01*
G75*
G02*
X126301000Y-140762000I-150000J0D01*
G01*
X124651000Y-140762000D01*
G75*
G02*
X124501000Y-140612000I0J150000D01*
G01*
G37*
G36*
G01*
X124501000Y-141882000D02*
X124501000Y-141582000D01*
G75*
G02*
X124651000Y-141432000I150000J0D01*
G01*
X126301000Y-141432000D01*
G75*
G02*
X126451000Y-141582000I0J-150000D01*
G01*
X126451000Y-141882000D01*
G75*
G02*
X126301000Y-142032000I-150000J0D01*
G01*
X124651000Y-142032000D01*
G75*
G02*
X124501000Y-141882000I0J150000D01*
G01*
G37*
G36*
G01*
X124501000Y-143152000D02*
X124501000Y-142852000D01*
G75*
G02*
X124651000Y-142702000I150000J0D01*
G01*
X126301000Y-142702000D01*
G75*
G02*
X126451000Y-142852000I0J-150000D01*
G01*
X126451000Y-143152000D01*
G75*
G02*
X126301000Y-143302000I-150000J0D01*
G01*
X124651000Y-143302000D01*
G75*
G02*
X124501000Y-143152000I0J150000D01*
G01*
G37*
G36*
G01*
X124501000Y-144422000D02*
X124501000Y-144122000D01*
G75*
G02*
X124651000Y-143972000I150000J0D01*
G01*
X126301000Y-143972000D01*
G75*
G02*
X126451000Y-144122000I0J-150000D01*
G01*
X126451000Y-144422000D01*
G75*
G02*
X126301000Y-144572000I-150000J0D01*
G01*
X124651000Y-144572000D01*
G75*
G02*
X124501000Y-144422000I0J150000D01*
G01*
G37*
G36*
G01*
X119551000Y-144422000D02*
X119551000Y-144122000D01*
G75*
G02*
X119701000Y-143972000I150000J0D01*
G01*
X121351000Y-143972000D01*
G75*
G02*
X121501000Y-144122000I0J-150000D01*
G01*
X121501000Y-144422000D01*
G75*
G02*
X121351000Y-144572000I-150000J0D01*
G01*
X119701000Y-144572000D01*
G75*
G02*
X119551000Y-144422000I0J150000D01*
G01*
G37*
G36*
G01*
X119551000Y-143152000D02*
X119551000Y-142852000D01*
G75*
G02*
X119701000Y-142702000I150000J0D01*
G01*
X121351000Y-142702000D01*
G75*
G02*
X121501000Y-142852000I0J-150000D01*
G01*
X121501000Y-143152000D01*
G75*
G02*
X121351000Y-143302000I-150000J0D01*
G01*
X119701000Y-143302000D01*
G75*
G02*
X119551000Y-143152000I0J150000D01*
G01*
G37*
G36*
G01*
X119551000Y-141882000D02*
X119551000Y-141582000D01*
G75*
G02*
X119701000Y-141432000I150000J0D01*
G01*
X121351000Y-141432000D01*
G75*
G02*
X121501000Y-141582000I0J-150000D01*
G01*
X121501000Y-141882000D01*
G75*
G02*
X121351000Y-142032000I-150000J0D01*
G01*
X119701000Y-142032000D01*
G75*
G02*
X119551000Y-141882000I0J150000D01*
G01*
G37*
G36*
G01*
X119551000Y-140612000D02*
X119551000Y-140312000D01*
G75*
G02*
X119701000Y-140162000I150000J0D01*
G01*
X121351000Y-140162000D01*
G75*
G02*
X121501000Y-140312000I0J-150000D01*
G01*
X121501000Y-140612000D01*
G75*
G02*
X121351000Y-140762000I-150000J0D01*
G01*
X119701000Y-140762000D01*
G75*
G02*
X119551000Y-140612000I0J150000D01*
G01*
G37*
%TD*%
%TO.C,R22*%
G36*
G01*
X150250999Y-104470500D02*
X151501001Y-104470500D01*
G75*
G02*
X151751000Y-104720499I0J-249999D01*
G01*
X151751000Y-105345501D01*
G75*
G02*
X151501001Y-105595500I-249999J0D01*
G01*
X150250999Y-105595500D01*
G75*
G02*
X150001000Y-105345501I0J249999D01*
G01*
X150001000Y-104720499D01*
G75*
G02*
X150250999Y-104470500I249999J0D01*
G01*
G37*
G36*
G01*
X150250999Y-101545500D02*
X151501001Y-101545500D01*
G75*
G02*
X151751000Y-101795499I0J-249999D01*
G01*
X151751000Y-102420501D01*
G75*
G02*
X151501001Y-102670500I-249999J0D01*
G01*
X150250999Y-102670500D01*
G75*
G02*
X150001000Y-102420501I0J249999D01*
G01*
X150001000Y-101795499D01*
G75*
G02*
X150250999Y-101545500I249999J0D01*
G01*
G37*
%TD*%
%TO.C,R21*%
G36*
G01*
X148961001Y-102670500D02*
X147710999Y-102670500D01*
G75*
G02*
X147461000Y-102420501I0J249999D01*
G01*
X147461000Y-101795499D01*
G75*
G02*
X147710999Y-101545500I249999J0D01*
G01*
X148961001Y-101545500D01*
G75*
G02*
X149211000Y-101795499I0J-249999D01*
G01*
X149211000Y-102420501D01*
G75*
G02*
X148961001Y-102670500I-249999J0D01*
G01*
G37*
G36*
G01*
X148961001Y-105595500D02*
X147710999Y-105595500D01*
G75*
G02*
X147461000Y-105345501I0J249999D01*
G01*
X147461000Y-104720499D01*
G75*
G02*
X147710999Y-104470500I249999J0D01*
G01*
X148961001Y-104470500D01*
G75*
G02*
X149211000Y-104720499I0J-249999D01*
G01*
X149211000Y-105345501D01*
G75*
G02*
X148961001Y-105595500I-249999J0D01*
G01*
G37*
%TD*%
%TO.C,R20*%
G36*
G01*
X127625001Y-90601500D02*
X126374999Y-90601500D01*
G75*
G02*
X126125000Y-90351501I0J249999D01*
G01*
X126125000Y-89726499D01*
G75*
G02*
X126374999Y-89476500I249999J0D01*
G01*
X127625001Y-89476500D01*
G75*
G02*
X127875000Y-89726499I0J-249999D01*
G01*
X127875000Y-90351501D01*
G75*
G02*
X127625001Y-90601500I-249999J0D01*
G01*
G37*
G36*
G01*
X127625001Y-93526500D02*
X126374999Y-93526500D01*
G75*
G02*
X126125000Y-93276501I0J249999D01*
G01*
X126125000Y-92651499D01*
G75*
G02*
X126374999Y-92401500I249999J0D01*
G01*
X127625001Y-92401500D01*
G75*
G02*
X127875000Y-92651499I0J-249999D01*
G01*
X127875000Y-93276501D01*
G75*
G02*
X127625001Y-93526500I-249999J0D01*
G01*
G37*
%TD*%
%TO.C,R19*%
G36*
G01*
X126374999Y-98497500D02*
X127625001Y-98497500D01*
G75*
G02*
X127875000Y-98747499I0J-249999D01*
G01*
X127875000Y-99372501D01*
G75*
G02*
X127625001Y-99622500I-249999J0D01*
G01*
X126374999Y-99622500D01*
G75*
G02*
X126125000Y-99372501I0J249999D01*
G01*
X126125000Y-98747499D01*
G75*
G02*
X126374999Y-98497500I249999J0D01*
G01*
G37*
G36*
G01*
X126374999Y-95572500D02*
X127625001Y-95572500D01*
G75*
G02*
X127875000Y-95822499I0J-249999D01*
G01*
X127875000Y-96447501D01*
G75*
G02*
X127625001Y-96697500I-249999J0D01*
G01*
X126374999Y-96697500D01*
G75*
G02*
X126125000Y-96447501I0J249999D01*
G01*
X126125000Y-95822499D01*
G75*
G02*
X126374999Y-95572500I249999J0D01*
G01*
G37*
%TD*%
%TO.C,R18*%
G36*
G01*
X100253500Y-93862999D02*
X100253500Y-95113001D01*
G75*
G02*
X100003501Y-95363000I-249999J0D01*
G01*
X99378499Y-95363000D01*
G75*
G02*
X99128500Y-95113001I0J249999D01*
G01*
X99128500Y-93862999D01*
G75*
G02*
X99378499Y-93613000I249999J0D01*
G01*
X100003501Y-93613000D01*
G75*
G02*
X100253500Y-93862999I0J-249999D01*
G01*
G37*
G36*
G01*
X103178500Y-93862999D02*
X103178500Y-95113001D01*
G75*
G02*
X102928501Y-95363000I-249999J0D01*
G01*
X102303499Y-95363000D01*
G75*
G02*
X102053500Y-95113001I0J249999D01*
G01*
X102053500Y-93862999D01*
G75*
G02*
X102303499Y-93613000I249999J0D01*
G01*
X102928501Y-93613000D01*
G75*
G02*
X103178500Y-93862999I0J-249999D01*
G01*
G37*
%TD*%
%TO.C,R17*%
G36*
G01*
X100253500Y-89798999D02*
X100253500Y-91049001D01*
G75*
G02*
X100003501Y-91299000I-249999J0D01*
G01*
X99378499Y-91299000D01*
G75*
G02*
X99128500Y-91049001I0J249999D01*
G01*
X99128500Y-89798999D01*
G75*
G02*
X99378499Y-89549000I249999J0D01*
G01*
X100003501Y-89549000D01*
G75*
G02*
X100253500Y-89798999I0J-249999D01*
G01*
G37*
G36*
G01*
X103178500Y-89798999D02*
X103178500Y-91049001D01*
G75*
G02*
X102928501Y-91299000I-249999J0D01*
G01*
X102303499Y-91299000D01*
G75*
G02*
X102053500Y-91049001I0J249999D01*
G01*
X102053500Y-89798999D01*
G75*
G02*
X102303499Y-89549000I249999J0D01*
G01*
X102928501Y-89549000D01*
G75*
G02*
X103178500Y-89798999I0J-249999D01*
G01*
G37*
%TD*%
%TO.C,R16*%
G36*
G01*
X100253500Y-102498999D02*
X100253500Y-103749001D01*
G75*
G02*
X100003501Y-103999000I-249999J0D01*
G01*
X99378499Y-103999000D01*
G75*
G02*
X99128500Y-103749001I0J249999D01*
G01*
X99128500Y-102498999D01*
G75*
G02*
X99378499Y-102249000I249999J0D01*
G01*
X100003501Y-102249000D01*
G75*
G02*
X100253500Y-102498999I0J-249999D01*
G01*
G37*
G36*
G01*
X103178500Y-102498999D02*
X103178500Y-103749001D01*
G75*
G02*
X102928501Y-103999000I-249999J0D01*
G01*
X102303499Y-103999000D01*
G75*
G02*
X102053500Y-103749001I0J249999D01*
G01*
X102053500Y-102498999D01*
G75*
G02*
X102303499Y-102249000I249999J0D01*
G01*
X102928501Y-102249000D01*
G75*
G02*
X103178500Y-102498999I0J-249999D01*
G01*
G37*
%TD*%
%TO.C,R15*%
G36*
G01*
X100253500Y-107070999D02*
X100253500Y-108321001D01*
G75*
G02*
X100003501Y-108571000I-249999J0D01*
G01*
X99378499Y-108571000D01*
G75*
G02*
X99128500Y-108321001I0J249999D01*
G01*
X99128500Y-107070999D01*
G75*
G02*
X99378499Y-106821000I249999J0D01*
G01*
X100003501Y-106821000D01*
G75*
G02*
X100253500Y-107070999I0J-249999D01*
G01*
G37*
G36*
G01*
X103178500Y-107070999D02*
X103178500Y-108321001D01*
G75*
G02*
X102928501Y-108571000I-249999J0D01*
G01*
X102303499Y-108571000D01*
G75*
G02*
X102053500Y-108321001I0J249999D01*
G01*
X102053500Y-107070999D01*
G75*
G02*
X102303499Y-106821000I249999J0D01*
G01*
X102928501Y-106821000D01*
G75*
G02*
X103178500Y-107070999I0J-249999D01*
G01*
G37*
%TD*%
%TO.C,R14*%
G36*
G01*
X145932999Y-114884500D02*
X147183001Y-114884500D01*
G75*
G02*
X147433000Y-115134499I0J-249999D01*
G01*
X147433000Y-115759501D01*
G75*
G02*
X147183001Y-116009500I-249999J0D01*
G01*
X145932999Y-116009500D01*
G75*
G02*
X145683000Y-115759501I0J249999D01*
G01*
X145683000Y-115134499D01*
G75*
G02*
X145932999Y-114884500I249999J0D01*
G01*
G37*
G36*
G01*
X145932999Y-111959500D02*
X147183001Y-111959500D01*
G75*
G02*
X147433000Y-112209499I0J-249999D01*
G01*
X147433000Y-112834501D01*
G75*
G02*
X147183001Y-113084500I-249999J0D01*
G01*
X145932999Y-113084500D01*
G75*
G02*
X145683000Y-112834501I0J249999D01*
G01*
X145683000Y-112209499D01*
G75*
G02*
X145932999Y-111959500I249999J0D01*
G01*
G37*
%TD*%
%TO.C,R13*%
G36*
G01*
X142820500Y-113147001D02*
X142820500Y-111896999D01*
G75*
G02*
X143070499Y-111647000I249999J0D01*
G01*
X143695501Y-111647000D01*
G75*
G02*
X143945500Y-111896999I0J-249999D01*
G01*
X143945500Y-113147001D01*
G75*
G02*
X143695501Y-113397000I-249999J0D01*
G01*
X143070499Y-113397000D01*
G75*
G02*
X142820500Y-113147001I0J249999D01*
G01*
G37*
G36*
G01*
X139895500Y-113147001D02*
X139895500Y-111896999D01*
G75*
G02*
X140145499Y-111647000I249999J0D01*
G01*
X140770501Y-111647000D01*
G75*
G02*
X141020500Y-111896999I0J-249999D01*
G01*
X141020500Y-113147001D01*
G75*
G02*
X140770501Y-113397000I-249999J0D01*
G01*
X140145499Y-113397000D01*
G75*
G02*
X139895500Y-113147001I0J249999D01*
G01*
G37*
%TD*%
%TO.C,R11*%
G36*
G01*
X100253500Y-86750999D02*
X100253500Y-88001001D01*
G75*
G02*
X100003501Y-88251000I-249999J0D01*
G01*
X99378499Y-88251000D01*
G75*
G02*
X99128500Y-88001001I0J249999D01*
G01*
X99128500Y-86750999D01*
G75*
G02*
X99378499Y-86501000I249999J0D01*
G01*
X100003501Y-86501000D01*
G75*
G02*
X100253500Y-86750999I0J-249999D01*
G01*
G37*
G36*
G01*
X103178500Y-86750999D02*
X103178500Y-88001001D01*
G75*
G02*
X102928501Y-88251000I-249999J0D01*
G01*
X102303499Y-88251000D01*
G75*
G02*
X102053500Y-88001001I0J249999D01*
G01*
X102053500Y-86750999D01*
G75*
G02*
X102303499Y-86501000I249999J0D01*
G01*
X102928501Y-86501000D01*
G75*
G02*
X103178500Y-86750999I0J-249999D01*
G01*
G37*
%TD*%
%TO.C,R10*%
G36*
G01*
X123328000Y-147437001D02*
X123328000Y-146186999D01*
G75*
G02*
X123577999Y-145937000I249999J0D01*
G01*
X124203001Y-145937000D01*
G75*
G02*
X124453000Y-146186999I0J-249999D01*
G01*
X124453000Y-147437001D01*
G75*
G02*
X124203001Y-147687000I-249999J0D01*
G01*
X123577999Y-147687000D01*
G75*
G02*
X123328000Y-147437001I0J249999D01*
G01*
G37*
G36*
G01*
X120403000Y-147437001D02*
X120403000Y-146186999D01*
G75*
G02*
X120652999Y-145937000I249999J0D01*
G01*
X121278001Y-145937000D01*
G75*
G02*
X121528000Y-146186999I0J-249999D01*
G01*
X121528000Y-147437001D01*
G75*
G02*
X121278001Y-147687000I-249999J0D01*
G01*
X120652999Y-147687000D01*
G75*
G02*
X120403000Y-147437001I0J249999D01*
G01*
G37*
%TD*%
%TO.C,R9*%
G36*
G01*
X118248000Y-147437001D02*
X118248000Y-146186999D01*
G75*
G02*
X118497999Y-145937000I249999J0D01*
G01*
X119123001Y-145937000D01*
G75*
G02*
X119373000Y-146186999I0J-249999D01*
G01*
X119373000Y-147437001D01*
G75*
G02*
X119123001Y-147687000I-249999J0D01*
G01*
X118497999Y-147687000D01*
G75*
G02*
X118248000Y-147437001I0J249999D01*
G01*
G37*
G36*
G01*
X115323000Y-147437001D02*
X115323000Y-146186999D01*
G75*
G02*
X115572999Y-145937000I249999J0D01*
G01*
X116198001Y-145937000D01*
G75*
G02*
X116448000Y-146186999I0J-249999D01*
G01*
X116448000Y-147437001D01*
G75*
G02*
X116198001Y-147687000I-249999J0D01*
G01*
X115572999Y-147687000D01*
G75*
G02*
X115323000Y-147437001I0J249999D01*
G01*
G37*
%TD*%
%TO.C,R7*%
G36*
G01*
X117801500Y-139309001D02*
X117801500Y-138058999D01*
G75*
G02*
X118051499Y-137809000I249999J0D01*
G01*
X118676501Y-137809000D01*
G75*
G02*
X118926500Y-138058999I0J-249999D01*
G01*
X118926500Y-139309001D01*
G75*
G02*
X118676501Y-139559000I-249999J0D01*
G01*
X118051499Y-139559000D01*
G75*
G02*
X117801500Y-139309001I0J249999D01*
G01*
G37*
G36*
G01*
X114876500Y-139309001D02*
X114876500Y-138058999D01*
G75*
G02*
X115126499Y-137809000I249999J0D01*
G01*
X115751501Y-137809000D01*
G75*
G02*
X116001500Y-138058999I0J-249999D01*
G01*
X116001500Y-139309001D01*
G75*
G02*
X115751501Y-139559000I-249999J0D01*
G01*
X115126499Y-139559000D01*
G75*
G02*
X114876500Y-139309001I0J249999D01*
G01*
G37*
%TD*%
%TO.C,R6*%
G36*
G01*
X116449001Y-141909500D02*
X115198999Y-141909500D01*
G75*
G02*
X114949000Y-141659501I0J249999D01*
G01*
X114949000Y-141034499D01*
G75*
G02*
X115198999Y-140784500I249999J0D01*
G01*
X116449001Y-140784500D01*
G75*
G02*
X116699000Y-141034499I0J-249999D01*
G01*
X116699000Y-141659501D01*
G75*
G02*
X116449001Y-141909500I-249999J0D01*
G01*
G37*
G36*
G01*
X116449001Y-144834500D02*
X115198999Y-144834500D01*
G75*
G02*
X114949000Y-144584501I0J249999D01*
G01*
X114949000Y-143959499D01*
G75*
G02*
X115198999Y-143709500I249999J0D01*
G01*
X116449001Y-143709500D01*
G75*
G02*
X116699000Y-143959499I0J-249999D01*
G01*
X116699000Y-144584501D01*
G75*
G02*
X116449001Y-144834500I-249999J0D01*
G01*
G37*
%TD*%
%TO.C,R5*%
G36*
G01*
X130505500Y-146802001D02*
X130505500Y-145551999D01*
G75*
G02*
X130755499Y-145302000I249999J0D01*
G01*
X131380501Y-145302000D01*
G75*
G02*
X131630500Y-145551999I0J-249999D01*
G01*
X131630500Y-146802001D01*
G75*
G02*
X131380501Y-147052000I-249999J0D01*
G01*
X130755499Y-147052000D01*
G75*
G02*
X130505500Y-146802001I0J249999D01*
G01*
G37*
G36*
G01*
X127580500Y-146802001D02*
X127580500Y-145551999D01*
G75*
G02*
X127830499Y-145302000I249999J0D01*
G01*
X128455501Y-145302000D01*
G75*
G02*
X128705500Y-145551999I0J-249999D01*
G01*
X128705500Y-146802001D01*
G75*
G02*
X128455501Y-147052000I-249999J0D01*
G01*
X127830499Y-147052000D01*
G75*
G02*
X127580500Y-146802001I0J249999D01*
G01*
G37*
%TD*%
%TO.C,R4*%
G36*
G01*
X130165001Y-140639500D02*
X128914999Y-140639500D01*
G75*
G02*
X128665000Y-140389501I0J249999D01*
G01*
X128665000Y-139764499D01*
G75*
G02*
X128914999Y-139514500I249999J0D01*
G01*
X130165001Y-139514500D01*
G75*
G02*
X130415000Y-139764499I0J-249999D01*
G01*
X130415000Y-140389501D01*
G75*
G02*
X130165001Y-140639500I-249999J0D01*
G01*
G37*
G36*
G01*
X130165001Y-143564500D02*
X128914999Y-143564500D01*
G75*
G02*
X128665000Y-143314501I0J249999D01*
G01*
X128665000Y-142689499D01*
G75*
G02*
X128914999Y-142439500I249999J0D01*
G01*
X130165001Y-142439500D01*
G75*
G02*
X130415000Y-142689499I0J-249999D01*
G01*
X130415000Y-143314501D01*
G75*
G02*
X130165001Y-143564500I-249999J0D01*
G01*
G37*
%TD*%
%TO.C,R2*%
G36*
G01*
X136028000Y-137912001D02*
X136028000Y-136661999D01*
G75*
G02*
X136277999Y-136412000I249999J0D01*
G01*
X136903001Y-136412000D01*
G75*
G02*
X137153000Y-136661999I0J-249999D01*
G01*
X137153000Y-137912001D01*
G75*
G02*
X136903001Y-138162000I-249999J0D01*
G01*
X136277999Y-138162000D01*
G75*
G02*
X136028000Y-137912001I0J249999D01*
G01*
G37*
G36*
G01*
X133103000Y-137912001D02*
X133103000Y-136661999D01*
G75*
G02*
X133352999Y-136412000I249999J0D01*
G01*
X133978001Y-136412000D01*
G75*
G02*
X134228000Y-136661999I0J-249999D01*
G01*
X134228000Y-137912001D01*
G75*
G02*
X133978001Y-138162000I-249999J0D01*
G01*
X133352999Y-138162000D01*
G75*
G02*
X133103000Y-137912001I0J249999D01*
G01*
G37*
%TD*%
%TO.C,R1*%
G36*
G01*
X130313000Y-137912001D02*
X130313000Y-136661999D01*
G75*
G02*
X130562999Y-136412000I249999J0D01*
G01*
X131188001Y-136412000D01*
G75*
G02*
X131438000Y-136661999I0J-249999D01*
G01*
X131438000Y-137912001D01*
G75*
G02*
X131188001Y-138162000I-249999J0D01*
G01*
X130562999Y-138162000D01*
G75*
G02*
X130313000Y-137912001I0J249999D01*
G01*
G37*
G36*
G01*
X127388000Y-137912001D02*
X127388000Y-136661999D01*
G75*
G02*
X127637999Y-136412000I249999J0D01*
G01*
X128263001Y-136412000D01*
G75*
G02*
X128513000Y-136661999I0J-249999D01*
G01*
X128513000Y-137912001D01*
G75*
G02*
X128263001Y-138162000I-249999J0D01*
G01*
X127637999Y-138162000D01*
G75*
G02*
X127388000Y-137912001I0J249999D01*
G01*
G37*
%TD*%
%TO.C,C16*%
G36*
G01*
X102041000Y-84978001D02*
X102041000Y-83677999D01*
G75*
G02*
X102290999Y-83428000I249999J0D01*
G01*
X102941001Y-83428000D01*
G75*
G02*
X103191000Y-83677999I0J-249999D01*
G01*
X103191000Y-84978001D01*
G75*
G02*
X102941001Y-85228000I-249999J0D01*
G01*
X102290999Y-85228000D01*
G75*
G02*
X102041000Y-84978001I0J249999D01*
G01*
G37*
G36*
G01*
X99091000Y-84978001D02*
X99091000Y-83677999D01*
G75*
G02*
X99340999Y-83428000I249999J0D01*
G01*
X99991001Y-83428000D01*
G75*
G02*
X100241000Y-83677999I0J-249999D01*
G01*
X100241000Y-84978001D01*
G75*
G02*
X99991001Y-85228000I-249999J0D01*
G01*
X99340999Y-85228000D01*
G75*
G02*
X99091000Y-84978001I0J249999D01*
G01*
G37*
%TD*%
%TO.C,C15*%
G36*
G01*
X117415000Y-112633999D02*
X117415000Y-113934001D01*
G75*
G02*
X117165001Y-114184000I-249999J0D01*
G01*
X116514999Y-114184000D01*
G75*
G02*
X116265000Y-113934001I0J249999D01*
G01*
X116265000Y-112633999D01*
G75*
G02*
X116514999Y-112384000I249999J0D01*
G01*
X117165001Y-112384000D01*
G75*
G02*
X117415000Y-112633999I0J-249999D01*
G01*
G37*
G36*
G01*
X120365000Y-112633999D02*
X120365000Y-113934001D01*
G75*
G02*
X120115001Y-114184000I-249999J0D01*
G01*
X119464999Y-114184000D01*
G75*
G02*
X119215000Y-113934001I0J249999D01*
G01*
X119215000Y-112633999D01*
G75*
G02*
X119464999Y-112384000I249999J0D01*
G01*
X120115001Y-112384000D01*
G75*
G02*
X120365000Y-112633999I0J-249999D01*
G01*
G37*
%TD*%
%TO.C,C14*%
G36*
G01*
X142583000Y-109362001D02*
X142583000Y-108061999D01*
G75*
G02*
X142832999Y-107812000I249999J0D01*
G01*
X143483001Y-107812000D01*
G75*
G02*
X143733000Y-108061999I0J-249999D01*
G01*
X143733000Y-109362001D01*
G75*
G02*
X143483001Y-109612000I-249999J0D01*
G01*
X142832999Y-109612000D01*
G75*
G02*
X142583000Y-109362001I0J249999D01*
G01*
G37*
G36*
G01*
X139633000Y-109362001D02*
X139633000Y-108061999D01*
G75*
G02*
X139882999Y-107812000I249999J0D01*
G01*
X140533001Y-107812000D01*
G75*
G02*
X140783000Y-108061999I0J-249999D01*
G01*
X140783000Y-109362001D01*
G75*
G02*
X140533001Y-109612000I-249999J0D01*
G01*
X139882999Y-109612000D01*
G75*
G02*
X139633000Y-109362001I0J249999D01*
G01*
G37*
%TD*%
%TO.C,C13*%
G36*
G01*
X130698001Y-96636000D02*
X129397999Y-96636000D01*
G75*
G02*
X129148000Y-96386001I0J249999D01*
G01*
X129148000Y-95735999D01*
G75*
G02*
X129397999Y-95486000I249999J0D01*
G01*
X130698001Y-95486000D01*
G75*
G02*
X130948000Y-95735999I0J-249999D01*
G01*
X130948000Y-96386001D01*
G75*
G02*
X130698001Y-96636000I-249999J0D01*
G01*
G37*
G36*
G01*
X130698001Y-99586000D02*
X129397999Y-99586000D01*
G75*
G02*
X129148000Y-99336001I0J249999D01*
G01*
X129148000Y-98685999D01*
G75*
G02*
X129397999Y-98436000I249999J0D01*
G01*
X130698001Y-98436000D01*
G75*
G02*
X130948000Y-98685999I0J-249999D01*
G01*
X130948000Y-99336001D01*
G75*
G02*
X130698001Y-99586000I-249999J0D01*
G01*
G37*
%TD*%
%TO.C,C12*%
G36*
G01*
X143880000Y-84693999D02*
X143880000Y-85994001D01*
G75*
G02*
X143630001Y-86244000I-249999J0D01*
G01*
X142979999Y-86244000D01*
G75*
G02*
X142730000Y-85994001I0J249999D01*
G01*
X142730000Y-84693999D01*
G75*
G02*
X142979999Y-84444000I249999J0D01*
G01*
X143630001Y-84444000D01*
G75*
G02*
X143880000Y-84693999I0J-249999D01*
G01*
G37*
G36*
G01*
X146830000Y-84693999D02*
X146830000Y-85994001D01*
G75*
G02*
X146580001Y-86244000I-249999J0D01*
G01*
X145929999Y-86244000D01*
G75*
G02*
X145680000Y-85994001I0J249999D01*
G01*
X145680000Y-84693999D01*
G75*
G02*
X145929999Y-84444000I249999J0D01*
G01*
X146580001Y-84444000D01*
G75*
G02*
X146830000Y-84693999I0J-249999D01*
G01*
G37*
%TD*%
%TO.C,C11*%
G36*
G01*
X113725000Y-113934001D02*
X113725000Y-112633999D01*
G75*
G02*
X113974999Y-112384000I249999J0D01*
G01*
X114625001Y-112384000D01*
G75*
G02*
X114875000Y-112633999I0J-249999D01*
G01*
X114875000Y-113934001D01*
G75*
G02*
X114625001Y-114184000I-249999J0D01*
G01*
X113974999Y-114184000D01*
G75*
G02*
X113725000Y-113934001I0J249999D01*
G01*
G37*
G36*
G01*
X110775000Y-113934001D02*
X110775000Y-112633999D01*
G75*
G02*
X111024999Y-112384000I249999J0D01*
G01*
X111675001Y-112384000D01*
G75*
G02*
X111925000Y-112633999I0J-249999D01*
G01*
X111925000Y-113934001D01*
G75*
G02*
X111675001Y-114184000I-249999J0D01*
G01*
X111024999Y-114184000D01*
G75*
G02*
X110775000Y-113934001I0J249999D01*
G01*
G37*
%TD*%
%TO.C,C10*%
G36*
G01*
X129397999Y-92389000D02*
X130698001Y-92389000D01*
G75*
G02*
X130948000Y-92638999I0J-249999D01*
G01*
X130948000Y-93289001D01*
G75*
G02*
X130698001Y-93539000I-249999J0D01*
G01*
X129397999Y-93539000D01*
G75*
G02*
X129148000Y-93289001I0J249999D01*
G01*
X129148000Y-92638999D01*
G75*
G02*
X129397999Y-92389000I249999J0D01*
G01*
G37*
G36*
G01*
X129397999Y-89439000D02*
X130698001Y-89439000D01*
G75*
G02*
X130948000Y-89688999I0J-249999D01*
G01*
X130948000Y-90339001D01*
G75*
G02*
X130698001Y-90589000I-249999J0D01*
G01*
X129397999Y-90589000D01*
G75*
G02*
X129148000Y-90339001I0J249999D01*
G01*
X129148000Y-89688999D01*
G75*
G02*
X129397999Y-89439000I249999J0D01*
G01*
G37*
%TD*%
%TO.C,C9*%
G36*
G01*
X98790999Y-99882000D02*
X100091001Y-99882000D01*
G75*
G02*
X100341000Y-100131999I0J-249999D01*
G01*
X100341000Y-100782001D01*
G75*
G02*
X100091001Y-101032000I-249999J0D01*
G01*
X98790999Y-101032000D01*
G75*
G02*
X98541000Y-100782001I0J249999D01*
G01*
X98541000Y-100131999D01*
G75*
G02*
X98790999Y-99882000I249999J0D01*
G01*
G37*
G36*
G01*
X98790999Y-96932000D02*
X100091001Y-96932000D01*
G75*
G02*
X100341000Y-97181999I0J-249999D01*
G01*
X100341000Y-97832001D01*
G75*
G02*
X100091001Y-98082000I-249999J0D01*
G01*
X98790999Y-98082000D01*
G75*
G02*
X98541000Y-97832001I0J249999D01*
G01*
X98541000Y-97181999D01*
G75*
G02*
X98790999Y-96932000I249999J0D01*
G01*
G37*
%TD*%
%TO.C,C8*%
G36*
G01*
X102473999Y-99911000D02*
X103774001Y-99911000D01*
G75*
G02*
X104024000Y-100160999I0J-249999D01*
G01*
X104024000Y-100811001D01*
G75*
G02*
X103774001Y-101061000I-249999J0D01*
G01*
X102473999Y-101061000D01*
G75*
G02*
X102224000Y-100811001I0J249999D01*
G01*
X102224000Y-100160999D01*
G75*
G02*
X102473999Y-99911000I249999J0D01*
G01*
G37*
G36*
G01*
X102473999Y-96961000D02*
X103774001Y-96961000D01*
G75*
G02*
X104024000Y-97210999I0J-249999D01*
G01*
X104024000Y-97861001D01*
G75*
G02*
X103774001Y-98111000I-249999J0D01*
G01*
X102473999Y-98111000D01*
G75*
G02*
X102224000Y-97861001I0J249999D01*
G01*
X102224000Y-97210999D01*
G75*
G02*
X102473999Y-96961000I249999J0D01*
G01*
G37*
%TD*%
%TO.C,C7*%
G36*
G01*
X148728000Y-109362001D02*
X148728000Y-108061999D01*
G75*
G02*
X148977999Y-107812000I249999J0D01*
G01*
X149628001Y-107812000D01*
G75*
G02*
X149878000Y-108061999I0J-249999D01*
G01*
X149878000Y-109362001D01*
G75*
G02*
X149628001Y-109612000I-249999J0D01*
G01*
X148977999Y-109612000D01*
G75*
G02*
X148728000Y-109362001I0J249999D01*
G01*
G37*
G36*
G01*
X145778000Y-109362001D02*
X145778000Y-108061999D01*
G75*
G02*
X146027999Y-107812000I249999J0D01*
G01*
X146678001Y-107812000D01*
G75*
G02*
X146928000Y-108061999I0J-249999D01*
G01*
X146928000Y-109362001D01*
G75*
G02*
X146678001Y-109612000I-249999J0D01*
G01*
X146027999Y-109612000D01*
G75*
G02*
X145778000Y-109362001I0J249999D01*
G01*
G37*
%TD*%
%TO.C,C6*%
G36*
G01*
X111925000Y-83677999D02*
X111925000Y-84978001D01*
G75*
G02*
X111675001Y-85228000I-249999J0D01*
G01*
X111024999Y-85228000D01*
G75*
G02*
X110775000Y-84978001I0J249999D01*
G01*
X110775000Y-83677999D01*
G75*
G02*
X111024999Y-83428000I249999J0D01*
G01*
X111675001Y-83428000D01*
G75*
G02*
X111925000Y-83677999I0J-249999D01*
G01*
G37*
G36*
G01*
X114875000Y-83677999D02*
X114875000Y-84978001D01*
G75*
G02*
X114625001Y-85228000I-249999J0D01*
G01*
X113974999Y-85228000D01*
G75*
G02*
X113725000Y-84978001I0J249999D01*
G01*
X113725000Y-83677999D01*
G75*
G02*
X113974999Y-83428000I249999J0D01*
G01*
X114625001Y-83428000D01*
G75*
G02*
X114875000Y-83677999I0J-249999D01*
G01*
G37*
%TD*%
%TO.C,C4*%
G36*
G01*
X151526001Y-114592000D02*
X150225999Y-114592000D01*
G75*
G02*
X149976000Y-114342001I0J249999D01*
G01*
X149976000Y-113691999D01*
G75*
G02*
X150225999Y-113442000I249999J0D01*
G01*
X151526001Y-113442000D01*
G75*
G02*
X151776000Y-113691999I0J-249999D01*
G01*
X151776000Y-114342001D01*
G75*
G02*
X151526001Y-114592000I-249999J0D01*
G01*
G37*
G36*
G01*
X151526001Y-117542000D02*
X150225999Y-117542000D01*
G75*
G02*
X149976000Y-117292001I0J249999D01*
G01*
X149976000Y-116641999D01*
G75*
G02*
X150225999Y-116392000I249999J0D01*
G01*
X151526001Y-116392000D01*
G75*
G02*
X151776000Y-116641999I0J-249999D01*
G01*
X151776000Y-117292001D01*
G75*
G02*
X151526001Y-117542000I-249999J0D01*
G01*
G37*
%TD*%
%TO.C,C2*%
G36*
G01*
X122820000Y-136794001D02*
X122820000Y-135493999D01*
G75*
G02*
X123069999Y-135244000I249999J0D01*
G01*
X123720001Y-135244000D01*
G75*
G02*
X123970000Y-135493999I0J-249999D01*
G01*
X123970000Y-136794001D01*
G75*
G02*
X123720001Y-137044000I-249999J0D01*
G01*
X123069999Y-137044000D01*
G75*
G02*
X122820000Y-136794001I0J249999D01*
G01*
G37*
G36*
G01*
X119870000Y-136794001D02*
X119870000Y-135493999D01*
G75*
G02*
X120119999Y-135244000I249999J0D01*
G01*
X120770001Y-135244000D01*
G75*
G02*
X121020000Y-135493999I0J-249999D01*
G01*
X121020000Y-136794001D01*
G75*
G02*
X120770001Y-137044000I-249999J0D01*
G01*
X120119999Y-137044000D01*
G75*
G02*
X119870000Y-136794001I0J249999D01*
G01*
G37*
%TD*%
%TO.C,C1*%
G36*
G01*
X131937999Y-142427000D02*
X133238001Y-142427000D01*
G75*
G02*
X133488000Y-142676999I0J-249999D01*
G01*
X133488000Y-143327001D01*
G75*
G02*
X133238001Y-143577000I-249999J0D01*
G01*
X131937999Y-143577000D01*
G75*
G02*
X131688000Y-143327001I0J249999D01*
G01*
X131688000Y-142676999D01*
G75*
G02*
X131937999Y-142427000I249999J0D01*
G01*
G37*
G36*
G01*
X131937999Y-139477000D02*
X133238001Y-139477000D01*
G75*
G02*
X133488000Y-139726999I0J-249999D01*
G01*
X133488000Y-140377001D01*
G75*
G02*
X133238001Y-140627000I-249999J0D01*
G01*
X131937999Y-140627000D01*
G75*
G02*
X131688000Y-140377001I0J249999D01*
G01*
X131688000Y-139726999D01*
G75*
G02*
X131937999Y-139477000I249999J0D01*
G01*
G37*
%TD*%
M02*
